<svg xmlns="http://www.w3.org/2000/svg" xmlns:xlink="http://www.w3.org/1999/xlink" width="38.395" height="40.08" viewBox="0 0 38.395 40.08">
  <defs>
    <clipPath id="clip-path">
      <rect id="사각형_1557" data-name="사각형 1557" width="38.395" height="40.08" fill="#88fd93"/>
    </clipPath>
  </defs>
  <g id="그룹_547" data-name="그룹 547" clip-path="url(#clip-path)">
    <path id="패스_1064" data-name="패스 1064" d="M38.218,8.356a8.187,8.187,0,0,0-6.486-7.241,1.154,1.154,0,0,0-.974-.7A118.989,118.989,0,0,0,14.46.17C10.127.414,5.769.735,2.983,4.494.183,8.273.291,13.162.217,17.646c-.073,4.621-.784,9.865.842,14.3,3.165,8.638,14.657,8.3,22.19,8.034,3.788-.131,8.156-.253,11.336-2.61,3.569-2.649,3.706-7.494,3.759-11.555.039-3.053,0-6.111,0-9.164a76.058,76.058,0,0,0-.122-8.3M33.461,35.108c-2.629,2.323-6.929,2.274-10.211,2.391-6.277.219-17.272.959-19.887-6.481-1.266-3.6-.75-7.8-.691-11.54C2.735,15.441,2.3,10.8,4.259,7.114,6.65,2.6,11.743,2.751,16.233,2.571a118.561,118.561,0,0,1,12.48.219A1,1,0,0,0,29.7,3.4a5.93,5.93,0,0,1,4.631,1.826c1.48,1.578,1.5,3.706,1.51,5.746.029,4.261.019,8.526.024,12.787,0,3.535.536,8.755-2.405,11.351" transform="translate(0.002 -0.001)" fill="#88fd93"/>
    <path id="패스_1065" data-name="패스 1065" d="M10.139,2.34a1,1,0,0,0-.789.711A8.233,8.233,0,0,0,1.895,10,11.864,11.864,0,0,0,6.438,21.3a10.1,10.1,0,0,0,11.589.3,10.788,10.788,0,0,0,3.569-5.58,11.9,11.9,0,0,0,.618-6.963C20.764,3.864,15.193,1.278,10.139,2.34m9.534,11.472a12.3,12.3,0,0,1-2.2,4.967c-1.982,2.259-5.648,2.547-8.263,1.31a9.155,9.155,0,0,1-4.981-7.752,6.906,6.906,0,0,1,1.66-5.181,5.274,5.274,0,0,1,4.981-1.539,1.2,1.2,0,0,0,1.49-.969A7.536,7.536,0,0,1,19.41,8.626a7.218,7.218,0,0,1,.263,5.186" transform="translate(6.749 8.143)" fill="#88fd93"/>
    <path id="패스_1066" data-name="패스 1066" d="M6.295,1.7l-.044-.015h0l.049.015" transform="translate(24.168 6.515)" fill="#88fd93"/>
    <path id="패스_1067" data-name="패스 1067" d="M10.2,1.721a1.118,1.118,0,0,0-1.057-.657A4.163,4.163,0,0,0,5.557,3.8,3.974,3.974,0,0,0,6.565,7.9a3.77,3.77,0,0,0,4.285.716,3.7,3.7,0,0,0,2.181-3.55A3.989,3.989,0,0,0,11.97,2.69,3.489,3.489,0,0,0,10.2,1.721m.258,3.107.019.029c.039.068.019.088-.019-.029m-.394,1.378c-.049.029-.107.073-.136.093l-.161.088c-.054.029-.195.068-.019.015.214-.058-.136.049-.195.063s-.243.049-.195.049l-.049,0H9.092l-.049,0c-.1-.024-.195-.054-.292-.083l-.088-.044-.127-.073-.063-.044A1.8,1.8,0,0,1,8.3,6.108c-.088-.088-.248-.351-.073-.058-.058-.093-.127-.18-.185-.278-.029-.054-.054-.107-.088-.161-.029-.088-.058-.175-.083-.263l-.029-.131a2.643,2.643,0,0,1-.01-.278l0-.078,0-.034c.015-.068.063-.185.083-.278,0-.015-.01,0,0-.029l.01-.015.015-.039-.01.034c.029-.063.063-.122.1-.18l.088-.141A3.538,3.538,0,0,1,8.4,3.907a1.116,1.116,0,0,0,.112-.1c-.19.209-.112.083-.01.015s.175-.1.263-.146l0,.015a1.449,1.449,0,0,0,.881.365c-.4-.049-.029.015.083.044-.015,0-.019,0,0,0l.01,0,.136.049a.6.6,0,0,1-.1-.034c.088.049.166.1.248.151a1.678,1.678,0,0,1,.136.127l.088.093c.044.073.1.146.136.209l.068.122c.024.1.063.19.088.287l.01.063,0,.039,0,.229-.034.127a1.119,1.119,0,0,1-.039.122l-.01.019a2.292,2.292,0,0,1-.141.234l-.063.073c-.063.068-.136.131-.2.195m.492-.779c0-.131.034-.131.01-.039l-.01.039" transform="translate(20.684 4.097)" fill="#88fd93"/>
    <path id="패스_1068" data-name="패스 1068" d="M5.9,1.766l0,0-.01.044c-.019.058.01.024.015-.049" transform="translate(22.731 6.832)" fill="#88fd93"/>
  </g>
</svg>
