<svg id="그룹_440" data-name="그룹 440" xmlns="http://www.w3.org/2000/svg" xmlns:xlink="http://www.w3.org/1999/xlink" width="93.88" height="93.88" viewBox="0 0 93.88 93.88">
  <defs>
    <clipPath id="clip-path">
      <rect id="사각형_1288" data-name="사각형 1288" width="93.88" height="93.88" fill="#00ee17"/>
    </clipPath>
  </defs>
  <path id="패스_971" data-name="패스 971" d="M.143,48.508V50.05l7.037.491V48.017Z" transform="translate(-0.075 -25.124)" fill="#00ee17"/>
  <path id="패스_972" data-name="패스 972" d="M.143,68.212v1.541l7.037.491V67.722Z" transform="translate(-0.075 -35.434)" fill="#00ee17"/>
  <path id="패스_973" data-name="패스 973" d="M.143,87.916v1.541l7.037.491V87.425Z" transform="translate(-0.075 -45.742)" fill="#00ee17"/>
  <path id="패스_974" data-name="패스 974" d="M.143,107.62v1.543l7.037.489V107.13Z" transform="translate(-0.075 -56.052)" fill="#00ee17"/>
  <path id="패스_975" data-name="패스 975" d="M.143,147.028v1.542l7.037.491v-2.524Z" transform="translate(-0.075 -76.671)" fill="#00ee17"/>
  <path id="패스_976" data-name="패스 976" d="M.143,127.324v1.543l7.037.489v-2.522Z" transform="translate(-0.075 -66.362)" fill="#00ee17"/>
  <path id="패스_977" data-name="패스 977" d="M182,49.279v1.262l7.037-.491V48.509L182,48.018Z" transform="translate(-95.227 -25.124)" fill="#00ee17"/>
  <path id="패스_978" data-name="패스 978" d="M182,68.983v1.262l7.037-.491V68.213L182,67.723Z" transform="translate(-95.227 -35.434)" fill="#00ee17"/>
  <path id="패스_979" data-name="패스 979" d="M182,88.686v1.262l7.037-.491V87.916L182,87.425Z" transform="translate(-95.227 -45.743)" fill="#00ee17"/>
  <path id="패스_980" data-name="패스 980" d="M182,108.391v1.261l7.037-.49V107.62L182,107.13Z" transform="translate(-95.227 -56.052)" fill="#00ee17"/>
  <path id="패스_981" data-name="패스 981" d="M182,147.8v1.263l7.037-.491v-1.541L182,146.537Z" transform="translate(-95.227 -76.671)" fill="#00ee17"/>
  <path id="패스_982" data-name="패스 982" d="M182,128.1v1.261l7.037-.49v-1.542l-7.037-.49Z" transform="translate(-95.227 -66.362)" fill="#00ee17"/>
  <path id="패스_983" data-name="패스 983" d="M32.107,19.673H30.566l-.491,7.037H32.6Z" transform="translate(-15.736 -10.293)" fill="#00ee17"/>
  <path id="패스_984" data-name="패스 984" d="M51.053,19.673H49.511L49.02,26.71h2.523Z" transform="translate(-25.648 -10.293)" fill="#00ee17"/>
  <path id="패스_985" data-name="패스 985" d="M70,19.673H68.456l-.491,7.037h2.523Z" transform="translate(-35.561 -10.293)" fill="#00ee17"/>
  <path id="패스_986" data-name="패스 986" d="M88.943,19.673H87.4L86.91,26.71h2.523Z" transform="translate(-45.473 -10.293)" fill="#00ee17"/>
  <path id="패스_987" data-name="패스 987" d="M107.888,19.673h-1.542l-.491,7.037h2.523Z" transform="translate(-55.386 -10.293)" fill="#00ee17"/>
  <path id="패스_988" data-name="패스 988" d="M126.834,19.673h-1.542L124.8,26.71h2.523Z" transform="translate(-65.298 -10.293)" fill="#00ee17"/>
  <path id="패스_989" data-name="패스 989" d="M145.778,19.673h-1.541l-.491,7.037h2.524Z" transform="translate(-75.21 -10.293)" fill="#00ee17"/>
  <path id="패스_990" data-name="패스 990" d="M164.723,19.673h-1.541l-.491,7.037h2.524Z" transform="translate(-85.123 -10.293)" fill="#00ee17"/>
  <path id="패스_991" data-name="패스 991" d="M32.107,169.508H30.566l-.491-7.037H32.6Z" transform="translate(-15.736 -85.008)" fill="#00ee17"/>
  <path id="패스_992" data-name="패스 992" d="M51.053,169.508H49.511l-.491-7.037h2.523Z" transform="translate(-25.648 -85.008)" fill="#00ee17"/>
  <path id="패스_993" data-name="패스 993" d="M70,169.508H68.456l-.491-7.037h2.523Z" transform="translate(-35.561 -85.008)" fill="#00ee17"/>
  <path id="패스_994" data-name="패스 994" d="M88.943,169.508H87.4l-.491-7.037h2.523Z" transform="translate(-45.473 -85.008)" fill="#00ee17"/>
  <path id="패스_995" data-name="패스 995" d="M107.888,169.508h-1.542l-.491-7.037h2.523Z" transform="translate(-55.386 -85.008)" fill="#00ee17"/>
  <path id="패스_996" data-name="패스 996" d="M126.834,169.508h-1.542l-.491-7.037h2.523Z" transform="translate(-65.298 -85.008)" fill="#00ee17"/>
  <path id="패스_997" data-name="패스 997" d="M145.778,169.508h-1.541l-.491-7.037h2.524Z" transform="translate(-75.21 -85.008)" fill="#00ee17"/>
  <path id="패스_998" data-name="패스 998" d="M164.723,169.508h-1.541l-.491-7.037h2.524Z" transform="translate(-85.123 -85.008)" fill="#00ee17"/>
  <g id="그룹_439" data-name="그룹 439">
    <g id="그룹_438" data-name="그룹 438" clip-path="url(#clip-path)">
      <path id="패스_999" data-name="패스 999" d="M93.51,39.143H20.965a1.431,1.431,0,0,0-1.431,1.43V94.268A1.431,1.431,0,0,0,20.965,95.7H93.51a1.43,1.43,0,0,0,1.43-1.431V40.573a1.43,1.43,0,0,0-1.43-1.43M40.474,73.834a9.435,9.435,0,0,0,2.691-.3V69.369l-3.547.009V65.867l7.543.01V76.412a23.641,23.641,0,0,1-6.776,1.051c-3.629,0-6.21-.956-8.039-2.726A9.558,9.558,0,0,1,29.5,67.549c.03-6.609,4.839-10.386,11.36-10.386a18.351,18.351,0,0,1,6.509,1.357L46.08,61.976a14.051,14.051,0,0,0-5.282-1.1c-3.748,0-6.916,2.125-6.916,6.433a6.233,6.233,0,0,0,6.592,6.521M63.443,68.2a9.222,9.222,0,0,1-6.462,2.095,11.867,11.867,0,0,1-1.534-.054v7.076H50.991V57.695a36.819,36.819,0,0,1,6.078-.413c2.773,0,4.75.531,6.078,1.592a5.817,5.817,0,0,1,2.124,4.6A6.356,6.356,0,0,1,63.443,68.2m20.619.323c0,6.138-3.045,9.158-8.238,9.158-5.017,0-8.019-2.872-8.019-9.216V57.369h4.514V68.817c0,3.423,1.313,4.858,3.614,4.858,2.36,0,3.644-1.347,3.644-4.858V57.369h4.485Z" transform="translate(-10.221 -20.48)" fill="#00ee17"/>
      <path id="패스_1000" data-name="패스 1000" d="M96.7,84.222a7.534,7.534,0,0,0-1.852.177v5.717a7.2,7.2,0,0,0,1.5.082c2.39,0,3.872-.98,3.872-3.015,0-1.83-1.278-2.96-3.52-2.96" transform="translate(-49.629 -44.067)" fill="#00ee17"/>
    </g>
  </g>
</svg>
