<svg id="그룹_437" data-name="그룹 437" xmlns="http://www.w3.org/2000/svg" xmlns:xlink="http://www.w3.org/1999/xlink" width="291.703" height="51.091" viewBox="0 0 291.703 51.091">
  <defs>
    <clipPath id="clip-path">
      <rect id="사각형_1221" data-name="사각형 1221" width="291.703" height="51.091" fill="#00ee17"/>
    </clipPath>
  </defs>
  <g id="그룹_387" data-name="그룹 387" clip-path="url(#clip-path)">
    <path id="패스_922" data-name="패스 922" d="M573.991,36.191c.63-.051,1.257-.117,1.885-.151,1.544-.085,3.091-.132,4.633-.24,1.524-.107,3.044-.264,4.565-.415.383-.038.76-.137,1.14-.206.5-.091,1-.2,1.5-.268,1.025-.143,2.053-.266,3.079-.4.035,0,.07-.007.105-.008,1.482-.043,1.615.223,1.985,1.315.41,1.209.74,2.444,1.116,3.665.278.9.58,1.8.857,2.7.128.418.408.533.821.59a33.21,33.21,0,0,0,5.527.139c.861-.025,1.723,0,2.584-.008a2.7,2.7,0,0,1,1.731.46c.1-.493.205-.892.251-1.3a5.455,5.455,0,0,1,.552-1.8c.4-.817.746-1.661,1.128-2.487a11.043,11.043,0,0,1,.686-1.356,1.649,1.649,0,0,1,1.905-.77c.564.132,1.13.272,1.7.35,1.164.159,2.336.267,3.5.42a16.246,16.246,0,0,1,1.76.32,14.864,14.864,0,0,0,2.658.346c1.629.1,3.264.208,4.878.436a14.218,14.218,0,0,1,3.749,1.238c-.1.8-.165,1.6-.317,2.384-.226,1.168-.589,2.313-.762,3.487-.266,1.8-.445,3.613-.614,5.424a29.439,29.439,0,0,1-.547,4,26.166,26.166,0,0,0-.458,3.007,14.264,14.264,0,0,1-.809,3.414,35.949,35.949,0,0,0-1.84,7,18.464,18.464,0,0,1-1.414,4.608c-.3.671-.53,1.37-.793,2.057a4.412,4.412,0,0,1-.82,1.516.9.9,0,0,1-1.306.226,4.077,4.077,0,0,1-1.791-1.652,41.316,41.316,0,0,0-3.4-4.54,4.183,4.183,0,0,0-.33-.34,1.654,1.654,0,0,0-1.313-.52,16.622,16.622,0,0,0-3.64.544,18.594,18.594,0,0,1-4.329.542c-2.953-.032-5.9-.092-8.857-.149-.579-.011-1.159-.048-1.736-.1a4.239,4.239,0,0,0-2.5.689,11.166,11.166,0,0,0-1.082.747c-.592.439-1.163.905-1.763,1.333a9.843,9.843,0,0,0-2.155,2.289c-.415.564-.84,1.123-1.294,1.656a4.962,4.962,0,0,1-.795.687c-.28.214-.407.21-.612-.084a5.642,5.642,0,0,1-.55-1.01,51.779,51.779,0,0,1-2.832-8.623c-.535-2.3-1.109-4.6-1.622-6.9-.426-1.913-.779-3.843-1.179-5.762-.447-2.142-.941-4.275-1.353-6.424-.251-1.3-.423-2.626-.567-3.946a60.019,60.019,0,0,0-1.032-6.955,2.049,2.049,0,0,1,.108-1.185m39.546,19.281a1.321,1.321,0,0,0-.916-.5,23.714,23.714,0,0,0-2.379-.4,7.293,7.293,0,0,0-1.77.085c-.456.071-.55.274-.57.8a1.793,1.793,0,0,0,1.264.166,3.409,3.409,0,0,1,1.4-.151c.75.052,1.5.126,2.246.191a.765.765,0,0,0,.726-.189m-18.127,4.752c.353.008.391-.014.578-.339a4.409,4.409,0,0,1,.292-.5,1.96,1.96,0,0,0,.368-1.859c-.106-.363-.36-.393-.622-.454a.45.45,0,0,0-.593.3c-.169.55-.329,1.1-.466,1.664-.043.176.032.38-.008.558-.107.469-.013.618.452.628m-2.951-5.629.073.173a8.474,8.474,0,0,0,.97-.092c.375-.077.739-.212,1.108-.32a1.913,1.913,0,0,1,1.562-.037,1.026,1.026,0,0,0,1.223-.189,1.218,1.218,0,0,0-.7-.689,2.049,2.049,0,0,0-1.633-.006c-.8.316-1.594.625-2.386.948-.088.036-.149.139-.222.211m14.467,5.11c.62.462,1,.392,1.252-.291a12.466,12.466,0,0,0,.388-1.514.412.412,0,0,0-.039-.294.813.813,0,0,0-1.358.119c-.151.348-.27.711-.421,1.114.6.166.083.571.178.867m-.264-6.107a1.506,1.506,0,0,0,1.449.51.352.352,0,0,0,.26-.144c.193-.423.546-.437.929-.4.331.032.662.059.993.091a3.7,3.7,0,0,0,1.394-.035,2.347,2.347,0,0,0-.656-.254c-.719-.154-1.438-.308-2.162-.431a4.325,4.325,0,0,0-1.044-.061,1.235,1.235,0,0,0-1.164.725m.186-1.558c.478.42,1.076.562,1.409.262a.732.732,0,0,1,.716-.137c.485.075.971.152,1.459.2a1.662,1.662,0,0,0,.982-.15.939.939,0,0,0-.744-.369c-.448-.08-.9-.165-1.345-.239-.466-.077-.931-.167-1.4-.209a1.04,1.04,0,0,0-1.077.645m-8.651.878a1.032,1.032,0,0,0-.128-.295,1.472,1.472,0,0,0-1.6-.515c-1.091.371-2.167.789-3.243,1.2-.12.046-.2.191-.389.378a2.417,2.417,0,0,0,.393-.027c.5-.153,1-.316,1.5-.472s1-.312,1.505-.46a.564.564,0,0,1,.632.1c.4.409.849.3,1.333.088m.138-1.42a7.761,7.761,0,0,0-5.371-.418c.01.339.252.305.483.305.77,0,1.541-.01,2.311.01a4.443,4.443,0,0,1,1.547.243.98.98,0,0,0,1.03-.14m3.373,4.25c.7.131,1.006-.071,1.132-.723.113-.586.042-.679-.546-.7a.877.877,0,0,0-.181.027,1.556,1.556,0,0,0-.4,1.4" transform="translate(-434.776 -26.141)" fill="#00ee17"/>
    <path id="패스_923" data-name="패스 923" d="M22.671,62.107c-.075.364-.176.734-.223,1.111a5.892,5.892,0,0,1-.622,1.992c-.4.778-.719,1.6-1.078,2.394a11.834,11.834,0,0,1-.543,1.137,1.744,1.744,0,0,1-2.17.937q-.747-.161-1.494-.316a13.638,13.638,0,0,0-2.191-.271,15.054,15.054,0,0,1-3.172-.479,13.339,13.339,0,0,0-2.707-.36c-1.629-.085-3.261-.217-4.877-.436a14.513,14.513,0,0,1-3.3-1.058c-.258-.1-.3-.265-.286-.532a18.714,18.714,0,0,1,.662-3.61,33.362,33.362,0,0,0,.775-4.926c.178-1.566.27-3.141.431-4.708.05-.484.217-.955.3-1.437.171-.983.372-1.965.467-2.956a14.363,14.363,0,0,1,.837-3.728A35.354,35.354,0,0,0,5.3,37.912,18.286,18.286,0,0,1,6.65,33.447c.336-.769.615-1.564.918-2.347a4,4,0,0,1,.822-1.453.844.844,0,0,1,1.137-.205,3.683,3.683,0,0,1,1.7,1.449,42.11,42.11,0,0,0,3.306,4.48c.082.113.183.213.271.322a2.1,2.1,0,0,0,1.871.83,22.293,22.293,0,0,0,3.739-.6,17.608,17.608,0,0,1,3.915-.476c1.476.014,2.951.06,4.427.083.9.014,1.794,0,2.69.02,1.194.029,2.39.053,3.581.131a3.769,3.769,0,0,0,2.449-.654c1.293-.9,2.567-1.841,3.767-2.86A10.925,10.925,0,0,0,42.768,30.3,9.165,9.165,0,0,1,44.4,28.454c.5-.387.652-.369.979.179a5.675,5.675,0,0,1,.318.662,54.744,54.744,0,0,1,3.114,9.743c.607,2.7,1.261,5.387,1.848,8.09.576,2.651,1.077,5.319,1.644,7.972.351,1.645.709,3.287.9,4.958.157,1.356.265,2.719.45,4.071.161,1.178.407,2.344.6,3.518a8.391,8.391,0,0,1,.083,1.09.418.418,0,0,1-.448.47c-.543.033-1.085.089-1.629.108a52.377,52.377,0,0,0-5.413.383c-.33.046-.666.05-1,.065a36.008,36.008,0,0,0-4.856.617,32.625,32.625,0,0,1-3.652.476c-1.594.109-1.619-.305-1.976-1.313-.4-1.121-.711-2.271-1.064-3.408-.311-1-.632-2-.934-3.008a.659.659,0,0,0-.647-.514,29.762,29.762,0,0,0-4.256-.2c-1.5.111-3.023.056-4.534.022a5.686,5.686,0,0,1-1.262-.334m-7.8-12.913c.56.409.837.353,1.146-.207.034-.061.05-.16.1-.179.413-.16.407-.564.541-.887a1.683,1.683,0,0,0-.177-1.5.643.643,0,0,0-.654-.342.852.852,0,0,0-.758.978c0,.052,0,.105.014.157a4.012,4.012,0,0,1-.212,1.986m5.583,4.982.046-.138a1.9,1.9,0,0,0-.526-.278,2.876,2.876,0,0,0-1.087-.06c-1.024.237-2.034.537-3.043.834a3.08,3.08,0,0,0-.757.362c-.332.21-.357.49-.052.718a2.124,2.124,0,0,0,.617.236c.038.012.094-.031.148-.051l-.108-.469.485-.132c.878-.244,1.754-.5,2.635-.727.37-.1.754-.143,1.131-.211.17-.03.34-.055.511-.083m12.354-5.214c.435.276.773.046,1.13-.091a.818.818,0,0,0,.641-.842,4.144,4.144,0,0,1,.11-.562c.023-.2.178-.407-.008-.6a1.049,1.049,0,0,0-.822-.4c-.292.02-.618.015-.759.35a3.407,3.407,0,0,0-.293,2.144M17.346,58.592a.788.788,0,0,0,.985.136c.411-.2.825-.388,1.229-.6a2.805,2.805,0,0,1,1.609-.391.727.727,0,0,0,.711-.236,2.629,2.629,0,0,0-.474-.411,1.959,1.959,0,0,0-1.681-.1,8.737,8.737,0,0,0-2.379,1.6m.2-1.06a8.187,8.187,0,0,1,.849-.932c.488-.393,1.026-.724,1.541-1.084a1.137,1.137,0,0,1,.84-.209.83.83,0,0,0,.791-.259,1.546,1.546,0,0,0-2.062-.217,19.318,19.318,0,0,0-1.733,1.516,2.377,2.377,0,0,0-.424.709.328.328,0,0,0,.2.477m15.47-.649a.709.709,0,0,0-.819-.077.8.8,0,0,1-.443.1c-.522-.038-1.041-.107-1.562-.156A1.239,1.239,0,0,0,29,57.157a.79.79,0,0,0,.716.382c.838-.04,1.676-.088,2.512-.162a1.059,1.059,0,0,0,.783-.493m-8.973-3.43c.68.154.724.131.982-.415a.835.835,0,0,1,.209-.286,1,1,0,0,0,.285-.953c-.018-.232-.355-.4-.666-.4a.416.416,0,0,0-.463.391c-.069.394-.183.78-.271,1.172-.036.162-.053.329-.077.489m8.669,2.586a.594.594,0,0,0-.392-.84c-.455-.174-.914-.346-1.383-.476A3.886,3.886,0,0,0,30,54.6a.55.55,0,0,0-.59.441,1.335,1.335,0,0,0,1.456.309,1.185,1.185,0,0,1,1.48.688Zm-3.882-2.682a1.729,1.729,0,0,0,.444.164c1.248.035,2.5.057,3.759.083-.051-.285-.26-.252-.447-.272-.9-.1-1.8-.2-2.7-.312a1.234,1.234,0,0,0-1.052.336" transform="translate(0 -21.358)" fill="#00ee17"/>
    <path id="패스_924" data-name="패스 924" d="M834.555,72.36c-.237-1.131-.4-2.233-.678-3.329-.352.073-.466.275-.426.509.139.8-.364,1.236-.917,1.634a8.193,8.193,0,0,1-1.155.731c-1.387.68-2.775,1.361-4.187,1.986a9.079,9.079,0,0,1-5.3.7,8.186,8.186,0,0,1-1.417-.39,13.887,13.887,0,0,1-2.877-1.53,4.517,4.517,0,0,1-1.212-1.231,12.113,12.113,0,0,1-1.889-4.915,6,6,0,0,1,.034-1.673c.137-1.181.348-2.355.477-3.536.076-.694.046-1.4.081-2.1a3.362,3.362,0,0,1,.128-.93c.271-.775.559-1.548.9-2.294a3.728,3.728,0,0,1,1.3-1.5q1.277-.881,2.607-1.685a7.417,7.417,0,0,1,2.863-.837c1.182-.168,2.362-.357,3.549-.478a8.34,8.34,0,0,1,1.786.035c1.308.151,2.612.34,3.913.541.5.077.989.229,1.495.35.006-.021.04-.071.032-.114-.139-.756-.235-1.525-.437-2.264a3.876,3.876,0,0,0-2.9-2.969c-.867-.218-1.747-.393-2.627-.546a9.554,9.554,0,0,0-3.095.071c-1.753.267-3.515.474-5.266.753a11.838,11.838,0,0,1-2.868.324l-.392-.036a2.609,2.609,0,0,1-.036-.418c.051-.681.119-1.36.17-2.041.028-.366.047-.734.049-1.1,0-1.559-.005-3.119,0-4.678.007-1.256.257-1.571,1.495-1.816a15.689,15.689,0,0,1,1.721-.219,14.422,14.422,0,0,0,3.027-.678,14.189,14.189,0,0,1,5.666-.635c1.607.162,3.224.234,4.836.357a17.292,17.292,0,0,1,4.02.792,37.914,37.914,0,0,0,3.72.966,8.062,8.062,0,0,1,4.2,2.46,9.3,9.3,0,0,1,2.149,3.441c.472,1.354,1.057,2.67,1.628,3.987a11.192,11.192,0,0,1,.986,4.426c.007,1,.154,1.991.173,2.987a31.681,31.681,0,0,1-.1,4.463c-.053.434-.052.873-.085,1.31-.107,1.414-.222,2.827-.325,4.241-.063.873-.092,1.749-.169,2.62-.1,1.149-.237,2.3-.35,3.444a.8.8,0,0,1-.438.616,2.363,2.363,0,0,1-1.83.283,15.106,15.106,0,0,0-4.186-.325c-1.789.1-3.583.108-5.374.165-.632.02-1.263.073-1.894.1a5.726,5.726,0,0,1-.573-.03m-3.691-15.155c-.57.337-.76,0-1.126.445a6.167,6.167,0,0,1-.782.847,1.758,1.758,0,0,0-.644,1.731c.051.329.123.654.175.982a5.145,5.145,0,0,0,.672,1.757,1,1,0,0,0,1.246.526,7.157,7.157,0,0,0,.907-.274,3.168,3.168,0,0,0,2.022-2.488,10.2,10.2,0,0,0,.105-1.255,1.668,1.668,0,0,0-.585-1.4.7.7,0,0,0-.457-.2.484.484,0,0,1-.465-.267c-.282-.378-.749.023-1.068-.4" transform="translate(-617.075 -27.271)" fill="#00ee17"/>
    <path id="패스_925" data-name="패스 925" d="M260.747,59a4.921,4.921,0,0,0,.154.923,14.422,14.422,0,0,0,1.88,3.451,3.353,3.353,0,0,0,1.293,1.058c.62.287,1.254.549,1.9.78a2.49,2.49,0,0,0,.829.1,27.491,27.491,0,0,0,4.157-.185c.623-.094,1.255-.129,1.879-.221a10.832,10.832,0,0,0,3.229-1.244,7.244,7.244,0,0,1,.86-.4c.526-.182.823-.029.93.513a11.6,11.6,0,0,1,.221,1.713c.037.822.045,1.649,0,2.47a14.493,14.493,0,0,0,.515,4.1c.128.542.187,1.1.265,1.654a.716.716,0,0,1-.433.771,8.847,8.847,0,0,1-1.045.5c-1.452.529-2.917,1.019-4.365,1.557a12.9,12.9,0,0,1-5.456.592c-.263-.017-.527-.047-.789-.04a17.711,17.711,0,0,1-3.4-.324c-1.489-.25-2.979-.492-4.469-.734a10.544,10.544,0,0,1-2.91-.891,23.483,23.483,0,0,1-4.41-2.663,14.545,14.545,0,0,1-4.609-6.033,36.506,36.506,0,0,1-2.081-7.527c-.06-.345-.134-.688-.168-1.036a6.521,6.521,0,0,1,.316-2.945c.525-1.428.93-2.9,1.406-4.347.257-.781.53-1.559.844-2.319a7.061,7.061,0,0,1,.76-1.435,17.452,17.452,0,0,1,4.18-4.267,2.968,2.968,0,0,0,.34-.249,8.977,8.977,0,0,1,3.693-1.831c1.008-.3,2.007-.639,3.02-.922a16.339,16.339,0,0,1,3.586-.548,20.725,20.725,0,0,1,8.879,1.688,6.028,6.028,0,0,1,3.294,2.861c.556,1.074,1.14,2.133,1.673,3.218.245.5.388,1.05.592,1.571.42,1.076.837,2.155,1.28,3.222a9.537,9.537,0,0,1,.572,4.541,1.319,1.319,0,0,1-1.012,1.267,21.646,21.646,0,0,1-2.252.527q-2.262.36-4.54.622c-.819.1-1.648.109-2.473.153-1.141.061-2.281.124-3.422.171-1.351.055-2.7.095-4.055.139-.189.006-.378,0-.653,0m6.047-6.121c-.071-.588-.146-1.1-.192-1.621a7.266,7.266,0,0,0-1.059-3.426,2.409,2.409,0,0,0-.624-.688,1.837,1.837,0,0,0-2.359.2c-.2.176-.389.355-.578.538a3.846,3.846,0,0,0-1.08,1.834,9.684,9.684,0,0,0-.282,1.334,4.54,4.54,0,0,0,.028,2.119c.2-.376.522-.37.841-.365q2.425.037,4.849.078c.12,0,.24,0,.455,0" transform="translate(-185.382 -29.55)" fill="#00ee17"/>
    <path id="패스_926" data-name="패스 926" d="M437.781,62.047c-.1,1.2-.2,2.406-.293,3.61-.052.68-.073,1.363-.131,2.043a10.123,10.123,0,0,1-.177,1.194,5.779,5.779,0,0,1-1.262,2.564c-.775.927-1.526,1.879-2.226,2.864a8.576,8.576,0,0,1-3.638,2.773,22.733,22.733,0,0,1-3.928,1.179,13.706,13.706,0,0,1-3.082.356c-1.333.025-2.669-.062-4-.119a4.586,4.586,0,0,1-.932-.158c-1.121-.287-2.249-.557-3.356-.893a21.487,21.487,0,0,1-5.059-2.053c-.851-.519-1.78-.909-2.67-1.365a5.585,5.585,0,0,1-1.531-1.189c-.228-.244-.456-.488-.7-.715a9.968,9.968,0,0,1-2.757-5.277,18.553,18.553,0,0,1-.255-2.083c-.024-.209-.032-.42-.071-.626a11.138,11.138,0,0,1,.074-4.381c.184-.89.311-1.793.451-2.692a13.9,13.9,0,0,1,1.126-3.433c.513-1.171,1.06-2.33,1.511-3.524a6.46,6.46,0,0,1,2.887-3.289,30.914,30.914,0,0,1,5-2.331,14.716,14.716,0,0,1,4.521-.939c1.051-.055,2.1-.14,3.153-.195a1.078,1.078,0,0,1,.851.154c.064.056.2.033.307.035a31.36,31.36,0,0,1,4.332.548,12.145,12.145,0,0,1,3.752,1.608c.434.23.867.466,1.282.727a9.455,9.455,0,0,1,3.666,3.751c.588,1.194,1.136,2.407,1.694,3.614a17.336,17.336,0,0,1,.911,3.337,23.6,23.6,0,0,1,.545,4.9m-13.681-.5h-.076c0-1.068.01-2.136,0-3.2-.009-.7-.056-1.4-.079-2.1a12.42,12.42,0,0,0-1.134-4.556.633.633,0,0,0-.264-.294,14.9,14.9,0,0,0-1.662-.794,4.833,4.833,0,0,0-1.238-.193.577.577,0,0,0-.355.174A2.479,2.479,0,0,0,418.6,51.8c-.213.721-.417,1.446-.631,2.167a4.013,4.013,0,0,0-.111,1.667c.149,1.163.318,2.325.472,3.487a13.278,13.278,0,0,1,.069,3.04,13.65,13.65,0,0,0-.037,3.512,8.687,8.687,0,0,1,.1.94,12.217,12.217,0,0,0,.57,2.986,6.568,6.568,0,0,0,.645,1.373,2.239,2.239,0,0,0,1.123.917,1.519,1.519,0,0,0,2.114-1.02c.191-.8.469-1.579.659-2.379A15.771,15.771,0,0,0,424.1,64.8c0-1.086,0-2.172,0-3.258" transform="translate(-304.223 -32.845)" fill="#00ee17"/>
    <path id="패스_927" data-name="패스 927" d="M1111.29,20.508a10.991,10.991,0,0,0-4.142.178,11.648,11.648,0,0,1-1.247.248,77.94,77.94,0,0,1-.6-10.527l3.823-.962a40.188,40.188,0,0,1,0-9.409c.12-.011.254-.035.388-.035q5.09,0,10.18.014c.474,0,.947.083,1.421.083.754,0,1.509-.043,2.263-.063.276-.007.554,0,.847,0a49.707,49.707,0,0,1-.5,9.892,3.336,3.336,0,0,0,.4-.051,14.846,14.846,0,0,1,4.026-.4c.506.006.657.115.783.6a8.2,8.2,0,0,1,.116,3.077,15.522,15.522,0,0,0-.118,1.989,21.355,21.355,0,0,1-.633,5.2c-.015.064-.042.126-.067.2-.661-.285-1.288-.6-1.943-.827a5.541,5.541,0,0,0-2.132-.12c-.051,1.083-.121,2.13-.144,3.179-.026,1.191-.039,2.383,0,3.573.038,1.207.145,2.412.22,3.618.019.3.047.594.047.891,0,1.682,0,3.364,0,5.046a9.686,9.686,0,0,0,.173,1.978,10.994,10.994,0,0,1,.149,2.248,8.584,8.584,0,0,0,.247,2.394,1.957,1.957,0,0,1-.266,1.654c-.18,0-.387.008-.595,0a15.448,15.448,0,0,0-3.771.328,8.575,8.575,0,0,1-2.883.013,15.471,15.471,0,0,0-2.1-.113,8.909,8.909,0,0,1-2.594-.4,6.887,6.887,0,0,1-1.3-.672.426.426,0,0,1-.175-.252,8.68,8.68,0,0,1-.368-1.736c-.047-1.891-.044-3.785-.007-5.677.02-1.031.17-2.059.223-3.09.08-1.539.153-3.079.18-4.619.031-1.734,0-3.47.012-5.2,0-.576.066-1.152.1-1.728.008-.153,0-.307,0-.52" transform="translate(-837.422)" fill="#00ee17"/>
    <path id="패스_928" data-name="패스 928" d="M993.369,46.5a3.865,3.865,0,0,1,1.231-2.372,10.179,10.179,0,0,1,3.9-2.414c1.589-.5,3.148-1.1,4.72-1.662a1.975,1.975,0,0,1,.3-.089.486.486,0,0,1,.643.443,2.919,2.919,0,0,1,0,.835c-.133,1.024-.283,2.046-.433,3.068a44.085,44.085,0,0,0-.646,7.423,19.355,19.355,0,0,1-.3,2.657c-.039.33-.064.662-.1.992-.013.115-.04.228-.071.4-.219-.056-.4-.1-.581-.15-.846-.232-1.682-.5-2.538-.685a16.569,16.569,0,0,0-2.09-.252,3.875,3.875,0,0,0-1.9.35c-.688.308-1.365.648-2.019,1.023a1.4,1.4,0,0,0-.537.615,6.826,6.826,0,0,0-.6,2.648c-.08,4.029-.121,8.058-.23,12.086-.036,1.309-.235,2.613-.36,3.92-.017.174-.031.349-.048.523-.048.5-.2.678-.683.681a22.271,22.271,0,0,1-5.818-.406c-1.427-.369-2.879-.638-4.315-.973a14.293,14.293,0,0,1-3.02-1.081,2.517,2.517,0,0,1-1.491-1.793,3.9,3.9,0,0,1-.075-.623c-.094-2.349.024-4.694.128-7.041.138-3.1.109-6.2-.049-9.3a54.816,54.816,0,0,1,.006-5.885c.041-.734.045-1.472.026-2.207a15.735,15.735,0,0,1,.4-3.752,6.9,6.9,0,0,1,.468-1.716.618.618,0,0,1,.6-.4c1.315-.045,2.63-.091,3.943-.171a16.367,16.367,0,0,0,1.722-.232,36.863,36.863,0,0,1,3.716-.406c1.3-.086,2.589-.224,3.894-.209.448.005.742.1.862.553.17.641.389,1.272.515,1.921.187.962.3,1.937.466,2.9a6.914,6.914,0,0,0,.245.824l.11-.038" transform="translate(-739.693 -30.269)" fill="#00ee17"/>
  </g>
</svg>
