<svg id="그룹_431" data-name="그룹 431" xmlns="http://www.w3.org/2000/svg" xmlns:xlink="http://www.w3.org/1999/xlink" width="261.092" height="47.843" viewBox="0 0 261.092 47.843">
  <defs>
    <clipPath id="clip-path">
      <rect id="사각형_1223" data-name="사각형 1223" width="261.092" height="47.843" fill="#00ee17"/>
    </clipPath>
  </defs>
  <g id="그룹_391" data-name="그룹 391" clip-path="url(#clip-path)">
    <path id="패스_936" data-name="패스 936" d="M425.862,40.749c-1.615.267-3.1.575-4.591.745-2.366.27-4.74.595-7.115.633a9.979,9.979,0,0,1-8.973-5.085,14.522,14.522,0,0,1-2.092-7.171c-.123-2.422-.221-4.848-.249-7.273a41.383,41.383,0,0,1,1.218-9.781,26.555,26.555,0,0,1,2.729-7.611A9.512,9.512,0,0,1,413.1.375a15.636,15.636,0,0,1,7.264.108,7.106,7.106,0,0,1,4.515,3.428,20.878,20.878,0,0,1,2.933,9.446c.122,2.227.443,4.452.432,6.676-.022,4.213-.156,8.429-.366,12.637-.138,2.766-.479,5.523-.75,8.282-.149,1.521-.339,3.038-.516,4.555-.049.425-.159.852-.695.839s-.688-.448-.652-.867c.083-.963.242-1.919.366-2.878.076-.591.146-1.183.228-1.854M426,39.467c.138-1.66.338-3.394.416-5.134.213-4.752.442-9.5.524-14.26.036-2.067-.313-4.138-.414-6.21a20.486,20.486,0,0,0-2.667-9.054A6.123,6.123,0,0,0,419.6,1.674a15.444,15.444,0,0,0-4.8-.224A8.19,8.19,0,0,0,408.5,5.033a21.765,21.765,0,0,0-3.035,7.609,44.353,44.353,0,0,0-1.321,9.888c0,1.883,0,3.773.141,5.649a28.083,28.083,0,0,0,.7,5c1.208,4.629,4.686,7.865,9.637,7.633,2.993-.141,5.973-.6,8.956-.941.759-.086,1.509-.247,2.42-.4" transform="translate(-280.741 0)" fill="#00ee17"/>
    <path id="패스_937" data-name="패스 937" d="M709.725,41.515c-1.37.236-2.635.507-3.913.663-2.365.288-4.732.593-7.108.741a10.6,10.6,0,0,1-10.594-6.924,15.465,15.465,0,0,1-1.128-4.961c-.159-2.556-.24-5.119-.269-7.68a41.366,41.366,0,0,1,1.222-9.78,26.628,26.628,0,0,1,2.733-7.61,9.439,9.439,0,0,1,6.95-4.941,14.356,14.356,0,0,1,7.62.59,6.8,6.8,0,0,1,3.331,2.8,20.667,20.667,0,0,1,3.114,9.682c.125,2.033.445,4.063.431,6.093q-.044,6.611-.362,13.22c-.131,2.766-.476,5.523-.747,8.282-.151,1.54-.341,3.076-.523,4.613-.05.426-.176.85-.713.818s-.672-.468-.634-.886c.088-.962.249-1.918.373-2.877.076-.59.138-1.181.216-1.844m.142-1.266c.138-1.649.338-3.383.419-5.122.214-4.635.456-9.271.525-13.909.035-2.339-.288-4.683-.44-7.026a20.524,20.524,0,0,0-2.514-8.39,6.265,6.265,0,0,0-4.428-3.362,15.49,15.49,0,0,0-4.8-.21,8.166,8.166,0,0,0-6.208,3.517,21.546,21.546,0,0,0-3.074,7.654,44.466,44.466,0,0,0-1.326,9.946c0,1.884,0,3.773.143,5.649a27.957,27.957,0,0,0,.7,4.939c1.224,4.713,4.768,7.9,9.681,7.651,2.993-.151,5.972-.612,8.955-.952.757-.086,1.506-.242,2.377-.384" transform="translate(-478.571 -0.542)" fill="#00ee17"/>
    <path id="패스_938" data-name="패스 938" d="M506.06,36.669c0,2.373-.007,4.747.01,7.12a4.932,4.932,0,0,0,.213.793c.046.239.15.579.031.709a1.029,1.029,0,0,1-.77.227.819.819,0,0,1-.773-.842c-.018-.918-.012-1.836-.012-2.754,0-3.97-.012-7.94.015-11.91a50.676,50.676,0,0,1,.929-8.581c.519-2.894.963-5.8,1.533-8.686a21.722,21.722,0,0,1,4.571-9.993A7.615,7.615,0,0,1,517.4.032c4.3-.313,7.142,1.7,9.294,5a20.678,20.678,0,0,1,2.935,8.35c.512,3.331.918,6.679,1.275,10.029.227,2.134.288,4.283.415,6.427.159,2.694.44,5.39.426,8.084-.013,2.588-.333,5.174-.523,7.76a.708.708,0,0,1-.883.733.907.907,0,0,1-.679-1.086c.23-1.653.519-3.306.606-4.968a77.507,77.507,0,0,0-.459-10.656c-.186-2.179-.226-4.369-.426-6.547-.216-2.357-.479-4.713-.838-7.054A52.06,52.06,0,0,0,527.3,9.859a13.224,13.224,0,0,0-4.332-6.885,7.583,7.583,0,0,0-5.644-1.539,6.553,6.553,0,0,0-4.893,2.875,21.723,21.723,0,0,0-3.9,9.421c-.694,3.694-1.375,7.394-1.885,11.114-.319,2.324-.346,4.687-.439,7.035-.063,1.594-.012,3.192-.012,4.788h-.14" transform="translate(-351.766 0)" fill="#00ee17"/>
    <path id="패스_939" data-name="패스 939" d="M792.856,45.585c-1.871-.131-3.632-.258-5.393-.376-.522-.035-1.046-.047-1.569-.071-.58-.027-.934-.29-.9-.7.049-.534.446-.643.885-.618,1.685.093,3.374.153,5.053.313a16.216,16.216,0,0,0,9.209-1.6,9.344,9.344,0,0,0,4.872-6.43,9.775,9.775,0,0,0-3-9.989,11.438,11.438,0,0,0-6.706-2.891,16.093,16.093,0,0,1-6.416-1.671c-2.852-1.677-5.105-3.885-5.781-7.28a9.776,9.776,0,0,1,3.648-9.99,15.248,15.248,0,0,1,7.54-3.226A30,30,0,0,1,801.953.7c1.06.095,2.129.094,3.194.109.418.006.781.1.8.558.019.487-.328.645-.784.635-2.053-.045-4.108-.162-6.158-.1a23.777,23.777,0,0,0-8.248,1.5,11.268,11.268,0,0,0-5.032,3.922,8.528,8.528,0,0,0,1.1,11.005A11.843,11.843,0,0,0,794.1,21.71a16.773,16.773,0,0,1,5.528,1.244c5.081,2.452,7.506,6.6,6.982,11.778a10.785,10.785,0,0,1-7.281,9.6,19.656,19.656,0,0,1-3.228.923c-1.1.209-2.232.235-3.249.332" transform="translate(-545.593 -0.412)" fill="#00ee17"/>
    <path id="패스_940" data-name="패스 940" d="M232.722,45.962c-1.761-.122-3.522-.246-5.283-.363-.542-.036-1.085-.048-1.627-.079-.439-.025-.851-.149-.858-.67s.407-.669.851-.644c1.724.1,3.449.177,5.168.326a16.143,16.143,0,0,0,9.248-1.69A9.443,9.443,0,0,0,245.082,36a9.743,9.743,0,0,0-3.051-9.452,11.456,11.456,0,0,0-6.743-2.945,16.243,16.243,0,0,1-6.42-1.659c-2.823-1.645-5.077-3.825-5.779-7.153-.92-4.362.61-7.823,4.1-10.514a15.533,15.533,0,0,1,7.092-2.844,29.714,29.714,0,0,1,7.651-.353c1.06.093,2.129.091,3.194.108.426.007.768.125.768.588s-.323.614-.757.6c-2.072-.045-4.147-.163-6.216-.1A23.414,23.414,0,0,0,230.678,3.8a11.111,11.111,0,0,0-5.214,4.226,8.53,8.53,0,0,0,1.254,10.628,11.793,11.793,0,0,0,7.31,3.441,16.2,16.2,0,0,1,5.9,1.4c5.06,2.675,7.136,6.678,6.63,11.653a10.878,10.878,0,0,1-7.406,9.642,17.3,17.3,0,0,1-6.431,1.172" transform="translate(-155.289 -0.681)" fill="#00ee17"/>
    <path id="패스_941" data-name="패스 941" d="M611.561,43.219c.287-1.219.608-2.439.86-3.677,1.254-6.17,2.47-12.349,3.74-18.514.834-4.051,1.752-8.081,2.6-12.127.48-2.279.9-4.576,1.366-6.858a5.9,5.9,0,0,1,.461-1.287A.718.718,0,0,1,621.73.419c.358.3.269.745.054,1.281a17.315,17.315,0,0,0-.944,3.042c-.754,3.8-1.387,7.634-2.169,11.428-1.155,5.6-2.406,11.182-3.6,16.774-.773,3.613-1.512,7.235-2.294,10.845a15.5,15.5,0,0,1-.724,2.381c-.119.3-.478.681-.715.67s-.59-.429-.659-.737c-.443-1.995-.771-4.025-1.236-6.012-.589-2.522-1.3-5.005-1.907-7.523q-1.953-8.132-3.847-16.283c-.873-3.744-1.712-7.5-2.562-11.248a8.766,8.766,0,0,0-1.552-3.671.918.918,0,0,1,.009-1.244c.34-.278.716-.054,1.048.422,1.706,2.445,2.007,5.479,2.695,8.346,1.961,8.178,3.883,16.367,5.836,24.548.774,3.243,1.587,6.474,2.4,9.782" transform="translate(-417.68 0)" fill="#00ee17"/>
    <path id="패스_942" data-name="패스 942" d="M334.238,47.433a28.555,28.555,0,0,1-7.594-.92c-6.2-1.883-9.951-6.146-11.512-12.342a41.408,41.408,0,0,1-.84-5.8,33.321,33.321,0,0,1-.222-4.646,32.517,32.517,0,0,1,1.734-10.5,17.381,17.381,0,0,1,5.836-8.04,15.765,15.765,0,0,1,7.269-2.889c1.683-.24,3.4-.256,5.1-.371a9.315,9.315,0,0,1,1.451-.075,1.388,1.388,0,0,1,.82.409.676.676,0,0,1-.091.664,1.984,1.984,0,0,1-.82.193,1.7,1.7,0,0,1-.23-.022c-3.7.076-7.359.319-10.762,2a14.8,14.8,0,0,0-6.524,6.8,22.3,22.3,0,0,0-2.15,7.911,32.783,32.783,0,0,0-.324,4.99c.134,3.621.276,7.284,1.524,10.724a14.687,14.687,0,0,0,8.37,9.084,20.984,20.984,0,0,0,6.56,1.38c1.429.1,2.868.085,4.3.109.461.008.756.191.777.668s-.26.665-.7.67c-.66.007-1.321,0-1.981,0" transform="translate(-218.867 -1.279)" fill="#00ee17"/>
    <path id="패스_943" data-name="패스 943" d="M56.31,22.886l-.607-1.6-2.494-6.554-1.236-3.249a4.661,4.661,0,0,0-.641-1.457c-.417-.464-.949-.313-1.455-.116q-3.2,1.243-6.375,2.542-3.432,1.4-6.836,2.869a50.344,50.344,0,0,1-7.168-4.38q-.406-.3-.806-.6a1.835,1.835,0,0,0-1-.532c-.724-.025-1.1.893-1.415,1.411a36.373,36.373,0,0,0-1.986,3.738Q23.574,16.523,23,18.15l-2.227-5.585L20.1,10.874a2.3,2.3,0,0,0-.812-1.246,1.742,1.742,0,0,0-1.6.134l-1.7.688L9.221,13.18l-1.7.688a9.76,9.76,0,0,0-1.558.66A1.182,1.182,0,0,0,5.4,15.895a14.558,14.558,0,0,0,.671,1.632l2.984,7.125c-.926.165-1.85.337-2.772.521q-.858.172-1.713.355a3.638,3.638,0,0,0-1.322.413,1.3,1.3,0,0,0-.464,1.409c.1.574.217,1.146.326,1.719l.645,3.4q.318,1.672.635,3.344a14.726,14.726,0,0,0-2.484.3,4.217,4.217,0,0,0-1.437.439,1.178,1.178,0,0,0-.41,1.363c.132.477.342.938.491,1.412.155.5.292,1,.413,1.5.248,1.032.433,2.077.593,3.126.319,2.09.536,4.2.94,6.272a4.375,4.375,0,0,0,.41,1.482,1.3,1.3,0,0,0,1.232.564,12.072,12.072,0,0,0,1.61-.309L7.418,51.6l7.426-1.583.552,2.448c.181.8.256,1.9,1.288,1.974a5.2,5.2,0,0,0,1.32-.2l1.442-.281,2.763-.538,11.292-2.2a2.2,2.2,0,0,0,1.257-.527,1.5,1.5,0,0,0,.385-1.008c.016-.49-.191-1.008-.209-1.507l1.176.907A19.111,19.111,0,0,0,37.64,50.26a1.364,1.364,0,0,0,1.68-.28q.725-.566,1.427-1.161a48.5,48.5,0,0,0,5.1-5c.79-.9,1.542-1.828,2.266-2.78q2.266.035,4.532.035.61,0,1.22,0a6.978,6.978,0,0,0,1.159-.035.885.885,0,0,0,.71-.556,2.432,2.432,0,0,0-.028-1.108c-.4-2.986-1.239-5.886-1.817-8.838a28.934,28.934,0,0,1-.542-4.206.561.561,0,0,0,.218-.078l1.5-.9a4.5,4.5,0,0,0,1.275-.873c.4-.5.178-1.064-.024-1.594M1.1,37.442c-.009-.029.006-.022,0,0M55.309,23.9c-.251.156-.507.3-.761.456l-1.4.836a.56.56,0,0,0-.947.39c.045,3.928,1.218,7.7,1.988,11.522.106.524.2,1.051.29,1.579.045.277.088.554.125.832.017.125.062.293.072.444-.144.008-.374-.01-.453-.009l-.854,0q-.915,0-1.83,0c-1.06,0-2.12-.016-3.18-.032a.5.5,0,0,0-.115-.1.569.569,0,0,0-.761.2,47.836,47.836,0,0,1-4.35,5.059q-1.179,1.194-2.439,2.3-.629.555-1.278,1.087-.314.257-.632.51c-.115.091-.369.368-.512.353-.08-.008-.2-.133-.267-.183-.145-.109-.287-.222-.43-.332l-.813-.628-1.722-1.329a.55.55,0,0,0-.717.14.534.534,0,0,0-.4.37,3.779,3.779,0,0,0,.067,1.854,1.525,1.525,0,0,1,.024.573c-.057.2-.322.244-.568.294-1.719.349-3.444.671-5.166,1.006L17.948,53.122l-.721.14c-.1.02-.369.12-.48.073a.067.067,0,0,0-.017-.03.935.935,0,0,1-.072-.3q-.082-.359-.162-.718L15.822,49.3a.5.5,0,0,0-.714-.354.551.551,0,0,0-.365-.041L8.611,50.212l-3.1.66a11.712,11.712,0,0,1-1.374.282c-.089.008-.215.03-.284-.035-.12-.112-.129-.438-.162-.59-.806-3.757-.9-7.654-2.02-11.345-.153-.5-.353-.987-.514-1.485-.022-.07-.025-.174-.054-.238a.11.11,0,0,1,.024-.011,7.163,7.163,0,0,0,.737-.2,13.387,13.387,0,0,1,3.33-.338.559.559,0,0,0,.347-.984L4.377,29.785q-.147-.775-.294-1.549l-.147-.774c-.024-.128-.157-.473-.081-.594.035-.055.211-.086.265-.1.246-.067.5-.112.747-.165q.767-.164,1.536-.319,1.774-.358,3.558-.667a.561.561,0,0,0,.389-.684c0-.015-.012-.028-.017-.043a.376.376,0,0,0-.028-.112L7.731,18.628l-.655-1.565-.3-.727a2.638,2.638,0,0,1-.311-.785c0-.008,0-.012,0-.018s0,0,.008,0a.6.6,0,0,1,.2-.122c.222-.108.458-.19.687-.282l1.59-.642L15.2,11.959c1.041-.421,2.079-.852,3.124-1.262.113-.044.3-.158.418-.095s.194.337.242.455l.607,1.522,2.81,7.045a.683.683,0,0,0,.266.33.576.576,0,0,0,.973-.2A35.948,35.948,0,0,1,26.758,12.6q.236-.411.482-.816.116-.19.234-.379a4.509,4.509,0,0,0,.27-.391c.018.011.036.022.051.033.142.108.282.218.423.326q.4.305.808.6,1.582,1.155,3.251,2.183,1.906,1.174,3.911,2.175h0a.59.59,0,0,0,.692.1q5.794-2.5,11.666-4.81L50,11.052l.337-.131c.052-.02.1-.041.156-.06a.31.31,0,0,1,.048-.012l0,.009c.037.119.09.236.135.353l1.149,3.021,2.277,5.985c.419,1.1.854,2.2,1.258,3.306.083.228.146.255-.057.381" transform="translate(0 -6.604)" fill="#00ee17"/>
  </g>
</svg>
