<svg xmlns="http://www.w3.org/2000/svg" xmlns:xlink="http://www.w3.org/1999/xlink" width="57.003" height="58.581" viewBox="0 0 57.003 58.581">
  <defs>
    <clipPath id="clip-path">
      <rect id="사각형_1645" data-name="사각형 1645" width="57.004" height="58.581" stroke="#000" stroke-width="0.5"/>
    </clipPath>
  </defs>
  <g id="그룹_640" data-name="그룹 640" clip-path="url(#clip-path)">
    <path id="패스_1092" data-name="패스 1092" d="M56.964,41.878a26.51,26.51,0,0,1-.345-2.9l-.011-.186c-.212-3.352-.432-6.821-.536-10.237-.033-1.01-.08-2.038-.125-3.031-.044-.955-.091-1.945-.121-2.917-.047-1.374-.066-2.527-.029-3.688a37.7,37.7,0,0,0-.255-4.784l-.054-.539a.386.386,0,0,0-.183-.326l-.229-.136a4.564,4.564,0,0,0-1.1-.524,8.924,8.924,0,0,1-.959-.347l-.179-.072c-1.755-.7-3.48-1.547-5.147-2.365-.842-.412-1.713-.84-2.58-1.243A33.951,33.951,0,0,0,41.067,6.91a.607.607,0,0,0-.527,0c-.265.152-.533.3-.8.451L39,7.778l-1.213.693c-.7.4-1.392.8-2.09,1.188-1.308.732-2.587,1.555-3.824,2.349-.481.31-.961.62-1.444.924-1.444.91-2.952,1.767-4.413,2.594-.682.387-1.363.774-2.043,1.167-.528.308-1.062.607-1.6.907-.694.389-1.411.792-2.108,1.206-1.667.991-3.416,2.052-5.672,3.445a.867.867,0,0,1-.871.061c-.744-.292-1.477-.634-2.19-.965-.646-.3-1.314-.611-1.987-.884-1.1-.446-2.269-.927-3.4-1.446l-.7-.324c-1.153-.526-2.343-1.072-3.486-1.672a5.471,5.471,0,0,0-.576-.249l-.125-.049.218-.143c.249-.163.488-.319.728-.473.555-.36,1.146-.693,1.718-1.014.429-.242.875-.492,1.3-.754.847-.516,1.694-1.069,2.51-1.6.505-.33,1.008-.66,1.515-.983,1.6-1.02,3.264-2,4.874-2.941q1.107-.649,2.209-1.3c.5-.3.988-.592,1.482-.889,1.124-.679,2.287-1.382,3.447-2.039.975-.552,1.953-1.129,2.9-1.688C25.316,2.215,26.5,1.514,27.688.857a1.018,1.018,0,0,0,.387-.32A.341.341,0,0,0,28.1.124a.348.348,0,0,0-.367-.113,1.192,1.192,0,0,0-.4.183l-.15.1c-.124.078-.25.159-.378.228-.953.505-1.888,1.069-2.792,1.616-.674.407-1.372.829-2.068,1.221-1.11.624-2.217,1.29-3.286,1.935-.869.522-1.767,1.063-2.659,1.578-.611.352-1.218.714-1.823,1.074-.858.51-1.745,1.037-2.631,1.533-1.074.6-2.121,1.275-3.136,1.93-.476.308-.955.617-1.436.918-.238.148-.473.3-.712.449-.953.6-1.94,1.229-2.959,1.763A20.658,20.658,0,0,0,.32,16.4.7.7,0,0,0,0,17c0,.164.007.33.007.494,0,.267,0,.543.02.814.022.395.053.79.083,1.184.047.58.093,1.18.115,1.769.028.749.064,1.5.1,2.244.039.823.08,1.672.105,2.51.027.753.108,1.513.185,2.247.086.8.174,1.623.19,2.436a.755.755,0,0,0,.414.684,24.149,24.149,0,0,0,2.842,1.464c.375.173.75.346,1.123.526.723.351,1.471.682,2.193,1,.493.218.985.435,1.474.66.95.439,1.878.959,2.778,1.461.585.326,1.189.665,1.795.977.806.417,1.617.851,2.4,1.27,1.03.551,2.1,1.119,3.156,1.654s2.143,1.089,3.212,1.634c1.535.785,3.12,1.6,4.691,2.377.527.264.769.477.723.971a.7.7,0,0,0,.026.217.852.852,0,0,1,.025.121c.069.744.128,1.5.185,2.232.08,1.009.161,2.052.271,3.077.063.581.11,1.175.157,1.748.027.329.053.656.083.985q.164,1.813.333,3.628c0,.056,0,.085.006.093a.36.36,0,0,1-.092-.033l-.706-.33c-.882-.411-1.793-.835-2.673-1.29q-.532-.276-1.061-.553c-1.938-1.01-3.941-2.055-6-2.907-1-.411-1.817-.776-2.577-1.146-.428-.211-.869-.413-1.3-.611-.727-.338-1.482-.685-2.2-1.075-.8-.435-1.645-.795-2.466-1.141-.519-.219-1.057-.446-1.572-.69C6.2,46.833,4.3,45.982,2.512,45.186a4.724,4.724,0,0,0-.869-.288c-.017,0-.037-.011-.059-.016-.113-.033-.356-.1-.433.137s.162.334.278.375l.05.018c.533.213,1.059.471,1.568.722.378.185.77.376,1.162.551.878.386,1.762.8,2.615,1.2.7.33,1.427.671,2.146.994,1.176.53,2.369,1.107,3.542,1.718,1.417.736,2.87,1.362,4.275,1.968,2.474,1.065,4.9,2.246,7.227,3.508.909.5,1.855.956,2.767,1.4.6.294,1.222.6,1.826.906l.044.023a1.17,1.17,0,0,0,.513.174.446.446,0,0,0,.257-.078c.284-.194.591-.36.889-.522.249-.135.508-.273.752-.43l.8-.511c2.1-1.343,4.274-2.731,6.476-4.012.922-.536,1.875-1.09,2.794-1.664.45-.281.9-.557,1.355-.834.313-.191.624-.381.937-.575a.942.942,0,0,0,.476-1.068c-.017-.161-.039-.322-.064-.483-.037-.265-.077-.537-.092-.8-.064-1.137-.168-2.289-.27-3.4-.1-1.078-.2-2.192-.262-3.29-.042-.711-.119-1.428-.194-2.122-.05-.475-.1-.949-.143-1.425-.055-.656-.125-1.321-.194-1.964-.108-.994-.216-2.023-.276-3.037q-.083-1.455-.163-2.908c-.1-1.755-.2-3.509-.3-5.264-.013-.256-.036-.51-.055-.765-.027-.326-.055-.663-.071-1a.455.455,0,0,1,.282-.49,28.893,28.893,0,0,0,3.26-2.037c1.2-.837,2.467-1.578,3.55-2.192.162-.091.32-.18.482-.27.363-.2.738-.413,1.1-.633l.461-.28c1.157-.7,2.354-1.428,3.588-2.038a1.55,1.55,0,0,1,.163-.072c.006.04.011.119.016.166l.022.43c.017.336.033.673.059,1.009.086,1.2.08,2.424.072,3.608,0,.471,0,.94,0,1.411.011,1.281.088,2.582.163,3.838l.047.782c.053.926.087,1.867.123,2.78.047,1.27.1,2.583.2,3.874.071.931.126,1.88.179,2.8.061,1.094.125,2.224.222,3.335l.013.158c.074.845.151,1.719.256,2.575.047.385.105.783.18,1.214.06.369.27.411.411.4s.342-.09.337-.461a3.326,3.326,0,0,0-.039-.449M54.043,13.844c-.223.107-.455.217-.673.342q-1.039.592-2.077,1.194-.737.427-1.48.852c-.364.21-.734.414-1.1.618-.814.454-1.654.921-2.455,1.435-.43.277-.856.562-1.284.846-.743.5-1.513,1.008-2.292,1.473-.166.1-.332.2-.5.293-.2.118-.4.234-.6.356a.191.191,0,0,1-.246,0,29.851,29.851,0,0,0-6.265-3.037,21.386,21.386,0,0,1-1.972-.875c-.336-.164-.673-.327-1.015-.482-1.122-.508-2.293-.939-3.424-1.356l-.525-.192c-.037-.013-.075-.029-.11-.044,1.61-.9,3.184-1.907,4.708-2.881.37-.237.742-.474,1.112-.709.829-.525,1.7-1.01,2.544-1.48.234-.129.468-.259.7-.39l.192-.108c1.088-.611,2.212-1.241,3.3-1.9a.569.569,0,0,1,.608-.045c2.179.92,4.421,1.968,6.665,3.113a47.152,47.152,0,0,0,5.965,2.591c.154.055.31.128.462.2l.027.012a.317.317,0,0,1,.05.028.514.514,0,0,1-.053.029l-.255.124M14.392,36.969c.02.1.013.112,0,.12s-.077-.038-.1-.056a.64.64,0,0,0-.072-.05c-.265-.154-.544-.283-.814-.408l-.24-.114c-.7-.331-1.381-.722-2.04-1.1-.536-.309-1.091-.628-1.653-.915-.687-.347-1.4-.665-2.089-.971-.516-.229-1.05-.467-1.566-.716s-1.027-.476-1.533-.7c-.835-.374-1.7-.761-2.518-1.2-.132-.07-.18-.135-.183-.248-.022-.763-.11-1.515-.2-2.241A19.621,19.621,0,0,1,1.218,26.4l0,0c-.037-.7-.056-1.349-.077-1.979-.023-.837-.048-1.628-.114-2.418C.9,20.493.8,19.008.731,17.586c0-.094-.009-.191,0-.238a2.23,2.23,0,0,1,.237.093c.5.219,1.005.478,1.488.731.407.212.833.433,1.26.628l.861.395c1.742.8,3.546,1.627,5.36,2.349.618.246,1.233.537,1.826.815.314.148.627.3.942.436.254.115.535.229.886.363.12.047.153.093.153.207a40.853,40.853,0,0,0,.376,5.131,20.713,20.713,0,0,1,.119,2.4c0,.238,0,.476.009.714.011.524.016,1.047.021,1.571.009,1.215.017,2.469.114,3.705a.822.822,0,0,0,.013.086M27.288,30c-2.849,1.6-5.57,3.337-8.342,5.121-.851.548-1.748,1.053-2.615,1.542q-.476.267-.948.538a.282.282,0,0,1-.121.047s-.022-.021-.029-.116q-.046-.76-.083-1.519l-.02-.1h-.016l-.026-1.394c-.022-1.168-.044-2.375-.1-3.562-.009-.207-.018-.416-.025-.623a16.5,16.5,0,0,0-.185-2.2l-.009-.049a.711.711,0,0,1-.011-.078l-.047-.668c-.086-1.2-.174-2.444-.227-3.668,0-.1.009-.131.081-.166a23.756,23.756,0,0,0,2.186-1.269c.271-.17.539-.34.813-.506,2.151-1.311,4.067-2.434,5.856-3.434.774-.433,1.544-.874,2.312-1.314l1.048-.6c.044-.025.088-.05.121-.067,0,.038.006.094.011.148.017.319.033.636.05.955.049.94.1,1.914.2,2.87.1,1.018.113,2.061.119,3.07,0,.576.009,1.171.031,1.757.058,1.523.137,3.024.239,4.808a.437.437,0,0,1-.259.473M15.809,37.787c1.8-.955,3.542-2.055,5.232-3.118,1.085-.685,2.209-1.393,3.334-2.055q1.293-.76,2.593-1.506l.734-.422a1.487,1.487,0,0,1,.441-.2.154.154,0,0,0,.028.009.522.522,0,0,1,.082.025c.53.244,1.078.471,1.607.689.779.321,1.583.654,2.342,1.047a24.641,24.641,0,0,0,2.3,1A23.1,23.1,0,0,1,36.883,34.3a33.877,33.877,0,0,0,4.1,1.829l.022.007L41,36.148c-.02.013-.042.026-.058.038a22.288,22.288,0,0,1-2.712,1.78C36.415,39,34.609,40.1,32.863,41.171q-1.184.726-2.371,1.446c-.511.308-1.056.57-1.583.825-.322.153-.652.314-.975.482-.083.045-.152.028-.278-.029-1.411-.66-2.572-1.23-3.656-1.793q-2.1-1.1-4.214-2.189l-2.8-1.455c-.217-.113-.43-.228-.642-.346-.168-.091-.337-.184-.505-.273l-.059-.032a.344.344,0,0,0,.034-.02m12.55,6.848a50.23,50.23,0,0,0,5.081-2.988l.924-.592c1.643-1.046,3.295-2,4.69-2.791a13.255,13.255,0,0,0,1.637-1.05,5.347,5.347,0,0,1,.831-.5c.11-.058.218-.114.326-.174a.233.233,0,0,1,.1-.037h0s.025.018.033.126c.069.875.168,1.762.262,2.619.116,1.045.237,2.124.3,3.192.049.791.113,1.593.174,2.369.069.867.142,1.763.195,2.645.006.146.026.289.044.438a5.216,5.216,0,0,1,.053.728l.009.037c.159.389.013.655-.52.954-.819.457-1.891,1.065-2.943,1.709l-.39.238c-2.753,1.683-5.6,3.424-8.328,5.254-.28.185-.575.362-.859.533l-.2.119a1.7,1.7,0,0,0-.174.1.646.646,0,0,1-.039-.206q-.037-.348-.075-.7c-.051-.454-.1-.922-.143-1.384-.069-.844-.166-1.7-.261-2.523-.1-.872-.2-1.775-.271-2.666-.1-1.343-.234-2.7-.375-4.087a8.4,8.4,0,0,0-.163-.918l-.042-.188c-.031-.143,0-.2.119-.262m13.492-9.071c-.009.006-.039.016-.1,0-.3-.085-.551-.161-.791-.254a30.675,30.675,0,0,1-2.922-1.295,27.58,27.58,0,0,0-3.763-1.6,11.771,11.771,0,0,1-1.417-.627c-.254-.125-.514-.254-.775-.37-.953-.423-1.938-.806-2.892-1.175l-.591-.229c-.157-.061-.223-.11-.232-.251q-.083-1.657-.179-3.31l-.015-.1H28.16c-.016-.46-.033-.918-.051-1.378-.036-.967-.072-1.967-.1-2.95-.033-1.161-.132-2.334-.229-3.471-.072-.853-.148-1.735-.194-2.605,0-.034,0-.075,0-.1a.452.452,0,0,1,.075.025q1,.408,2.011.809c.783.315,1.566.629,2.349.948a12.039,12.039,0,0,1,1.122.531,21.923,21.923,0,0,0,2.135.949l.336.135a38.935,38.935,0,0,1,3.662,1.763A17.825,17.825,0,0,1,40.948,22c.09.06.119.1.114.2a25.584,25.584,0,0,0,.115,3.339c.015.222.033.443.05.665.077,1.041.135,2.081.168,3.089l.017.45c.039,1.154.083,2.348.207,3.519.027.245.049.493.074.738.043.487.09.989.164,1.482.01.054,0,.078-.006.085" transform="translate(0 0)" stroke="#000" stroke-width="0.5"/>
  </g>
</svg>
