<svg xmlns="http://www.w3.org/2000/svg" xmlns:xlink="http://www.w3.org/1999/xlink" width="59.76" height="59.76" viewBox="0 0 59.76 59.76">
  <defs>
    <clipPath id="clip-path">
      <rect id="사각형_1288" data-name="사각형 1288" width="59.76" height="59.76"/>
    </clipPath>
  </defs>
  <g id="그룹_521" data-name="그룹 521" transform="translate(0.001)">
    <path id="패스_971" data-name="패스 971" d="M.143,48.33v.981l4.48.312V48.017Z" transform="translate(-0.1 -33.444)"/>
    <path id="패스_972" data-name="패스 972" d="M.143,68.034v.981l4.48.312V67.722Z" transform="translate(-0.1 -47.169)"/>
    <path id="패스_973" data-name="패스 973" d="M.143,87.737v.981l4.48.312V87.425Z" transform="translate(-0.1 -60.892)"/>
    <path id="패스_974" data-name="패스 974" d="M.143,107.442v.982l4.48.311V107.13Z" transform="translate(-0.1 -74.616)"/>
    <path id="패스_975" data-name="패스 975" d="M.143,146.849v.982l4.48.312v-1.606Z" transform="translate(-0.1 -102.063)"/>
    <path id="패스_976" data-name="패스 976" d="M.143,127.146v.982l4.48.311v-1.605Z" transform="translate(-0.1 -88.34)"/>
    <path id="패스_977" data-name="패스 977" d="M182,48.821v.8l4.479-.313v-.981L182,48.018Z" transform="translate(-126.765 -33.445)"/>
    <path id="패스_978" data-name="패스 978" d="M182,68.525v.8l4.479-.313v-.981L182,67.723Z" transform="translate(-126.765 -47.169)"/>
    <path id="패스_979" data-name="패스 979" d="M182,88.228v.8l4.479-.313v-.981L182,87.425Z" transform="translate(-126.765 -60.892)"/>
    <path id="패스_980" data-name="패스 980" d="M182,107.933v.8l4.479-.312v-.982L182,107.13Z" transform="translate(-126.765 -74.616)"/>
    <path id="패스_981" data-name="패스 981" d="M182,147.34v.8l4.479-.313v-.981L182,146.537Z" transform="translate(-126.765 -102.064)"/>
    <path id="패스_982" data-name="패스 982" d="M182,127.637v.8l4.479-.312v-.982L182,126.835Z" transform="translate(-126.765 -88.34)"/>
    <path id="패스_983" data-name="패스 983" d="M31.369,19.673h-.981l-.313,4.479h1.606Z" transform="translate(-20.948 -13.702)"/>
    <path id="패스_984" data-name="패스 984" d="M50.314,19.673h-.981l-.313,4.479h1.606Z" transform="translate(-34.143 -13.702)"/>
    <path id="패스_985" data-name="패스 985" d="M69.259,19.673h-.981l-.312,4.479h1.606Z" transform="translate(-47.339 -13.702)"/>
    <path id="패스_986" data-name="패스 986" d="M88.2,19.673h-.982l-.312,4.479h1.606Z" transform="translate(-60.534 -13.702)"/>
    <path id="패스_987" data-name="패스 987" d="M107.149,19.673h-.982l-.312,4.479h1.606Z" transform="translate(-73.729 -13.702)"/>
    <path id="패스_988" data-name="패스 988" d="M126.095,19.673h-.982l-.312,4.479h1.606Z" transform="translate(-86.925 -13.702)"/>
    <path id="패스_989" data-name="패스 989" d="M145.039,19.673h-.981l-.313,4.479h1.606Z" transform="translate(-100.12 -13.702)"/>
    <path id="패스_990" data-name="패스 990" d="M163.984,19.673H163l-.313,4.479H164.3Z" transform="translate(-113.315 -13.702)"/>
    <path id="패스_991" data-name="패스 991" d="M31.369,166.95h-.981l-.313-4.479h1.606Z" transform="translate(-20.948 -113.161)"/>
    <path id="패스_992" data-name="패스 992" d="M50.314,166.95h-.981l-.313-4.479h1.606Z" transform="translate(-34.143 -113.161)"/>
    <path id="패스_993" data-name="패스 993" d="M69.259,166.95h-.981l-.312-4.479h1.606Z" transform="translate(-47.339 -113.161)"/>
    <path id="패스_994" data-name="패스 994" d="M88.2,166.95h-.982l-.312-4.479h1.606Z" transform="translate(-60.534 -113.161)"/>
    <path id="패스_995" data-name="패스 995" d="M107.149,166.95h-.982l-.312-4.479h1.606Z" transform="translate(-73.729 -113.161)"/>
    <path id="패스_996" data-name="패스 996" d="M126.095,166.95h-.982l-.312-4.479h1.606Z" transform="translate(-86.925 -113.161)"/>
    <path id="패스_997" data-name="패스 997" d="M145.039,166.95h-.981l-.313-4.479h1.606Z" transform="translate(-100.12 -113.161)"/>
    <path id="패스_998" data-name="패스 998" d="M163.984,166.95H163l-.313-4.479H164.3Z" transform="translate(-113.315 -113.161)"/>
    <g id="그룹_439" data-name="그룹 439" transform="translate(-0.001)">
      <g id="그룹_438" data-name="그룹 438" clip-path="url(#clip-path)">
        <path id="패스_999" data-name="패스 999" d="M66.624,39.143H20.445a.911.911,0,0,0-.911.91v34.18a.911.911,0,0,0,.911.911H66.624a.911.911,0,0,0,.91-.911V40.053a.91.91,0,0,0-.91-.91M32.864,61.226a6.006,6.006,0,0,0,1.713-.193V58.384l-2.258.005V56.154l4.8.006v6.706a15.049,15.049,0,0,1-4.313.669A6.988,6.988,0,0,1,27.69,61.8a6.084,6.084,0,0,1-1.813-4.575c.019-4.207,3.08-6.611,7.231-6.611a11.682,11.682,0,0,1,4.143.864l-.819,2.2a8.944,8.944,0,0,0-3.362-.7c-2.385,0-4.4,1.352-4.4,4.095a3.967,3.967,0,0,0,4.2,4.151m14.621-3.587a5.871,5.871,0,0,1-4.114,1.334,7.555,7.555,0,0,1-.977-.034v4.5H39.558V50.952a23.438,23.438,0,0,1,3.869-.263A6.077,6.077,0,0,1,47.3,51.7a3.7,3.7,0,0,1,1.352,2.931,4.046,4.046,0,0,1-1.164,3.005m13.125.205c0,3.907-1.938,5.829-5.244,5.829-3.193,0-5.1-1.828-5.1-5.867V50.745h2.874v7.287c0,2.179.836,3.093,2.3,3.093,1.5,0,2.32-.858,2.32-3.093V50.745h2.855Z" transform="translate(-13.605 -27.263)"/>
        <path id="패스_1000" data-name="패스 1000" d="M96.032,84.222a4.794,4.794,0,0,0-1.179.113v3.639a4.581,4.581,0,0,0,.955.052c1.521,0,2.465-.624,2.465-1.919,0-1.165-.813-1.884-2.241-1.884" transform="translate(-66.065 -58.661)"/>
      </g>
    </g>
  </g>
</svg>
