<svg xmlns="http://www.w3.org/2000/svg" xmlns:xlink="http://www.w3.org/1999/xlink" width="185.683" height="32.522" viewBox="0 0 185.683 32.522">
  <defs>
    <clipPath id="clip-path">
      <rect id="사각형_1221" data-name="사각형 1221" width="185.683" height="32.522"/>
    </clipPath>
  </defs>
  <g id="그룹_520" data-name="그룹 520" transform="translate(0)">
    <g id="그룹_387" data-name="그룹 387" transform="translate(0)" clip-path="url(#clip-path)">
      <path id="패스_922" data-name="패스 922" d="M573.936,35.577c.4-.033.8-.074,1.2-.1.983-.054,1.967-.084,2.949-.153s1.938-.168,2.906-.264c.244-.024.484-.087.725-.131.319-.058.636-.126.957-.17.653-.091,1.307-.169,1.96-.253.022,0,.045,0,.067,0,.944-.028,1.028.142,1.264.837.261.769.471,1.556.71,2.333.177.575.37,1.145.546,1.72.082.266.26.339.522.375a21.139,21.139,0,0,0,3.518.089c.548-.016,1.1,0,1.645-.005a1.718,1.718,0,0,1,1.1.293c.062-.314.13-.568.16-.826a3.473,3.473,0,0,1,.351-1.143c.255-.52.475-1.057.718-1.583a7.017,7.017,0,0,1,.437-.863,1.049,1.049,0,0,1,1.213-.49c.359.084.719.173,1.084.223.741.1,1.487.17,2.229.267a10.345,10.345,0,0,1,1.12.2,9.46,9.46,0,0,0,1.692.22c1.037.064,2.077.132,3.105.278a9.051,9.051,0,0,1,2.387.788c-.066.51-.1,1.019-.2,1.518-.144.743-.375,1.472-.485,2.219-.169,1.145-.283,2.3-.391,3.453a18.734,18.734,0,0,1-.348,2.547,16.671,16.671,0,0,0-.292,1.914,9.073,9.073,0,0,1-.515,2.173A22.875,22.875,0,0,0,605.1,55.5a11.747,11.747,0,0,1-.9,2.933c-.19.427-.338.872-.5,1.309a2.807,2.807,0,0,1-.522.965.572.572,0,0,1-.831.144A2.6,2.6,0,0,1,601.2,59.8a26.3,26.3,0,0,0-2.164-2.89,2.664,2.664,0,0,0-.21-.216,1.053,1.053,0,0,0-.836-.331,10.58,10.58,0,0,0-2.317.346,11.837,11.837,0,0,1-2.756.345c-1.879-.02-3.759-.058-5.638-.095-.368-.007-.737-.03-1.1-.062a2.7,2.7,0,0,0-1.59.438,7.1,7.1,0,0,0-.689.475c-.377.279-.74.576-1.122.848a6.266,6.266,0,0,0-1.371,1.457c-.264.359-.535.715-.824,1.054a3.153,3.153,0,0,1-.506.437c-.178.136-.259.134-.39-.054a3.593,3.593,0,0,1-.35-.643,32.954,32.954,0,0,1-1.8-5.489c-.34-1.465-.706-2.925-1.032-4.394-.271-1.218-.5-2.446-.751-3.668-.284-1.364-.6-2.721-.861-4.089-.16-.83-.269-1.671-.361-2.512a38.156,38.156,0,0,0-.657-4.427,1.305,1.305,0,0,1,.069-.754M599.109,47.85a.841.841,0,0,0-.583-.316,15.086,15.086,0,0,0-1.514-.256,4.641,4.641,0,0,0-1.127.054c-.291.045-.35.174-.363.507a1.142,1.142,0,0,0,.8.106,2.171,2.171,0,0,1,.891-.1c.477.033.953.08,1.43.122a.487.487,0,0,0,.462-.12M587.57,50.875c.225,0,.249-.009.368-.215a2.809,2.809,0,0,1,.186-.317,1.247,1.247,0,0,0,.234-1.183c-.068-.231-.229-.25-.4-.289a.287.287,0,0,0-.377.191c-.108.35-.209.7-.3,1.059-.027.112.021.242-.005.355-.068.3-.008.393.288.4m-1.879-3.583.047.11a5.392,5.392,0,0,0,.618-.058c.239-.049.47-.135.705-.2a1.218,1.218,0,0,1,.994-.024.653.653,0,0,0,.778-.12.775.775,0,0,0-.443-.438,1.3,1.3,0,0,0-1.039,0c-.506.2-1.015.4-1.519.6-.056.023-.095.089-.141.134m9.209,3.253c.395.294.637.25.8-.185a7.944,7.944,0,0,0,.247-.964.263.263,0,0,0-.024-.187.517.517,0,0,0-.865.075c-.1.222-.172.453-.268.709.379.106.053.364.113.552m-.168-3.887a.959.959,0,0,0,.922.325.224.224,0,0,0,.165-.092c.123-.269.347-.278.592-.254.211.021.422.038.632.058a2.355,2.355,0,0,0,.888-.022,1.5,1.5,0,0,0-.417-.162c-.458-.1-.916-.2-1.376-.275a2.753,2.753,0,0,0-.665-.039.786.786,0,0,0-.741.461m.118-.992c.3.267.685.358.9.167a.466.466,0,0,1,.455-.087c.309.048.618.1.929.125a1.057,1.057,0,0,0,.625-.1.6.6,0,0,0-.473-.235c-.285-.051-.57-.1-.856-.152s-.592-.107-.891-.133a.662.662,0,0,0-.686.411m-5.507.559a.657.657,0,0,0-.081-.188.937.937,0,0,0-1.021-.328c-.695.236-1.379.5-2.064.765-.076.029-.129.122-.248.241a1.538,1.538,0,0,0,.25-.017c.319-.1.637-.2.955-.3s.638-.2.958-.293a.359.359,0,0,1,.4.064c.256.26.54.188.849.056m.087-.9a4.94,4.94,0,0,0-3.419-.266c.007.216.16.194.307.194.49,0,.981-.006,1.471.007a2.827,2.827,0,0,1,.985.155.624.624,0,0,0,.656-.089m2.147,2.705c.445.083.64-.045.72-.46.072-.373.027-.432-.348-.447a.558.558,0,0,0-.115.017.99.99,0,0,0-.258.891" transform="translate(-485.318 -29.18)"/>
      <path id="패스_923" data-name="패스 923" d="M14.431,49.78c-.048.232-.112.467-.142.707a3.751,3.751,0,0,1-.4,1.268c-.254.5-.457,1.016-.686,1.524a7.533,7.533,0,0,1-.345.723,1.11,1.11,0,0,1-1.381.6q-.475-.1-.951-.2a8.683,8.683,0,0,0-1.395-.173,9.583,9.583,0,0,1-2.019-.305,8.49,8.49,0,0,0-1.723-.229c-1.037-.054-2.076-.138-3.1-.278a9.239,9.239,0,0,1-2.1-.674C.02,52.674-.009,52.57,0,52.4a11.912,11.912,0,0,1,.421-2.3,21.236,21.236,0,0,0,.493-3.135c.114-1,.172-2,.275-3,.032-.308.138-.608.192-.915.109-.626.237-1.251.3-1.882A9.143,9.143,0,0,1,2.212,38.8a22.5,22.5,0,0,0,1.164-4.422,11.64,11.64,0,0,1,.857-2.843c.214-.49.392-1,.584-1.494a2.544,2.544,0,0,1,.523-.925.537.537,0,0,1,.724-.131,2.345,2.345,0,0,1,1.081.922,26.805,26.805,0,0,0,2.1,2.852c.052.072.116.136.173.205a1.336,1.336,0,0,0,1.191.528,14.191,14.191,0,0,0,2.38-.382,11.208,11.208,0,0,1,2.492-.3c.939.009,1.879.038,2.818.053.571.009,1.142,0,1.712.013.76.018,1.521.034,2.28.083a2.4,2.4,0,0,0,1.559-.417c.823-.573,1.634-1.172,2.4-1.82a6.955,6.955,0,0,0,.973-1.189,5.834,5.834,0,0,1,1.041-1.174c.316-.246.415-.235.623.114a3.613,3.613,0,0,1,.2.422,34.847,34.847,0,0,1,1.982,6.2c.387,1.718.8,3.429,1.176,5.15.367,1.688.686,3.386,1.047,5.075.224,1.047.451,2.092.574,3.156.1.863.169,1.731.286,2.592.1.75.259,1.492.381,2.239A5.342,5.342,0,0,1,34.59,54a.266.266,0,0,1-.285.3c-.346.021-.691.057-1.037.069a33.343,33.343,0,0,0-3.446.244c-.21.029-.424.032-.636.042a22.92,22.92,0,0,0-3.091.393,20.766,20.766,0,0,1-2.325.3c-1.015.07-1.03-.194-1.258-.836-.253-.713-.453-1.446-.677-2.169-.2-.638-.4-1.275-.594-1.915a.419.419,0,0,0-.412-.327,18.944,18.944,0,0,0-2.709-.125c-.957.07-1.924.036-2.886.014a3.62,3.62,0,0,1-.8-.213M9.466,41.56c.356.26.533.224.73-.132.021-.039.032-.1.063-.114.263-.1.259-.359.344-.565a1.071,1.071,0,0,0-.113-.958.409.409,0,0,0-.416-.218.542.542,0,0,0-.482.623c0,.033,0,.067.009.1a2.554,2.554,0,0,1-.135,1.264m3.554,3.171.029-.088a1.208,1.208,0,0,0-.335-.177,1.831,1.831,0,0,0-.692-.038c-.652.151-1.295.342-1.937.531a1.96,1.96,0,0,0-.482.23c-.211.134-.227.312-.033.457a1.352,1.352,0,0,0,.393.15c.024.008.06-.02.094-.032l-.069-.3.309-.084c.559-.155,1.116-.317,1.678-.463.236-.061.48-.091.72-.134.108-.019.217-.035.325-.053m7.864-3.319c.277.176.492.029.719-.058a.521.521,0,0,0,.408-.536,2.637,2.637,0,0,1,.07-.358c.015-.126.113-.259-.005-.379a.668.668,0,0,0-.523-.256c-.186.013-.394.009-.483.223a2.169,2.169,0,0,0-.186,1.365m-9.842,6.131a.5.5,0,0,0,.627.086c.262-.125.525-.247.782-.381A1.786,1.786,0,0,1,13.475,47a.463.463,0,0,0,.452-.15,1.674,1.674,0,0,0-.3-.261,1.247,1.247,0,0,0-1.07-.062,5.562,5.562,0,0,0-1.514,1.017m.124-.675a5.211,5.211,0,0,1,.54-.593c.311-.25.653-.461.981-.69a.724.724,0,0,1,.535-.133.528.528,0,0,0,.5-.165.984.984,0,0,0-1.313-.138,12.3,12.3,0,0,0-1.1.965,1.513,1.513,0,0,0-.27.451.209.209,0,0,0,.126.3m9.847-.413a.451.451,0,0,0-.521-.049.509.509,0,0,1-.282.062c-.332-.024-.663-.068-.994-.1a.788.788,0,0,0-.756.26.5.5,0,0,0,.456.243c.533-.025,1.067-.056,1.6-.1a.674.674,0,0,0,.5-.314M15.3,44.271c.433.1.461.083.625-.264a.532.532,0,0,1,.133-.182.639.639,0,0,0,.182-.607c-.012-.148-.226-.257-.424-.253a.265.265,0,0,0-.294.249c-.044.251-.117.5-.172.746-.023.1-.033.209-.049.311m5.518,1.646a.378.378,0,0,0-.249-.535c-.29-.111-.582-.22-.88-.3A2.474,2.474,0,0,0,19.1,45a.35.35,0,0,0-.376.28.85.85,0,0,0,.927.2.754.754,0,0,1,.942.438ZM18.349,44.21a1.1,1.1,0,0,0,.283.1c.794.023,1.589.037,2.393.053-.033-.182-.166-.16-.285-.173-.574-.063-1.148-.124-1.721-.2a.785.785,0,0,0-.67.214" transform="translate(0 -23.841)"/>
      <path id="패스_924" data-name="패스 924" d="M827.246,59.143c-.151-.72-.256-1.422-.432-2.119-.224.046-.3.175-.271.324.089.511-.232.787-.583,1.04a5.22,5.22,0,0,1-.735.465c-.883.433-1.766.867-2.665,1.264a5.779,5.779,0,0,1-3.376.446,5.214,5.214,0,0,1-.9-.248,8.843,8.843,0,0,1-1.831-.974,2.874,2.874,0,0,1-.772-.783,7.713,7.713,0,0,1-1.2-3.129,3.823,3.823,0,0,1,.022-1.065c.087-.752.221-1.5.3-2.251.049-.442.029-.891.052-1.336a2.134,2.134,0,0,1,.082-.592c.173-.493.356-.985.573-1.46a2.371,2.371,0,0,1,.828-.952q.813-.561,1.659-1.072a4.722,4.722,0,0,1,1.823-.533c.752-.107,1.5-.228,2.259-.3a5.308,5.308,0,0,1,1.137.022c.833.1,1.663.217,2.491.344.318.049.629.146.951.223,0-.013.026-.045.021-.073-.089-.481-.149-.971-.278-1.441a2.468,2.468,0,0,0-1.843-1.89c-.552-.139-1.112-.25-1.673-.348a6.081,6.081,0,0,0-1.97.045c-1.116.17-2.238.3-3.352.479a7.535,7.535,0,0,1-1.826.207l-.249-.023a1.64,1.64,0,0,1-.023-.266c.033-.433.075-.866.108-1.3.018-.233.03-.467.031-.7,0-.993,0-1.985,0-2.978,0-.8.164-1,.952-1.156a9.991,9.991,0,0,1,1.1-.139,9.179,9.179,0,0,0,1.927-.432,9.033,9.033,0,0,1,3.607-.4c1.023.1,2.052.149,3.078.227a11.006,11.006,0,0,1,2.559.5,24.138,24.138,0,0,0,2.368.615,5.132,5.132,0,0,1,2.671,1.566,5.917,5.917,0,0,1,1.368,2.19c.3.862.673,1.7,1.037,2.538a7.122,7.122,0,0,1,.628,2.817c0,.634.1,1.267.11,1.9a20.2,20.2,0,0,1-.066,2.841c-.034.276-.033.556-.054.834-.068.9-.141,1.8-.207,2.7-.04.556-.059,1.113-.107,1.668-.064.732-.151,1.461-.223,2.192a.512.512,0,0,1-.279.392,1.5,1.5,0,0,1-1.165.18,9.614,9.614,0,0,0-2.664-.207c-1.139.063-2.281.069-3.421.105-.4.013-.8.046-1.206.064a3.64,3.64,0,0,1-.364-.019M824.9,49.5c-.363.214-.484,0-.717.283a3.923,3.923,0,0,1-.5.539,1.119,1.119,0,0,0-.41,1.1c.032.209.078.416.111.625a3.283,3.283,0,0,0,.428,1.118.64.64,0,0,0,.793.335,4.547,4.547,0,0,0,.577-.174,2.017,2.017,0,0,0,1.287-1.584,6.52,6.52,0,0,0,.067-.8,1.062,1.062,0,0,0-.372-.893.444.444,0,0,0-.291-.127.308.308,0,0,1-.3-.17c-.18-.241-.476.014-.679-.255" transform="translate(-688.809 -30.442)"/>
      <path id="패스_925" data-name="패스 925" d="M254.906,51.734a3.13,3.13,0,0,0,.1.587,9.18,9.18,0,0,0,1.2,2.2,2.134,2.134,0,0,0,.823.673c.395.182.8.349,1.207.5a1.585,1.585,0,0,0,.528.063,17.5,17.5,0,0,0,2.646-.118c.4-.06.8-.082,1.2-.141a6.9,6.9,0,0,0,2.055-.792,4.609,4.609,0,0,1,.548-.252c.335-.116.524-.019.592.327a7.391,7.391,0,0,1,.141,1.09c.023.523.029,1.049,0,1.572a9.227,9.227,0,0,0,.328,2.61c.081.345.119.7.169,1.053a.456.456,0,0,1-.276.491,5.62,5.62,0,0,1-.665.316c-.924.336-1.857.648-2.778.991a8.214,8.214,0,0,1-3.473.377c-.167-.011-.335-.03-.5-.026a11.273,11.273,0,0,1-2.167-.207c-.948-.159-1.9-.313-2.845-.467a6.711,6.711,0,0,1-1.852-.567,14.947,14.947,0,0,1-2.807-1.7,9.259,9.259,0,0,1-2.934-3.84,23.237,23.237,0,0,1-1.325-4.791c-.038-.22-.085-.438-.107-.659a4.15,4.15,0,0,1,.2-1.874c.334-.909.592-1.846.9-2.767.163-.5.337-.993.537-1.476a4.491,4.491,0,0,1,.484-.913,11.11,11.11,0,0,1,2.661-2.716,1.89,1.89,0,0,0,.216-.159,5.714,5.714,0,0,1,2.351-1.165c.642-.193,1.277-.407,1.923-.587a10.4,10.4,0,0,1,2.283-.349,13.192,13.192,0,0,1,5.652,1.074,3.837,3.837,0,0,1,2.1,1.821c.354.684.726,1.358,1.065,2.048.156.319.247.668.377,1,.268.685.533,1.372.815,2.051a6.07,6.07,0,0,1,.364,2.89.84.84,0,0,1-.644.806,13.776,13.776,0,0,1-1.434.335q-1.44.229-2.89.4c-.521.061-1.049.069-1.574.1-.726.039-1.452.079-2.178.109-.86.035-1.721.06-2.581.088-.12,0-.241,0-.416,0m3.849-3.9c-.045-.375-.093-.7-.122-1.032a4.625,4.625,0,0,0-.674-2.181,1.532,1.532,0,0,0-.4-.438,1.169,1.169,0,0,0-1.5.126c-.124.112-.248.226-.368.342a2.448,2.448,0,0,0-.688,1.168,6.16,6.16,0,0,0-.179.849,2.889,2.889,0,0,0,.018,1.349c.127-.239.332-.236.535-.232l3.087.05c.076,0,.153,0,.289,0" transform="translate(-206.933 -32.986)"/>
      <path id="패스_926" data-name="패스 926" d="M424.605,55.252c-.063.766-.128,1.531-.186,2.3-.033.433-.047.868-.083,1.3a6.453,6.453,0,0,1-.113.76,3.678,3.678,0,0,1-.8,1.632c-.493.59-.971,1.2-1.417,1.823a5.459,5.459,0,0,1-2.315,1.765,14.473,14.473,0,0,1-2.5.75,8.724,8.724,0,0,1-1.962.227c-.848.016-1.7-.039-2.548-.076a2.921,2.921,0,0,1-.593-.1c-.714-.183-1.432-.354-2.136-.568a13.677,13.677,0,0,1-3.22-1.307c-.541-.33-1.133-.579-1.7-.869a3.557,3.557,0,0,1-.975-.757c-.145-.155-.29-.311-.445-.455a6.346,6.346,0,0,1-1.755-3.359,11.8,11.8,0,0,1-.162-1.326c-.015-.133-.02-.267-.045-.4a7.091,7.091,0,0,1,.047-2.789c.117-.567.2-1.141.287-1.714A8.847,8.847,0,0,1,402.7,49.9c.327-.745.674-1.483.962-2.243a4.112,4.112,0,0,1,1.838-2.094,19.678,19.678,0,0,1,3.186-1.484,9.368,9.368,0,0,1,2.878-.6c.669-.035,1.338-.089,2.007-.124a.686.686,0,0,1,.542.1c.041.035.129.021.2.022a19.965,19.965,0,0,1,2.757.349,7.731,7.731,0,0,1,2.388,1.023c.276.146.552.3.816.463a6.019,6.019,0,0,1,2.334,2.388c.374.76.723,1.532,1.078,2.3a11.038,11.038,0,0,1,.58,2.124,15.014,15.014,0,0,1,.347,3.121m-8.709-.321h-.049c0-.68.007-1.36,0-2.04-.006-.445-.036-.89-.05-1.336a7.9,7.9,0,0,0-.722-2.9.4.4,0,0,0-.168-.187,9.49,9.49,0,0,0-1.058-.506,3.077,3.077,0,0,0-.788-.123.367.367,0,0,0-.226.111,1.577,1.577,0,0,0-.435.778c-.136.459-.265.92-.4,1.379a2.555,2.555,0,0,0-.071,1.061c.095.741.2,1.48.3,2.22a8.447,8.447,0,0,1,.044,1.935,8.7,8.7,0,0,0-.023,2.236,5.53,5.53,0,0,1,.067.6,7.775,7.775,0,0,0,.363,1.9,4.177,4.177,0,0,0,.41.874,1.425,1.425,0,0,0,.715.583.967.967,0,0,0,1.346-.649c.122-.509.3-1,.419-1.514a10.04,10.04,0,0,0,.33-2.347c0-.691,0-1.383,0-2.074" transform="translate(-339.589 -36.664)"/>
      <path id="패스_927" data-name="패스 927" d="M1109.1,13.054a7,7,0,0,0-2.637.113,7.421,7.421,0,0,1-.794.158,49.61,49.61,0,0,1-.385-6.7l2.433-.612a25.59,25.59,0,0,1,0-5.989c.077-.007.162-.023.247-.023q3.24,0,6.48.009c.3,0,.6.053.9.053.48,0,.96-.027,1.44-.04.176,0,.353,0,.539,0a31.634,31.634,0,0,1-.321,6.3,2.125,2.125,0,0,0,.253-.032,9.449,9.449,0,0,1,2.562-.253c.322,0,.418.073.5.381a5.217,5.217,0,0,1,.074,1.959,9.909,9.909,0,0,0-.075,1.266,13.59,13.59,0,0,1-.4,3.311c-.01.041-.027.08-.042.126-.421-.182-.82-.38-1.237-.527a3.527,3.527,0,0,0-1.357-.076c-.032.69-.077,1.356-.092,2.023-.016.758-.025,1.517,0,2.274s.092,1.535.14,2.3c.012.189.03.378.03.567,0,1.071,0,2.142,0,3.212a6.163,6.163,0,0,0,.11,1.259,6.963,6.963,0,0,1,.094,1.431,5.471,5.471,0,0,0,.158,1.524,1.247,1.247,0,0,1-.169,1.053c-.114,0-.247.005-.379,0a9.833,9.833,0,0,0-2.4.209,5.46,5.46,0,0,1-1.836.008,9.844,9.844,0,0,0-1.337-.072,5.671,5.671,0,0,1-1.651-.252,4.391,4.391,0,0,1-.828-.428.272.272,0,0,1-.111-.16,5.534,5.534,0,0,1-.235-1.105c-.03-1.2-.028-2.409,0-3.614.013-.656.109-1.31.142-1.967.051-.979.1-1.96.115-2.94.019-1.1,0-2.209.008-3.313,0-.367.042-.733.062-1.1.005-.1,0-.2,0-.331" transform="translate(-934.772)"/>
      <path id="패스_928" data-name="패스 928" d="M987.159,44.123a2.461,2.461,0,0,1,.784-1.51,6.483,6.483,0,0,1,2.485-1.537c1.012-.321,2-.7,3-1.058a1.255,1.255,0,0,1,.193-.057.31.31,0,0,1,.409.282,1.862,1.862,0,0,1,0,.531c-.085.652-.18,1.3-.276,1.953a28.073,28.073,0,0,0-.411,4.725,12.344,12.344,0,0,1-.192,1.692c-.025.21-.041.421-.064.632-.008.073-.026.145-.045.252-.139-.036-.255-.064-.37-.1-.538-.147-1.071-.321-1.616-.436a10.539,10.539,0,0,0-1.33-.161,2.466,2.466,0,0,0-1.21.223c-.438.2-.869.413-1.285.651a.892.892,0,0,0-.342.392,4.349,4.349,0,0,0-.381,1.685c-.051,2.564-.077,5.129-.147,7.693-.023.833-.15,1.663-.229,2.495-.011.111-.02.222-.03.333-.03.317-.127.431-.435.433a14.177,14.177,0,0,1-3.7-.259c-.908-.235-1.832-.406-2.746-.619a9.093,9.093,0,0,1-1.922-.688,1.6,1.6,0,0,1-.949-1.141,2.456,2.456,0,0,1-.047-.4c-.06-1.5.015-2.988.081-4.482.088-1.973.07-3.947-.031-5.921a34.909,34.909,0,0,1,0-3.746c.027-.467.029-.937.016-1.405a10.016,10.016,0,0,1,.254-2.389,4.39,4.39,0,0,1,.3-1.092.394.394,0,0,1,.382-.255c.837-.028,1.674-.058,2.51-.109a10.424,10.424,0,0,0,1.1-.147,23.46,23.46,0,0,1,2.365-.259c.826-.055,1.648-.143,2.478-.133.285,0,.472.064.549.352.108.408.247.81.328,1.223.119.612.192,1.233.3,1.848a4.44,4.44,0,0,0,.156.524l.07-.024" transform="translate(-825.683 -33.788)"/>
    </g>
  </g>
</svg>
