<svg xmlns="http://www.w3.org/2000/svg" xmlns:xlink="http://www.w3.org/1999/xlink" width="322.702" height="38.715" viewBox="0 0 322.702 38.715">
  <defs>
    <clipPath id="clip-path">
      <rect id="사각형_1539" data-name="사각형 1539" width="322.702" height="38.715" fill="none"/>
    </clipPath>
  </defs>
  <g id="그룹_538" data-name="그룹 538" transform="translate(0 0)">
    <g id="그룹_537" data-name="그룹 537" transform="translate(0 0)" clip-path="url(#clip-path)">
      <path id="패스_1043" data-name="패스 1043" d="M7.409,15.865C3.4,18.014-.551,21.716.063,26.7c.289,2.351,1.723,3.911,3.365,5.481,1.467,1.4,2.7,2.933,2.041,5.059A4.447,4.447,0,0,1,.986,40.487c-1.138-.106-1.131,1.672,0,1.778,3.911.363,7.3-3.923,6.281-7.663-.592-2.175-2.54-3.482-3.982-5.063A6,6,0,0,1,2.4,22.91c1.127-2.544,3.531-4.237,5.907-5.51,1.008-.54.112-2.075-.9-1.535" transform="translate(0 -5.875)" fill="#070203"/>
      <path id="패스_1044" data-name="패스 1044" d="M25.192,13.99l1.877-.64a.942.942,0,0,0,.531-.408.908.908,0,0,0,.09-.685.9.9,0,0,0-.408-.531.888.888,0,0,0-.685-.09l-1.877.64a.945.945,0,0,0-.531.408.907.907,0,0,0-.089.685.9.9,0,0,0,.408.531.888.888,0,0,0,.685.09" transform="translate(-8.976 -4.327)" fill="#070203"/>
      <path id="패스_1045" data-name="패스 1045" d="M30.933,30.874a39.227,39.227,0,0,1,1.346,12.9c-.07,1.142,1.707,1.138,1.777,0A40.77,40.77,0,0,0,32.647,30.4a.889.889,0,0,0-1.714.473" transform="translate(-11.524 -11.105)" fill="#070203"/>
      <path id="패스_1046" data-name="패스 1046" d="M40.994,35.723a68.034,68.034,0,0,0,15.285-1.286c1.121-.223.646-1.936-.473-1.714a65.882,65.882,0,0,1-14.812,1.222c-1.144-.034-1.143,1.744,0,1.778" transform="translate(-14.97 -12.197)" fill="#070203"/>
      <path id="패스_1047" data-name="패스 1047" d="M49.311,17.784l4.227,25.108c.19,1.126,1.9.648,1.714-.473L51.025,17.311c-.189-1.126-1.9-.648-1.714.473" transform="translate(-18.387 -6.217)" fill="#070203"/>
      <path id="패스_1048" data-name="패스 1048" d="M79.6,34.591c3.089.379,7.056.344,8.361-3.134,1.1-2.931-1.706-5.318-4.515-4.844-3.136.53-4.442,4.109-4.159,6.921a20.64,20.64,0,0,0,1.384,5.18,11.286,11.286,0,0,0,2.239,3.913c2.879,3,7.016,1.636,10.294.174,1.042-.465.139-2-.9-1.534-2.181.973-5.076,2.21-7.332.779-1.907-1.211-2.651-3.8-3.288-5.83-.707-2.254-1.258-5.185.615-7.061a2.663,2.663,0,0,1,2.544-.761,1.868,1.868,0,0,1,1.588,1.8,3.116,3.116,0,0,1-2.369,2.595,11.134,11.134,0,0,1-4.464.025c-1.132-.139-1.122,1.64,0,1.778" transform="translate(-29.374 -9.903)" fill="#070203"/>
      <path id="패스_1049" data-name="패스 1049" d="M154.7,25.83a10.2,10.2,0,0,0-9.491,6.029A9.585,9.585,0,0,0,147.6,42.668a9.844,9.844,0,0,0,6.021,2.7c1.141.088,1.135-1.689,0-1.778a8.356,8.356,0,0,1-7.433-8.531,8.356,8.356,0,0,1,8.509-7.457c1.144.05,1.141-1.728,0-1.778" transform="translate(-53.873 -9.631)" fill="#070203"/>
      <path id="패스_1050" data-name="패스 1050" d="M179.471,29.77c-2.677-.574-4.523,1.721-5.5,3.918-1.183,2.662-2.013,5.879.293,8.186,2.245,2.248,5.558,2.24,8.437,1.452a10.7,10.7,0,0,0,4.233-1.9,4.819,4.819,0,0,0,1.578-3.47c.148-3.388-2.619-5.775-5.45-7.053-1.034-.467-1.939,1.064-.9,1.535,1.908.862,3.933,2.164,4.459,4.332a3.572,3.572,0,0,1-.379,2.772,5.127,5.127,0,0,1-2.846,1.709c-2.226.742-4.864,1.341-7.007.043a3.782,3.782,0,0,1-1.77-2.191,6.617,6.617,0,0,1,.574-3.719c.523-1.5,1.778-4.338,3.8-3.9,1.115.24,1.593-1.474.473-1.714" transform="translate(-64.452 -11.07)" fill="#070203"/>
      <path id="패스_1051" data-name="패스 1051" d="M210.085,5.747q-.138,8.4.064,16.795c.088,3.582-.166,8.9,3.708,10.721,1.029.485,1.932-1.047.9-1.535-1.588-.749-2.2-2.351-2.5-3.984A39.6,39.6,0,0,1,211.9,21.3q-.166-7.774-.035-15.551a.889.889,0,0,0-1.778,0" transform="translate(-78.336 -1.823)" fill="#070203"/>
      <path id="패스_1052" data-name="패스 1052" d="M233.892,29.07c-1.79,2.356-2.913,5.548-1.788,8.441a5.685,5.685,0,0,0,6.42,3.771,6.916,6.916,0,0,0,5.321-5.312,7.72,7.72,0,0,0-2.326-7.389,7.842,7.842,0,0,0-8.484-1.064c-1.027.5-.127,2.037.9,1.535a6.03,6.03,0,0,1,5.839.424,5.792,5.792,0,0,1,2.465,5.24,5.225,5.225,0,0,1-3.393,4.639,3.855,3.855,0,0,1-4.907-2.057c-1.226-2.486-.057-5.293,1.491-7.331a.9.9,0,0,0-.319-1.216.91.91,0,0,0-1.216.319" transform="translate(-86.402 -9.969)" fill="#070203"/>
      <path id="패스_1053" data-name="패스 1053" d="M261.543,28.054A37.609,37.609,0,0,0,263.2,42.247a.9.9,0,0,0,1.714,0,12.9,12.9,0,0,1,10.573-9.6.9.9,0,0,0,.621-1.093.91.91,0,0,0-1.093-.621A14.623,14.623,0,0,0,263.2,41.774h1.714a36.208,36.208,0,0,1-1.594-13.72c.086-1.141-1.692-1.136-1.778,0" transform="translate(-97.51 -10.145)" fill="#070203"/>
      <path id="패스_1054" data-name="패스 1054" d="M321.93,18.333q2.064,13.08,4.128,26.16c.178,1.126,1.891.648,1.714-.473l-4.129-26.16c-.177-1.126-1.89-.648-1.714.473" transform="translate(-120.068 -6.422)" fill="#070203"/>
      <path id="패스_1055" data-name="패스 1055" d="M326.13,21.518a3.461,3.461,0,0,1,3.314-1.169A5.55,5.55,0,0,1,333,22.741a9.74,9.74,0,0,1,2,4.691,3.138,3.138,0,0,1-1.808,2.965,11.749,11.749,0,0,1-4.3,1.221.918.918,0,0,0-.888.888.893.893,0,0,0,.888.888c3.2-.4,7.6-1.509,7.883-5.424a7.333,7.333,0,0,0-.71-3.282A14.316,14.316,0,0,0,334.644,22,7.557,7.557,0,0,0,330,18.65a5.3,5.3,0,0,0-5.4,1.971c-.665.933.875,1.821,1.535.9" transform="translate(-121.006 -6.916)" fill="#070203"/>
      <path id="패스_1056" data-name="패스 1056" d="M356.158,16.635a5.011,5.011,0,0,1,4.821.591A9.716,9.716,0,0,1,364,21.338c1.527,3.244,2.4,7.288-.7,9.9-2.37,1.991-6.682,2.136-8.28-.942a2.966,2.966,0,0,1,1.027-3.73,5.719,5.719,0,0,1,5.037-.95,17.757,17.757,0,0,1,5.35,2.255c1.237.8,2.75,2.077,2.415,3.726-.205,1.007,1.34,1.438,1.546.426.861-4.234-4.46-6.526-7.649-7.589a8.2,8.2,0,0,0-6.742.243,5.173,5.173,0,0,0-2.914,4.508,5.485,5.485,0,0,0,3.284,4.45,7.285,7.285,0,0,0,6.181-.043,7.847,7.847,0,0,0,3.991-4.149,9.889,9.889,0,0,0-.361-7.031c-.862-2.293-2.009-4.737-3.994-6.267a6.652,6.652,0,0,0-6.847-.891c-.928.451-.116,1.834.809,1.384" transform="translate(-131.695 -5.471)" fill="#070203"/>
      <path id="패스_1057" data-name="패스 1057" d="M390.645.856q-.4,8.6-.738,17.2c-.126,3.2-.066,8.443,3.992,9.227,1.117.216,1.6-1.5.472-1.714-1.55-.3-2.179-1.706-2.491-3.122a23.283,23.283,0,0,1-.134-5.941q.313-7.828.677-15.654c.053-1.144-1.725-1.141-1.778,0" transform="translate(-145.415 0)" fill="#070203"/>
      <path id="패스_1058" data-name="패스 1058" d="M411.867,31.988a6.4,6.4,0,0,0,6.936-2.77,4.906,4.906,0,0,0,.7-4.1,3.809,3.809,0,0,0-3.528-2.251,6.416,6.416,0,0,0-6.154,4.429,7.7,7.7,0,0,0,2.458,7.845c2.733,2.435,6.639,2.819,10.081,1.987,1.112-.268.641-1.983-.472-1.714a9.983,9.983,0,0,1-7.151-.692,6.533,6.533,0,0,1-3.432-5.26,4.71,4.71,0,0,1,3.12-4.6,3.4,3.4,0,0,1,2.764.132c.983.564.815,1.82.417,2.721a4.606,4.606,0,0,1-5.264,2.558.889.889,0,0,0-.473,1.714" transform="translate(-152.739 -8.525)" fill="#070203"/>
      <path id="패스_1059" data-name="패스 1059" d="M442.435,25.286a29.7,29.7,0,0,0,9.154-1.146.89.89,0,0,0-.473-1.714,28.015,28.015,0,0,1-8.681,1.083c-1.144-.036-1.143,1.741,0,1.778" transform="translate(-164.699 -8.349)" fill="#070203"/>
      <path id="패스_1060" data-name="패스 1060" d="M447.944,12.639q-.307,6.882-.4,13.771c-.026,1.971-.338,4.267.493,6.117a3.309,3.309,0,0,0,4.071,1.947c1.041-.433.584-2.153-.472-1.714-1.693.7-2.288-1.563-2.333-2.778-.07-1.907.017-3.831.051-5.739q.1-5.8.366-11.6c.051-1.144-1.727-1.141-1.778,0" transform="translate(-166.895 -4.394)" fill="#070203"/>
      <path id="패스_1061" data-name="패스 1061" d="M467.285,26.294l6.134-.519a.911.911,0,0,0,.889-.888A.9.9,0,0,0,473.42,24l-6.134.519a.912.912,0,0,0-.888.889.9.9,0,0,0,.888.888" transform="translate(-173.956 -8.949)" fill="#070203"/>
      <path id="패스_1062" data-name="패스 1062" d="M471.677,10.864a88.765,88.765,0,0,0,1.048,14.87c.309,1.99.625,4.2,2.079,5.717a4.057,4.057,0,0,0,5.011.84c.958-.618.068-2.158-.9-1.535-1.463.945-3.013-.415-3.6-1.73a20.562,20.562,0,0,1-1.149-5.649,87.239,87.239,0,0,1-.714-12.514.889.889,0,0,0-1.778,0" transform="translate(-175.922 -3.732)" fill="#070203"/>
      <path id="패스_1063" data-name="패스 1063" d="M494.9,27.882a7.622,7.622,0,0,0,5.142-1.031,5.123,5.123,0,0,0,2.3-4.066c.038-3.146-3.39-4.8-6.147-4.1-3.225.827-4.8,4.4-5.086,7.425a9.816,9.816,0,0,0,2.946,8.281c3.286,2.8,7.8,1.867,11.35.114,1.025-.507.126-2.04-.9-1.534-2.45,1.211-5.644,2.161-8.234.8a7.019,7.019,0,0,1-3.383-5.626c-.237-2.368.32-5.125,2.122-6.8,1.393-1.3,4.207-1.584,5.278.321a2.919,2.919,0,0,1-.983,3.532,5.882,5.882,0,0,1-4.4.907c-1.134-.129-1.125,1.649,0,1.778" transform="translate(-183.155 -6.91)" fill="#070203"/>
    </g>
  </g>
</svg>
