<svg xmlns="http://www.w3.org/2000/svg" xmlns:xlink="http://www.w3.org/1999/xlink" width="97.742" height="67.153" viewBox="0 0 97.742 67.153">
  <defs>
    <clipPath id="clip-path">
      <rect id="사각형_1394" data-name="사각형 1394" width="97.742" height="67.153" fill="none"/>
    </clipPath>
  </defs>
  <g id="그룹_505" data-name="그룹 505" transform="translate(0 0)">
    <g id="그룹_504" data-name="그룹 504" transform="translate(0 0)" clip-path="url(#clip-path)">
      <path id="패스_1035" data-name="패스 1035" d="M74.886,37.293a28.423,28.423,0,0,0-10.546,1.736c-2.528.942-5.577,2.655-5.05,5.841.45,2.721,3.121,4.621,5.689,5.092a9.87,9.87,0,0,0,7.67-1.8,17.235,17.235,0,0,0,5.637-8.564H75.97A99.1,99.1,0,0,1,78.008,63.73q-.055,1.434-.152,2.866a11.95,11.95,0,0,1-.322,3.028c-.358,1.022-1.222.905-2.107.674-2.357-.616-4.643-1.907-7.056-.75-1.392.668-.176,2.738,1.212,2.073,1.027-.492,2.368.067,3.358.4a10.651,10.651,0,0,0,3.644.844c3.944-.137,3.625-5.1,3.768-7.9a101.732,101.732,0,0,0-2.069-26c-.259-1.235-1.96-1.043-2.315,0-.968,2.854-2.482,5.793-5.062,7.5a7.125,7.125,0,0,1-7.054.614c-1.052-.548-2.314-1.693-2.223-3,.09-1.276,1.605-2.014,2.627-2.455a25.478,25.478,0,0,1,10.629-1.931,1.2,1.2,0,0,0,0-2.4" transform="translate(-9.076 -5.713)" fill="#1a1311"/>
      <path id="패스_1036" data-name="패스 1036" d="M.283,1.154A131.469,131.469,0,0,0,.6,22.393q.5,5.145,1.39,10.244.459,2.619,1.025,5.217A25.185,25.185,0,0,0,4.23,42.371C5.28,44.846,7.572,47.415,10.458,46c1.387-.678.172-2.749-1.212-2.072-1.18.577-2.213-1.247-2.628-2.076A20.316,20.316,0,0,1,5.29,37.015q-1.283-5.938-2-11.98a131.45,131.45,0,0,1-.6-23.881c.1-1.542-2.3-1.536-2.4,0" transform="translate(0 0)" fill="#1a1311"/>
      <path id="패스_1037" data-name="패스 1037" d="M26.3,36.609a11.247,11.247,0,0,0,2,10.7,10.509,10.509,0,0,0,10.2,3.545,11.267,11.267,0,0,0,5.081-2.384c1.461-1.2,3.067-3.093,2.53-5.122-.5-1.88-2.18-3.675-3.61-4.921a17.58,17.58,0,0,0-4.884-3,16.809,16.809,0,0,0-12.637-.165c-1.41.577-.793,2.9.638,2.314a14.9,14.9,0,0,1,16.79,4.182,7.828,7.828,0,0,1,1.266,1.882c.362.879-.255,1.594-.828,2.223a8.52,8.52,0,0,1-3.692,2.351,8.289,8.289,0,0,1-8.257-1.627,8.887,8.887,0,0,1-2.279-9.335c.519-1.459-1.8-2.086-2.314-.638" transform="translate(-3.705 -5.226)" fill="#1a1311"/>
      <path id="패스_1038" data-name="패스 1038" d="M105.477,30.711c-3.923.018-8.115,1.207-10.469,4.565a10,10,0,0,0-.533,10.051,9.475,9.475,0,0,0,16.895-.9,9.853,9.853,0,0,0-2.36-10.739c-1.145-1.032-2.847.66-1.7,1.7a7.412,7.412,0,0,1,2.13,7.205,6.633,6.633,0,0,1-5.461,5,7,7,0,0,1-6.934-2.626,7.593,7.593,0,0,1-.479-7.634c1.686-3.214,5.537-4.2,8.908-4.215a1.2,1.2,0,0,0,0-2.4" transform="translate(-14.308 -4.706)" fill="#1a1311"/>
    </g>
  </g>
</svg>
