<svg xmlns="http://www.w3.org/2000/svg" xmlns:xlink="http://www.w3.org/1999/xlink" width="232.998" height="57.582" viewBox="0 0 232.998 57.582">
  <defs>
    <clipPath id="clip-path">
      <rect id="사각형_1393" data-name="사각형 1393" width="232.998" height="57.582"/>
    </clipPath>
  </defs>
  <g id="그룹_503" data-name="그룹 503" transform="translate(0 0)">
    <g id="그룹_502" data-name="그룹 502" transform="translate(0 0)" clip-path="url(#clip-path)">
      <path id="패스_1022" data-name="패스 1022" d="M.919,31.853H17.038a.953.953,0,0,0,0-1.9H.919a.953.953,0,0,0,0,1.9" transform="translate(0 -9.835)"/>
      <path id="패스_1023" data-name="패스 1023" d="M12.952,19.917V46.782a.953.953,0,0,0,1.9,0V19.917a.953.953,0,0,0-1.9,0" transform="translate(-4.253 -6.238)"/>
      <path id="패스_1024" data-name="패스 1024" d="M35.223,27.046c.584,2.686,1.12,5.388,1.754,8.063.4,1.69,1.412,3.806,3.478,3.618a3.951,3.951,0,0,0,2.5-1.549c.866-.985,1.694-2.007,2.513-3.031q2.561-3.2,4.9-6.568L48.59,27.1q.972,17.7,1.945,35.392c.066,1.218,1.971,1.226,1.9,0L50.494,27.1a.96.96,0,0,0-1.774-.48q-1.927,2.772-4.008,5.435-1.033,1.312-2.1,2.594a7.5,7.5,0,0,1-1.983,2.077c-1.491.725-1.9-2.527-2.079-3.339q-.743-3.423-1.488-6.846c-.26-1.2-2.1-.69-1.836.506" transform="translate(-11.558 -8.491)"/>
      <path id="패스_1025" data-name="패스 1025" d="M76.786,22.93a212.364,212.364,0,0,0,4.261,30.45c.257,1.2,2.093.69,1.836-.506A208.781,208.781,0,0,1,78.69,22.93c-.081-1.216-1.986-1.225-1.9,0" transform="translate(-25.214 -7.229)"/>
      <path id="패스_1026" data-name="패스 1026" d="M81.174,28.855c3-.662,6.53.277,8.147,3.053,1.455,2.5,1.054,5.875-1.628,7.326a4.362,4.362,0,0,1-4.1.13c-1.08-.579-2.042,1.064-.961,1.644A6.579,6.579,0,0,0,91.6,37.57c1.512-3.757-.622-8.155-4.156-9.842a10.441,10.441,0,0,0-6.775-.709c-1.2.264-.69,2.1.506,1.836" transform="translate(-26.265 -8.785)"/>
      <path id="패스_1027" data-name="패스 1027" d="M104.9,4.917q.05,13.517.1,27.033a.96.96,0,0,0,1.774.48l3.845-5.392c.966-1.354,1.968-3.03,3.533-3.762a3.767,3.767,0,0,1,4.385,1.373c1.25,1.49,1.67,3.524,2.1,5.368.277,1.193,2.114.688,1.836-.506a14.126,14.126,0,0,0-2.589-6.208,5.8,5.8,0,0,0-5.562-2.091c-1.969.46-3.339,2.1-4.478,3.653-1.6,2.181-3.143,4.4-4.712,6.6l1.774.48q-.05-13.517-.1-27.033a.953.953,0,0,0-1.9,0" transform="translate(-34.449 -1.313)"/>
      <path id="패스_1028" data-name="패스 1028" d="M154.35,31.177a22.544,22.544,0,0,0-8.365,1.377c-2.005.748-4.423,2.106-4.006,4.633.357,2.158,2.476,3.665,4.512,4.038a7.828,7.828,0,0,0,6.084-1.431A13.67,13.67,0,0,0,157.046,33H155.21a78.606,78.606,0,0,1,1.617,19.145q-.043,1.137-.12,2.273a9.478,9.478,0,0,1-.255,2.4c-.284.811-.969.718-1.671.535-1.869-.489-3.682-1.512-5.6-.6-1.1.53-.14,2.172.961,1.644.815-.39,1.878.053,2.664.316a8.448,8.448,0,0,0,2.89.67c3.128-.109,2.875-4.042,2.989-6.27A80.69,80.69,0,0,0,157.046,32.5c-.206-.979-1.555-.827-1.836,0a11.264,11.264,0,0,1-4.015,5.953,5.651,5.651,0,0,1-5.6.487c-.834-.435-1.836-1.343-1.763-2.376.071-1.012,1.273-1.6,2.083-1.947a20.208,20.208,0,0,1,8.43-1.531.953.953,0,0,0,0-1.9" transform="translate(-46.608 -10.236)"/>
      <path id="패스_1029" data-name="패스 1029" d="M181.995,25.672A21.893,21.893,0,0,0,184.445,39.8a.959.959,0,0,0,1.774-.481c-.173-5.242,5.572-7.552,9.643-9.027,1.143-.414.65-2.255-.506-1.836-2.724.987-5.512,2.014-7.729,3.942a9.02,9.02,0,0,0-3.312,6.92l1.774-.48a19.779,19.779,0,0,1-2.259-12.665.983.983,0,0,0-.665-1.171.959.959,0,0,0-1.171.665" transform="translate(-59.671 -8.201)"/>
      <path id="패스_1030" data-name="패스 1030" d="M217.8,18.98a4.177,4.177,0,0,1,4.392.681,7.1,7.1,0,0,1,2.38,4.572,23.533,23.533,0,0,1-.026,6.282c-.1.989-.249,1.973-.431,2.95a8.834,8.834,0,0,1-.889,2.974c-1.561,2.573-5.717,1.609-6.533-1.075-1.032-3.392,1.8-6.359,5.109-6.46,4.361-.134,6.973,3.695,9.078,6.961.662,1.026,2.31.073,1.643-.961-2.426-3.765-5.419-7.82-10.346-7.906-4.437-.077-8.209,3.553-7.49,8.105a5.743,5.743,0,0,0,8.7,3.854c1.977-1.32,2.38-3.76,2.733-5.942a31.489,31.489,0,0,0,.453-8.055c-.254-2.566-1.112-5.159-3.218-6.788a6.064,6.064,0,0,0-6.513-.835c-1.089.563-.127,2.207.961,1.644" transform="translate(-70.471 -5.493)"/>
      <path id="패스_1031" data-name="패스 1031" d="M251.729,22.2q2.581,15.409,5.163,30.817c.2,1.206,2.037.694,1.836-.506q-2.581-15.409-5.163-30.817c-.2-1.206-2.036-.694-1.836.506" transform="translate(-82.658 -6.899)"/>
      <path id="패스_1032" data-name="패스 1032" d="M256.489,28.361a3.862,3.862,0,0,1,3.433-2.263,4.9,4.9,0,0,1,4.165,1.609c2.363,2.849.385,7.669-2.727,9.156-1.6.765-4.05.831-5-.864a.952.952,0,0,0-1.643.961c1.236,2.208,4.022,2.67,6.3,2.047a8.284,8.284,0,0,0,5.218-4.73,7.8,7.8,0,0,0-.177-7.055,6.552,6.552,0,0,0-5.409-3.034,5.923,5.923,0,0,0-5.8,3.212.984.984,0,0,0,.342,1.3.958.958,0,0,0,1.3-.341" transform="translate(-83.602 -7.94)"/>
      <path id="패스_1033" data-name="패스 1033" d="M279.879.917a122.959,122.959,0,0,0,1.548,25.7.961.961,0,0,0,1.74.227,20.508,20.508,0,0,1,3.251-4.58,20.9,20.9,0,0,1,2.005-1.857,7.449,7.449,0,0,1,2.478-1.547c1.705-.465,3.428,1.656,4.391,2.8a15.394,15.394,0,0,1,2.781,5.022c.385,1.157,2.225.661,1.836-.506a17.856,17.856,0,0,0-3.271-5.863c-1.3-1.552-3.245-3.59-5.461-3.427-2.151.159-4.17,2.1-5.628,3.539a22.259,22.259,0,0,0-4.028,5.455l1.74.227A120.621,120.621,0,0,1,281.783.917c.056-1.225-1.848-1.222-1.9,0" transform="translate(-91.866 0)"/>
      <path id="패스_1034" data-name="패스 1034" d="M317.849,24.971a30.978,30.978,0,0,0,3.658,5.292,29.308,29.308,0,0,0,2.347,2.434,8.727,8.727,0,0,0,2.545,1.862c2.232.885,3.809-1.019,5.149-2.5l5.29-5.847-1.625-.673q.108,19.426.216,38.853a.952.952,0,0,0,1.9,0l-.215-38.853a.963.963,0,0,0-1.625-.674l-4.5,4.977c-.669.74-1.316,1.511-2.023,2.216s-1.4,1.085-2.333.488a19.109,19.109,0,0,1-3.963-3.844,28.49,28.49,0,0,1-3.178-4.692c-.589-1.075-2.233-.115-1.644.961" transform="translate(-104.334 -7.73)"/>
    </g>
  </g>
</svg>
