<svg xmlns="http://www.w3.org/2000/svg" width="234.291" height="512.9" viewBox="0 0 234.291 512.9">
  <g id="그룹_542" data-name="그룹 542" transform="translate(-1410.352 -371.324)">
    <g id="그룹_529" data-name="그룹 529" transform="translate(1410.352 371.324)">
      <rect id="사각형_1474" data-name="사각형 1474" width="234.294" height="234.291" transform="translate(0 256.669) rotate(-90)" fill="#88fd93"/>
      <rect id="사각형_1490" data-name="사각형 1490" width="234.294" height="234.291" transform="translate(0 490.525) rotate(-90)" fill="#88fd93"/>
      <rect id="사각형_1498" data-name="사각형 1498" width="234.291" height="234.294" transform="translate(0 22.375)" fill="#88fd93"/>
      <rect id="사각형_1506" data-name="사각형 1506" width="234.291" height="234.294" transform="translate(0 256.231)" fill="#88fd93"/>
      <rect id="사각형_1475" data-name="사각형 1475" width="234.294" height="15.62" transform="translate(202.622 256.669) rotate(-90)"/>
      <rect id="사각형_1497" data-name="사각형 1497" width="234.294" height="15.62" transform="translate(202.622 490.525) rotate(-90)"/>
      <rect id="사각형_1499" data-name="사각형 1499" width="234.291" height="15.62" transform="translate(0 224.998)"/>
      <rect id="사각형_1507" data-name="사각형 1507" width="234.291" height="15.62" transform="translate(0 458.857)"/>
      <rect id="사각형_1481" data-name="사각형 1481" width="234.294" height="15.62" transform="translate(15.191 256.669) rotate(-90)" fill="#ffaced"/>
      <rect id="사각형_1522" data-name="사각형 1522" width="22.375" height="15.191" transform="translate(0 22.375) rotate(-90)" fill="#88fd93"/>
      <rect id="사각형_1523" data-name="사각형 1523" width="22.375" height="15.62" transform="translate(30.811 22.375) rotate(-90)" fill="#88fd93"/>
      <rect id="사각형_1524" data-name="사각형 1524" width="22.375" height="15.62" transform="translate(62.048 22.375) rotate(-90)" fill="#88fd93"/>
      <rect id="사각형_1525" data-name="사각형 1525" width="22.375" height="15.62" transform="translate(93.287 22.375) rotate(-90)" fill="#88fd93"/>
      <rect id="사각형_1526" data-name="사각형 1526" width="22.375" height="15.62" transform="translate(124.525 22.375) rotate(-90)" fill="#88fd93"/>
      <rect id="사각형_1527" data-name="사각형 1527" width="22.375" height="15.62" transform="translate(155.765 22.375) rotate(-90)" fill="#88fd93"/>
      <rect id="사각형_1528" data-name="사각형 1528" width="22.375" height="15.62" transform="translate(187.003 22.375) rotate(-90)" fill="#88fd93"/>
      <rect id="사각형_1529" data-name="사각형 1529" width="22.375" height="16.048" transform="translate(218.244 22.375) rotate(-90)" fill="#88fd93"/>
      <rect id="사각형_1491" data-name="사각형 1491" width="234.294" height="15.62" transform="translate(15.191 490.525) rotate(-90)" fill="#ffaced"/>
      <rect id="사각형_1505" data-name="사각형 1505" width="234.291" height="15.62" transform="translate(0 37.566)" fill="#ffaced"/>
      <rect id="사각형_1513" data-name="사각형 1513" width="234.291" height="15.62" transform="translate(0 271.426)" fill="#ffaced"/>
      <rect id="사각형_1480" data-name="사각형 1480" width="234.294" height="15.62" transform="translate(46.431 256.669) rotate(-90)" fill="#00ee17"/>
      <rect id="사각형_1492" data-name="사각형 1492" width="234.294" height="15.62" transform="translate(46.431 490.525) rotate(-90)" fill="#00ee17"/>
      <rect id="사각형_1503" data-name="사각형 1503" width="234.291" height="15.62" transform="translate(0 68.806)" fill="#00ee17"/>
      <rect id="사각형_1511" data-name="사각형 1511" width="234.291" height="15.62" transform="translate(0 302.665)" fill="#00ee17"/>
      <rect id="사각형_1479" data-name="사각형 1479" width="234.294" height="15.62" transform="translate(77.667 256.669) rotate(-90)" fill="#e5e5e5"/>
      <rect id="사각형_1493" data-name="사각형 1493" width="234.294" height="15.62" transform="translate(77.667 490.525) rotate(-90)" fill="#e5e5e5"/>
      <rect id="사각형_1504" data-name="사각형 1504" width="234.291" height="15.62" transform="translate(0 100.042)" fill="#e5e5e5"/>
      <rect id="사각형_1512" data-name="사각형 1512" width="234.291" height="15.62" transform="translate(0 333.901)" fill="#e5e5e5"/>
      <rect id="사각형_1478" data-name="사각형 1478" width="234.294" height="15.62" transform="translate(108.906 256.669) rotate(-90)" fill="#99dced"/>
      <rect id="사각형_1494" data-name="사각형 1494" width="234.294" height="15.62" transform="translate(108.906 490.525) rotate(-90)" fill="#99dced"/>
      <rect id="사각형_1502" data-name="사각형 1502" width="234.291" height="15.62" transform="translate(0 131.281)" fill="#99dced"/>
      <rect id="사각형_1510" data-name="사각형 1510" width="234.291" height="15.62" transform="translate(0 365.14)" fill="#99dced"/>
      <rect id="사각형_1476" data-name="사각형 1476" width="234.294" height="15.62" transform="translate(140.146 256.669) rotate(-90)" fill="#ff0"/>
      <rect id="사각형_1495" data-name="사각형 1495" width="234.294" height="15.62" transform="translate(140.146 490.525) rotate(-90)" fill="#ff0"/>
      <rect id="사각형_1500" data-name="사각형 1500" width="234.291" height="15.62" transform="translate(0 162.52)" fill="#ff0"/>
      <rect id="사각형_1508" data-name="사각형 1508" width="234.291" height="15.62" transform="translate(0 396.379)" fill="#ff0"/>
      <rect id="사각형_1477" data-name="사각형 1477" width="234.294" height="15.62" transform="translate(171.384 256.669) rotate(-90)" fill="#fff"/>
      <rect id="사각형_1496" data-name="사각형 1496" width="234.294" height="15.62" transform="translate(171.384 490.525) rotate(-90)" fill="#fff"/>
      <rect id="사각형_1501" data-name="사각형 1501" width="234.291" height="15.62" transform="translate(0 193.759)" fill="#fff"/>
      <rect id="사각형_1509" data-name="사각형 1509" width="234.291" height="15.62" transform="translate(0 427.618)" fill="#fff"/>
      <rect id="사각형_1530" data-name="사각형 1530" width="22.375" height="15.191" transform="translate(0.002 512.9) rotate(-90)" fill="#88fd93"/>
      <rect id="사각형_1531" data-name="사각형 1531" width="22.375" height="15.62" transform="translate(30.813 512.9) rotate(-90)" fill="#88fd93"/>
      <rect id="사각형_1532" data-name="사각형 1532" width="22.375" height="15.62" transform="translate(62.048 512.9) rotate(-90)" fill="#88fd93"/>
      <rect id="사각형_1533" data-name="사각형 1533" width="22.375" height="15.62" transform="translate(93.289 512.9) rotate(-90)" fill="#88fd93"/>
      <rect id="사각형_1534" data-name="사각형 1534" width="22.375" height="15.62" transform="translate(124.527 512.9) rotate(-90)" fill="#88fd93"/>
      <rect id="사각형_1535" data-name="사각형 1535" width="22.375" height="15.62" transform="translate(155.765 512.9) rotate(-90)" fill="#88fd93"/>
      <rect id="사각형_1536" data-name="사각형 1536" width="22.375" height="15.62" transform="translate(187.005 512.9) rotate(-90)" fill="#88fd93"/>
      <rect id="사각형_1537" data-name="사각형 1537" width="22.375" height="16.048" transform="translate(218.244 512.9) rotate(-90)" fill="#88fd93"/>
    </g>
  </g>
</svg>
