<svg xmlns="http://www.w3.org/2000/svg" xmlns:xlink="http://www.w3.org/1999/xlink" width="44.566" height="45.8" viewBox="0 0 44.566 45.8">
  <defs>
    <clipPath id="clip-path">
      <rect id="사각형_9" data-name="사각형 9" width="44.566" height="45.8"/>
    </clipPath>
  </defs>
  <g id="그룹_493" data-name="그룹 493" transform="translate(-5.233 -4.63)">
    <g id="그룹_467" data-name="그룹 467" transform="translate(5.233 4.63)" style="isolation: isolate">
      <g id="그룹_18" data-name="그룹 18" transform="translate(0 0)" clip-path="url(#clip-path)">
        <path id="패스_49" data-name="패스 49" d="M44.536,32.741a20.725,20.725,0,0,1-.269-2.27l-.009-.146c-.166-2.621-.337-5.333-.419-8-.026-.79-.062-1.593-.1-2.37-.035-.747-.071-1.52-.095-2.28-.036-1.075-.052-1.976-.023-2.883a29.476,29.476,0,0,0-.2-3.74l-.042-.422a.3.3,0,0,0-.143-.255l-.179-.106a3.568,3.568,0,0,0-.857-.409,6.978,6.978,0,0,1-.75-.271l-.14-.057c-1.372-.549-2.72-1.21-4.024-1.849-.659-.322-1.339-.657-2.017-.972a26.543,26.543,0,0,0-3.165-1.3.474.474,0,0,0-.412,0c-.207.119-.417.236-.626.353l-.574.322-.948.542c-.545.312-1.088.623-1.634.929-1.023.572-2.023,1.215-2.99,1.837-.376.243-.752.485-1.129.723-1.129.711-2.308,1.381-3.45,2.028-.533.3-1.066.6-1.6.913-.413.241-.83.474-1.25.709-.543.3-1.1.619-1.648.943-1.3.775-2.671,1.6-4.434,2.694a.678.678,0,0,1-.681.048c-.582-.228-1.155-.5-1.712-.754-.505-.234-1.028-.477-1.554-.691-.86-.349-1.774-.725-2.655-1.13l-.55-.253c-.9-.411-1.832-.838-2.725-1.308a4.278,4.278,0,0,0-.451-.195l-.1-.038.171-.112c.195-.127.382-.249.569-.37.434-.282.9-.542,1.343-.793.336-.189.684-.384,1.02-.59.662-.4,1.325-.836,1.962-1.254.395-.258.788-.516,1.185-.769,1.252-.8,2.552-1.562,3.81-2.3q.866-.508,1.727-1.02c.388-.231.773-.463,1.159-.695.879-.531,1.788-1.08,2.695-1.594.762-.431,1.527-.883,2.267-1.32.9-.529,1.824-1.077,2.75-1.591a.8.8,0,0,0,.3-.25A.267.267,0,0,0,21.971.1a.272.272,0,0,0-.287-.088.932.932,0,0,0-.313.143l-.117.076c-.1.061-.2.125-.3.178-.745.395-1.476.836-2.183,1.263-.527.318-1.073.648-1.617.955-.868.488-1.733,1.008-2.569,1.513-.68.408-1.381.831-2.079,1.234-.477.275-.952.558-1.425.84-.671.4-1.364.811-2.057,1.2-.84.468-1.658,1-2.452,1.509-.372.241-.747.482-1.122.718-.186.116-.37.233-.557.351-.745.473-1.516.96-2.313,1.378A16.151,16.151,0,0,0,.25,12.823a.55.55,0,0,0-.25.469c0,.128.006.258.006.386,0,.209,0,.425.015.636.017.309.041.617.065.926.036.453.073.922.09,1.383.022.586.05,1.17.078,1.754.031.643.062,1.308.082,1.962.021.589.084,1.183.145,1.757.067.624.136,1.269.149,1.9a.59.59,0,0,0,.324.535,18.88,18.88,0,0,0,2.222,1.145c.293.135.587.27.878.411.566.274,1.15.533,1.715.783.385.171.77.34,1.152.516.743.343,1.469.75,2.172,1.143.457.255.93.52,1.4.764.63.326,1.264.665,1.878.993.805.43,1.638.875,2.467,1.293s1.676.851,2.511,1.278c1.2.613,2.44,1.247,3.668,1.859.412.206.6.373.566.759a.55.55,0,0,0,.02.17.666.666,0,0,1,.019.095c.054.582.1,1.172.145,1.745.062.789.126,1.6.212,2.406.049.454.086.918.123,1.367.021.257.041.513.065.77q.128,1.418.261,2.836c0,.044,0,.066,0,.073a.282.282,0,0,1-.072-.026l-.552-.258c-.689-.321-1.4-.653-2.09-1.008l-.829-.432c-1.516-.79-3.081-1.607-4.689-2.273-.781-.321-1.421-.607-2.015-.9-.335-.165-.68-.323-1.014-.477-.568-.265-1.159-.536-1.719-.841-.622-.34-1.286-.621-1.928-.892-.405-.172-.826-.349-1.229-.54-1.452-.683-2.938-1.348-4.335-1.97a3.693,3.693,0,0,0-.68-.225l-.046-.012C1.15,35.064.96,35.01.9,35.2s.127.261.218.293l.039.014c.417.167.828.368,1.226.565.3.145.6.294.909.43.686.3,1.377.627,2.045.94.548.258,1.116.524,1.678.777.919.414,1.852.866,2.769,1.343,1.108.575,2.244,1.065,3.343,1.539,1.934.833,3.834,1.756,5.65,2.743.71.387,1.45.748,2.164,1.1.469.23.956.467,1.427.708l.035.018a.915.915,0,0,0,.4.136.349.349,0,0,0,.2-.061c.222-.151.462-.282.695-.408.195-.105.4-.214.588-.336l.628-.4c1.643-1.05,3.342-2.135,5.063-3.136.721-.419,1.466-.852,2.185-1.3.352-.22.706-.435,1.059-.652.244-.15.488-.3.732-.45a.736.736,0,0,0,.372-.835c-.013-.126-.031-.252-.05-.378-.029-.207-.06-.42-.072-.629-.05-.889-.131-1.79-.211-2.661-.076-.843-.153-1.714-.205-2.572-.033-.556-.093-1.117-.151-1.659-.039-.371-.08-.742-.112-1.114-.043-.513-.1-1.032-.151-1.536-.084-.777-.169-1.582-.216-2.374q-.065-1.137-.127-2.274c-.078-1.372-.153-2.743-.238-4.115-.011-.2-.028-.4-.043-.6-.021-.255-.043-.519-.056-.778a.356.356,0,0,1,.22-.383,22.59,22.59,0,0,0,2.549-1.592c.937-.655,1.929-1.234,2.775-1.714l.377-.211c.284-.159.577-.323.864-.495l.36-.219c.9-.548,1.84-1.117,2.8-1.593a1.212,1.212,0,0,1,.127-.057c0,.032.009.093.012.129l.017.336c.013.263.026.526.046.789.067.938.062,1.9.057,2.821,0,.368,0,.735,0,1.1.009,1,.069,2.019.127,3l.036.612c.041.724.068,1.46.1,2.173.036.993.076,2.02.155,3.029.056.728.1,1.47.14,2.187.048.855.1,1.739.173,2.607l.011.124c.058.66.118,1.344.2,2.013.036.3.082.613.141.949.047.289.211.321.321.31s.267-.07.264-.36a2.6,2.6,0,0,0-.031-.351M42.251,10.823c-.174.083-.356.17-.526.267q-.812.463-1.624.934-.577.334-1.157.666c-.285.164-.574.324-.862.483-.636.355-1.293.72-1.919,1.122-.336.217-.669.439-1,.661-.581.387-1.183.788-1.792,1.151-.129.078-.26.153-.389.229-.159.092-.315.183-.473.278a.149.149,0,0,1-.193,0,23.338,23.338,0,0,0-4.9-2.374,16.721,16.721,0,0,1-1.541-.684c-.263-.128-.526-.256-.794-.377-.877-.4-1.793-.734-2.677-1.06l-.41-.15-.086-.035c1.259-.7,2.489-1.491,3.681-2.253.289-.185.58-.371.869-.554.648-.41,1.329-.79,1.989-1.157.183-.1.366-.2.546-.3l.15-.084c.85-.477,1.729-.97,2.578-1.489a.445.445,0,0,1,.475-.035c1.7.719,3.457,1.539,5.211,2.434a36.864,36.864,0,0,0,4.663,2.025c.121.043.243.1.361.154l.021.01a.247.247,0,0,1,.039.022.4.4,0,0,1-.041.023l-.2.1m-31,18.08c.015.077.011.087,0,.094s-.06-.03-.08-.044a.5.5,0,0,0-.057-.039c-.207-.121-.426-.221-.636-.319l-.188-.089c-.546-.259-1.079-.565-1.6-.86-.419-.242-.853-.491-1.292-.715-.537-.271-1.094-.52-1.633-.759-.4-.179-.821-.365-1.224-.56s-.8-.372-1.2-.549c-.653-.292-1.328-.6-1.969-.941-.1-.055-.141-.105-.143-.194-.017-.6-.086-1.185-.153-1.752a15.34,15.34,0,0,1-.131-1.532l0,0C.921,20.1.906,19.586.89,19.093.871,18.438.852,17.82.8,17.2.7,16.022.626,14.861.571,13.749c0-.074-.007-.15,0-.186a1.745,1.745,0,0,1,.185.073c.394.172.786.374,1.164.571.318.166.651.338.985.491l.673.309c1.362.625,2.772,1.272,4.191,1.837.483.193.964.42,1.427.637.245.116.49.231.736.341.2.09.418.179.693.284.094.036.12.073.12.162a31.94,31.94,0,0,0,.294,4.012,16.2,16.2,0,0,1,.093,1.874c0,.186,0,.372.007.558.009.409.012.819.016,1.228.007.95.013,1.931.089,2.9a.643.643,0,0,0,.011.067m10.082-5.45c-2.228,1.255-4.355,2.609-6.522,4-.665.428-1.367.823-2.045,1.206q-.372.208-.741.421a.221.221,0,0,1-.095.036s-.017-.016-.023-.091q-.036-.594-.065-1.188l-.015-.075h-.012l-.02-1.09c-.017-.914-.035-1.857-.08-2.785-.007-.162-.014-.325-.019-.487a12.9,12.9,0,0,0-.145-1.721l-.007-.038a.556.556,0,0,1-.009-.061l-.036-.522c-.067-.939-.136-1.91-.177-2.868,0-.081.007-.1.063-.129a18.572,18.572,0,0,0,1.709-.992c.212-.133.422-.266.636-.4,1.681-1.025,3.18-1.9,4.578-2.685.6-.338,1.207-.683,1.808-1.028l.82-.469.095-.053c0,.03,0,.074.009.116.013.249.026.5.039.747.038.735.076,1.5.153,2.244.081.8.088,1.611.093,2.4,0,.451.007.915.024,1.374.045,1.191.107,2.364.187,3.759a.341.341,0,0,1-.2.37M12.36,29.543c1.4-.747,2.769-1.607,4.09-2.438.848-.536,1.727-1.089,2.606-1.607q1.011-.594,2.027-1.177l.574-.33A1.162,1.162,0,0,1,22,23.837l.022.007a.408.408,0,0,1,.064.019c.414.191.843.368,1.257.539.609.251,1.238.511,1.831.819a19.263,19.263,0,0,0,1.8.781,18.064,18.064,0,0,1,1.863.817,26.485,26.485,0,0,0,3.208,1.43l.017.006-.011.007c-.015.011-.033.02-.045.03a17.425,17.425,0,0,1-2.12,1.392c-1.416.805-2.828,1.67-4.193,2.506q-.926.568-1.854,1.13c-.4.241-.825.446-1.238.645-.252.12-.51.245-.762.377-.065.035-.119.022-.218-.023-1.1-.516-2.011-.961-2.858-1.4q-1.643-.858-3.295-1.711l-2.192-1.138c-.17-.088-.336-.178-.5-.27-.131-.071-.264-.144-.395-.214l-.046-.025a.268.268,0,0,0,.027-.015M22.172,34.9a39.27,39.27,0,0,0,3.972-2.336l.723-.463c1.285-.818,2.576-1.562,3.667-2.182a10.362,10.362,0,0,0,1.28-.821,4.181,4.181,0,0,1,.65-.392c.086-.045.171-.089.255-.136a.182.182,0,0,1,.076-.029h0s.019.014.026.1c.054.684.131,1.377.205,2.048.091.817.185,1.66.238,2.5.038.618.088,1.245.136,1.852.054.678.111,1.378.152,2.068,0,.114.02.226.035.342a4.079,4.079,0,0,1,.041.569l.007.029c.125.3.011.512-.406.746-.64.358-1.478.833-2.3,1.336l-.3.186c-2.152,1.316-4.378,2.677-6.511,4.108-.219.145-.45.283-.672.417l-.155.093A1.331,1.331,0,0,0,23.15,45a.505.505,0,0,1-.031-.161q-.029-.272-.058-.544c-.04-.355-.081-.721-.112-1.082-.054-.66-.129-1.328-.2-1.973-.078-.682-.156-1.388-.212-2.084-.08-1.05-.183-2.111-.293-3.195a6.572,6.572,0,0,0-.127-.718l-.033-.147c-.024-.112,0-.158.093-.205M32.72,27.8c-.007,0-.031.012-.081,0-.234-.066-.43-.126-.618-.2a23.982,23.982,0,0,1-2.284-1.012,21.563,21.563,0,0,0-2.942-1.25,9.2,9.2,0,0,1-1.108-.49c-.2-.1-.4-.2-.606-.289-.745-.331-1.516-.63-2.261-.918l-.462-.179c-.123-.048-.174-.086-.181-.2q-.065-1.3-.14-2.588l-.012-.075h-.009c-.012-.359-.026-.718-.04-1.077-.028-.756-.057-1.538-.076-2.306-.026-.908-.1-1.825-.179-2.714-.057-.667-.116-1.356-.151-2.037,0-.027,0-.058,0-.08a.354.354,0,0,1,.058.019q.784.319,1.572.633c.613.246,1.224.492,1.837.741a9.411,9.411,0,0,1,.877.415,17.14,17.14,0,0,0,1.669.742l.263.105a30.439,30.439,0,0,1,2.863,1.378,13.934,13.934,0,0,1,1.308.776c.07.047.093.077.089.154a20,20,0,0,0,.09,2.61c.012.174.026.346.039.52.06.814.105,1.627.131,2.415l.013.352c.031.9.065,1.836.162,2.751.021.192.038.385.058.577.034.381.07.774.128,1.159.008.042,0,.061,0,.066" transform="translate(0 0)"/>
      </g>
    </g>
  </g>
</svg>
