<svg id="그룹_388" data-name="그룹 388" xmlns="http://www.w3.org/2000/svg" xmlns:xlink="http://www.w3.org/1999/xlink" width="1203.703" height="210.826" viewBox="0 0 1203.703 210.826">
  <defs>
    <clipPath id="clip-path">
      <rect id="사각형_1221" data-name="사각형 1221" width="1203.703" height="210.826" fill="#fff"/>
    </clipPath>
  </defs>
  <g id="그룹_387" data-name="그룹 387" clip-path="url(#clip-path)">
    <path id="패스_922" data-name="패스 922" d="M574.47,41.471c2.6-.212,5.185-.481,7.778-.624,6.371-.351,12.753-.543,19.116-.99,6.288-.443,12.563-1.091,18.837-1.714,1.58-.157,3.136-.564,4.7-.849,2.065-.376,4.123-.814,6.2-1.1,4.229-.589,8.471-1.1,12.707-1.638.144-.019.289-.027.434-.032,6.117-.179,6.665.919,8.193,5.425,1.692,4.988,3.054,10.087,4.6,15.125,1.147,3.726,2.4,7.422,3.538,11.149.529,1.723,1.685,2.2,3.387,2.433,7.589,1.046,15.193.8,22.807.574,3.552-.1,7.11-.013,10.664-.033a11.137,11.137,0,0,1,7.144,1.9c.4-2.034.846-3.679,1.037-5.352A22.512,22.512,0,0,1,707.9,58.33c1.651-3.373,3.078-6.853,4.654-10.262a45.548,45.548,0,0,1,2.829-5.6,6.8,6.8,0,0,1,7.862-3.178c2.328.545,4.662,1.121,7.026,1.444,4.8.656,9.639,1.1,14.448,1.733a67.046,67.046,0,0,1,7.261,1.322,61.333,61.333,0,0,0,10.968,1.428c6.723.414,13.467.858,20.129,1.8,5.307.75,10.316,2.813,15.472,5.109-.425,3.3-.679,6.607-1.306,9.839-.934,4.819-2.431,9.543-3.146,14.387-1.1,7.424-1.836,14.907-2.533,22.383a121.455,121.455,0,0,1-2.257,16.508,107.974,107.974,0,0,0-1.89,12.408,58.867,58.867,0,0,1-3.339,14.087,148.329,148.329,0,0,0-7.591,28.875,76.183,76.183,0,0,1-5.837,19.014c-1.229,2.768-2.189,5.655-3.273,8.487a18.206,18.206,0,0,1-3.383,6.254c-1.821,1.942-3.011,2.155-5.388.934a16.824,16.824,0,0,1-7.392-6.817c-3.8-6.9-9.366-12.479-14.027-18.736a17.243,17.243,0,0,0-1.36-1.4,6.826,6.826,0,0,0-5.419-2.146c-5.138.015-10.088,1.124-15.02,2.245a76.726,76.726,0,0,1-17.864,2.235c-12.184-.132-24.366-.379-36.549-.615-2.389-.046-4.781-.2-7.163-.4-3.8-.324-7.134,1.024-10.308,2.842a46.088,46.088,0,0,0-4.466,3.082c-2.442,1.811-4.8,3.736-7.275,5.5a40.617,40.617,0,0,0-8.891,9.445c-1.712,2.328-3.466,4.634-5.341,6.832a20.471,20.471,0,0,1-3.28,2.836c-1.157.881-1.679.868-2.526-.347a23.288,23.288,0,0,1-2.271-4.168,213.676,213.676,0,0,1-11.686-35.583c-2.207-9.5-4.576-18.963-6.692-28.482-1.756-7.9-3.216-15.856-4.866-23.775-1.843-8.84-3.881-17.642-5.585-26.508-1.034-5.381-1.744-10.835-2.34-16.285-1.053-9.624-2.085-19.244-4.259-28.7a8.455,8.455,0,0,1,.445-4.891m163.184,79.561a5.449,5.449,0,0,0-3.781-2.046,97.848,97.848,0,0,0-9.815-1.662,30.09,30.09,0,0,0-7.3.349c-1.883.292-2.269,1.131-2.352,3.287,1.674.632,3.386,1.333,5.214.686a14.067,14.067,0,0,1,5.772-.624c3.093.215,6.181.518,9.27.79a3.156,3.156,0,0,0,3-.78m-74.8,19.607c1.458.032,1.613-.059,2.384-1.4a18.211,18.211,0,0,1,1.2-2.055,8.088,8.088,0,0,0,1.517-7.672c-.437-1.5-1.485-1.623-2.568-1.873a1.859,1.859,0,0,0-2.446,1.236c-.7,2.271-1.356,4.559-1.923,6.866-.178.726.134,1.57-.033,2.3-.443,1.937-.054,2.55,1.864,2.592m-12.179-23.227.3.713a34.967,34.967,0,0,0,4-.378c1.549-.318,3.049-.873,4.572-1.322,2.128-.627,4.136-1.357,6.446-.153a4.235,4.235,0,0,0,5.046-.779,5.027,5.027,0,0,0-2.87-2.842,8.454,8.454,0,0,0-6.737-.023c-3.283,1.3-6.576,2.581-9.847,3.913-.363.148-.613.574-.916.871m59.7,21.086c2.559,1.9,4.129,1.618,5.168-1.2a51.426,51.426,0,0,0,1.6-6.247,1.7,1.7,0,0,0-.159-1.214,3.353,3.353,0,0,0-5.6.489c-.625,1.438-1.115,2.935-1.738,4.6,2.456.685.342,2.357.734,3.576m-1.091-25.2c1.629,2.1,3.765,2.258,5.979,2.106a1.454,1.454,0,0,0,1.072-.6c.8-1.745,2.252-1.8,3.835-1.647,1.365.133,2.733.244,4.1.374a15.269,15.269,0,0,0,5.754-.144,9.69,9.69,0,0,0-2.706-1.05c-2.965-.635-5.934-1.269-8.922-1.78a17.847,17.847,0,0,0-4.308-.253c-1.989.151-3.823.779-4.8,2.99m.768-6.43c1.972,1.733,4.439,2.318,5.815,1.081,1.018-.915,1.889-.729,2.953-.566,2,.308,4.006.627,6.021.813a6.856,6.856,0,0,0,4.051-.621c-.788-1.223-1.953-1.323-3.068-1.522-1.85-.33-3.7-.68-5.551-.986-1.921-.318-3.841-.691-5.777-.861a4.29,4.29,0,0,0-4.444,2.662m-35.7,3.624a4.253,4.253,0,0,0-.527-1.216c-1.8-1.913-4.008-3.011-6.617-2.124-4.5,1.532-8.941,3.256-13.382,4.962-.5.191-.834.79-1.606,1.56a9.977,9.977,0,0,0,1.62-.113c2.07-.633,4.127-1.3,6.192-1.948s4.134-1.289,6.211-1.9a2.326,2.326,0,0,1,2.607.415c1.659,1.686,3.5,1.218,5.5.364m.568-5.858c-4.06-3.019-17.658-4-22.162-1.726.042,1.4,1.04,1.26,1.991,1.259,3.179,0,6.36-.042,9.537.043a18.332,18.332,0,0,1,6.384,1,4.044,4.044,0,0,0,4.25-.579m13.919,17.537c2.886.54,4.151-.293,4.67-2.984.467-2.419.174-2.8-2.254-2.9a3.62,3.62,0,0,0-.747.111c-1.3,1.735-2.277,3.455-1.669,5.773" fill="#fff"/>
    <path id="패스_923" data-name="패스 923" d="M93.55,168.15c-.309,1.5-.728,3.029-.92,4.585a24.315,24.315,0,0,1-2.567,8.218c-1.645,3.21-2.965,6.585-4.448,9.878a48.831,48.831,0,0,1-2.239,4.69c-2.193,3.74-4.725,4.778-8.954,3.866q-3.081-.666-6.167-1.3a56.279,56.279,0,0,0-9.04-1.12,62.119,62.119,0,0,1-13.091-1.978A55.045,55.045,0,0,0,34.953,193.5c-6.723-.349-13.456-.894-20.124-1.8-4.739-.643-9.181-2.613-13.633-4.366-1.064-.419-1.256-1.092-1.182-2.195a77.223,77.223,0,0,1,2.731-14.9c1.79-6.661,2.422-13.511,3.2-20.325.736-6.46,1.116-12.96,1.78-19.429.2-2,.9-3.941,1.242-5.931.7-4.056,1.536-8.107,1.925-12.2a59.269,59.269,0,0,1,3.453-15.384,145.887,145.887,0,0,0,7.545-28.664A75.457,75.457,0,0,1,27.44,49.885c1.387-3.175,2.538-6.452,3.787-9.685a16.493,16.493,0,0,1,3.391-6c1.507-1.515,2.774-1.813,4.692-.846,2.814,1.418,5.47,3.143,7.009,5.979,3.69,6.8,9.141,12.291,13.642,18.485.339.467.754.879,1.119,1.329A8.658,8.658,0,0,0,68.8,62.575,91.99,91.99,0,0,0,84.226,60.1a72.659,72.659,0,0,1,16.154-1.966c6.09.057,12.178.246,18.268.342,3.7.058,7.4-.005,11.1.083,4.928.118,9.861.218,14.778.54a15.553,15.553,0,0,0,10.107-2.7c5.337-3.717,10.592-7.6,15.543-11.8,2.491-2.116,4.317-5.043,6.3-7.705a37.82,37.82,0,0,1,6.75-7.608c2.05-1.6,2.691-1.521,4.038.738a23.417,23.417,0,0,1,1.311,2.733,225.9,225.9,0,0,1,12.851,40.2c2.506,11.136,5.2,22.23,7.626,33.383,2.377,10.941,4.446,21.948,6.785,32.9,1.45,6.786,2.925,13.562,3.724,20.46.648,5.6,1.093,11.22,1.855,16.8.665,4.86,1.681,9.671,2.47,14.515a34.628,34.628,0,0,1,.341,4.5,1.727,1.727,0,0,1-1.85,1.939c-2.241.137-4.478.368-6.721.445a216.126,216.126,0,0,0-22.337,1.579c-1.361.188-2.747.205-4.123.269a148.59,148.59,0,0,0-20.038,2.548,134.621,134.621,0,0,1-15.069,1.965c-6.578.451-6.68-1.26-8.155-5.417-1.641-4.625-2.935-9.372-4.389-14.062-1.283-4.138-2.609-8.262-3.853-12.411a2.718,2.718,0,0,0-2.669-2.119c-5.845-.4-11.632-1.244-17.563-.808-6.206.456-12.473.231-18.708.09-1.669-.038-3.321-.857-5.206-1.379M61.365,114.863c2.311,1.686,3.453,1.455,4.73-.856.139-.252.207-.662.409-.74,1.7-.659,1.679-2.328,2.233-3.661.917-2.208.32-4.243-.73-6.208a2.653,2.653,0,0,0-2.7-1.413,3.515,3.515,0,0,0-3.126,4.037c.017.216.02.435.058.647a16.557,16.557,0,0,1-.875,8.194M84.4,135.42c.063-.19.127-.38.19-.57A7.832,7.832,0,0,0,82.42,133.7a11.867,11.867,0,0,0-4.487-.249c-4.226.978-8.393,2.215-12.557,3.441a12.709,12.709,0,0,0-3.122,1.493c-1.368.866-1.473,2.023-.215,2.963a8.766,8.766,0,0,0,2.545.975c.156.05.386-.127.609-.209-.144-.628-.282-1.224-.445-1.936.767-.209,1.385-.375,2-.546,3.624-1.006,7.236-2.054,10.875-3,1.528-.4,3.11-.591,4.669-.869.7-.125,1.4-.229,2.108-.342m50.98-21.517c1.795,1.14,3.189.188,4.664-.376,1.639-.627,2.7-1.55,2.645-3.476a17.1,17.1,0,0,1,.455-2.321c.1-.815.734-1.678-.033-2.46a4.328,4.328,0,0,0-3.391-1.659c-1.206.084-2.552.061-3.133,1.445-1.184,2.824-1.94,5.721-1.207,8.847m-63.8,39.744a3.252,3.252,0,0,0,4.064.56c1.7-.813,3.4-1.6,5.072-2.468a11.576,11.576,0,0,1,6.641-1.614,3,3,0,0,0,2.932-.973,10.85,10.85,0,0,0-1.957-1.695,8.083,8.083,0,0,0-6.937-.4,36.053,36.053,0,0,0-9.815,6.593m.805-4.375a33.783,33.783,0,0,1,3.5-3.847c2.014-1.621,4.234-2.987,6.359-4.473a4.693,4.693,0,0,1,3.466-.863,3.425,3.425,0,0,0,3.264-1.07,6.378,6.378,0,0,0-8.509-.9,79.716,79.716,0,0,0-7.15,6.255,9.809,9.809,0,0,0-1.75,2.926,1.352,1.352,0,0,0,.818,1.967m63.836-2.679c-1.221-.75-2.2-1.021-3.378-.317a3.3,3.3,0,0,1-1.828.4c-2.153-.156-4.3-.441-6.446-.644-1.855-.175-3.585.059-4.9,1.686a3.258,3.258,0,0,0,2.955,1.576c3.458-.163,6.917-.364,10.365-.669a4.37,4.37,0,0,0,3.231-2.036M99.191,132.441c2.805.636,2.986.539,4.053-1.714a3.447,3.447,0,0,1,.862-1.18c1.3-1.06,1.289-2.514,1.177-3.934-.075-.958-1.465-1.666-2.747-1.638a1.717,1.717,0,0,0-1.909,1.612c-.285,1.627-.757,3.22-1.117,4.835-.15.67-.217,1.358-.319,2.019m35.773,10.67a2.45,2.45,0,0,0-1.617-3.467c-1.879-.718-3.771-1.428-5.706-1.965a16.036,16.036,0,0,0-3.83-.5A2.271,2.271,0,0,0,121.375,139a5.509,5.509,0,0,0,6.008,1.276c2.88-.665,4.933.344,6.107,2.839Zm-16.017-11.068a7.133,7.133,0,0,0,1.832.678c5.15.146,10.3.237,15.511.344-.212-1.178-1.073-1.039-1.846-1.124-3.721-.409-7.443-.8-11.154-1.286a5.092,5.092,0,0,0-4.343,1.388" fill="#fff"/>
    <path id="패스_924" data-name="패스 924" d="M897.424,186.058c-.976-4.666-1.656-9.215-2.8-13.736-1.452.3-1.924,1.134-1.757,2.1.574,3.312-1.5,5.1-3.783,6.743a33.8,33.8,0,0,1-4.767,3.017c-5.722,2.808-11.449,5.618-17.276,8.2a37.464,37.464,0,0,1-21.887,2.892,33.779,33.779,0,0,1-5.848-1.61,57.3,57.3,0,0,1-11.87-6.315,18.642,18.642,0,0,1-5-5.079,49.987,49.987,0,0,1-7.8-20.282,24.755,24.755,0,0,1,.14-6.9c.566-4.875,1.435-9.716,1.97-14.593.314-2.865.188-5.775.336-8.661a13.878,13.878,0,0,1,.529-3.838c1.12-3.2,2.307-6.386,3.717-9.466a15.382,15.382,0,0,1,5.367-6.17q5.268-3.636,10.758-6.952c3.606-2.174,7.71-2.87,11.814-3.453,4.877-.693,9.747-1.475,14.646-1.973a34.415,34.415,0,0,1,7.37.144c5.4.624,10.777,1.4,16.146,2.233,2.064.319,4.08.946,6.167,1.445.027-.086.167-.294.134-.47-.574-3.121-.969-6.292-1.8-9.344-1.7-6.219-5.487-10.628-11.949-12.253-3.578-.9-7.207-1.623-10.842-2.254a39.425,39.425,0,0,0-12.77.294c-7.233,1.1-14.506,1.954-21.73,3.106-3.933.627-7.8,1.678-11.834,1.339-.494-.042-.987-.09-1.617-.147a10.738,10.738,0,0,1-.149-1.724c.212-2.809.489-5.613.7-8.422.114-1.511.2-3.028.2-4.543.02-6.435-.022-12.87.011-19.305.027-5.184,1.061-6.482,6.169-7.495a64.742,64.742,0,0,1,7.1-.9,59.51,59.51,0,0,0,12.491-2.8,58.552,58.552,0,0,1,23.382-2.62c6.633.669,13.3.965,19.954,1.472A71.354,71.354,0,0,1,907.638,41a156.478,156.478,0,0,0,15.35,3.987c6.946,1.486,12.451,5.1,17.314,10.15a38.362,38.362,0,0,1,8.869,14.2c1.949,5.586,4.362,11.017,6.719,16.452a46.183,46.183,0,0,1,4.069,18.262c.028,4.11.637,8.215.714,12.327.116,6.139.323,12.288-.427,18.415-.219,1.789-.216,3.6-.352,5.4-.44,5.834-.916,11.664-1.34,17.5-.261,3.6-.381,7.216-.7,10.813-.417,4.743-.98,9.473-1.446,14.212a3.321,3.321,0,0,1-1.807,2.541,9.75,9.75,0,0,1-7.55,1.167,62.333,62.333,0,0,0-17.273-1.34c-7.382.406-14.784.445-22.177.681-2.607.083-5.21.3-7.817.413a23.627,23.627,0,0,1-2.363-.125m-15.23-62.536c-2.354,1.39-3.138-.017-4.647,1.835a25.433,25.433,0,0,1-3.226,3.5,7.255,7.255,0,0,0-2.658,7.143c.211,1.356.507,2.7.721,4.054a21.228,21.228,0,0,0,2.771,7.25,4.146,4.146,0,0,0,5.141,2.172,29.543,29.543,0,0,0,3.743-1.131c4.759-1.81,7.328-5.466,8.343-10.268a42.092,42.092,0,0,0,.434-5.179,6.883,6.883,0,0,0-2.414-5.787,2.872,2.872,0,0,0-1.885-.826,2,2,0,0,1-1.918-1.1c-1.164-1.56-3.089.093-4.405-1.656" fill="#fff"/>
    <path id="패스_925" data-name="패스 925" d="M310.989,121.536a20.308,20.308,0,0,0,.635,3.807,59.517,59.517,0,0,0,7.757,14.24,13.835,13.835,0,0,0,5.337,4.364c2.559,1.183,5.174,2.265,7.827,3.218a10.278,10.278,0,0,0,3.423.408c5.728,0,11.459.1,17.154-.765,2.571-.389,5.179-.531,7.752-.911,4.819-.71,9.046-2.994,13.323-5.135a29.888,29.888,0,0,1,3.55-1.632c2.171-.752,3.4-.121,3.837,2.118a47.884,47.884,0,0,1,.913,7.068c.152,3.392.185,6.8.006,10.192-.3,5.784.813,11.348,2.124,16.919.527,2.238.773,4.544,1.094,6.827a2.954,2.954,0,0,1-1.786,3.181,36.5,36.5,0,0,1-4.311,2.048c-5.99,2.181-12.038,4.2-18.011,6.426-7.314,2.722-14.864,2.95-22.513,2.442-1.085-.072-2.173-.194-3.257-.166a73.084,73.084,0,0,1-14.047-1.339c-6.143-1.033-12.293-2.03-18.443-3.028a43.511,43.511,0,0,1-12.008-3.676,96.9,96.9,0,0,1-18.2-10.99,60.02,60.02,0,0,1-19.019-24.893,150.638,150.638,0,0,1-8.588-31.058c-.246-1.423-.554-2.841-.692-4.275a26.907,26.907,0,0,1,1.306-12.151c2.165-5.894,3.837-11.967,5.8-17.936,1.06-3.224,2.188-6.435,3.483-9.57a29.137,29.137,0,0,1,3.137-5.921,72.018,72.018,0,0,1,17.247-17.606,12.247,12.247,0,0,0,1.4-1.028c4.333-4.021,9.729-5.894,15.24-7.554,4.16-1.253,8.281-2.638,12.464-3.806a67.423,67.423,0,0,1,14.8-2.262c12.785-.643,24.85,2.212,36.638,6.965,6.013,2.424,10.623,6.072,13.591,11.805,2.294,4.431,4.706,8.8,6.9,13.279,1.013,2.065,1.6,4.332,2.444,6.484,1.735,4.442,3.453,8.891,5.282,13.295,2.508,6.043,2.9,12.331,2.36,18.737a5.444,5.444,0,0,1-4.178,5.228,89.311,89.311,0,0,1-9.294,2.173q-9.334,1.485-18.734,2.567c-3.379.395-6.8.448-10.2.63-4.707.25-9.413.512-14.122.7-5.576.228-11.154.391-16.731.573-.779.026-1.56,0-2.694,0m24.952-25.26c-.291-2.428-.6-4.555-.791-6.691-.448-5.028-1.563-9.853-4.368-14.136a9.939,9.939,0,0,0-2.573-2.839,7.581,7.581,0,0,0-9.735.814c-.807.727-1.606,1.464-2.386,2.22a15.871,15.871,0,0,0-4.457,7.569,39.967,39.967,0,0,0-1.162,5.506c-.308,2.814-.959,5.663.115,8.742.822-1.551,2.154-1.527,3.47-1.507q10.005.153,20.011.321c.5.008.992,0,1.876,0" fill="#fff"/>
    <path id="패스_926" data-name="패스 926" d="M551.12,120.5c-.406,4.965-.831,9.928-1.209,14.895-.213,2.808-.3,5.625-.541,8.43a41.766,41.766,0,0,1-.732,4.926,23.845,23.845,0,0,1-5.206,10.579c-3.2,3.827-6.3,7.755-9.184,11.82-3.837,5.4-9.127,8.776-15.01,11.441-5.183,2.347-10.726,3.493-16.207,4.865a56.558,56.558,0,0,1-12.718,1.469c-5.5.1-11.012-.255-16.515-.491a18.925,18.925,0,0,1-3.845-.652c-4.627-1.184-9.281-2.3-13.849-3.684-7.207-2.186-14.358-4.5-20.874-8.472-3.51-2.14-7.346-3.751-11.018-5.632a23.048,23.048,0,0,1-6.319-4.906c-.94-1.005-1.88-2.014-2.886-2.95-6.368-5.924-9.467-13.572-11.378-21.775a76.581,76.581,0,0,1-1.052-8.6c-.1-.861-.133-1.733-.293-2.582a45.96,45.96,0,0,1,.306-18.077c.76-3.673,1.284-7.4,1.861-11.108A57.36,57.36,0,0,1,409.1,85.836c2.117-4.832,4.372-9.615,6.234-14.543,2.293-6.069,6.461-10.274,11.913-13.572A127.564,127.564,0,0,1,447.9,48.1a60.727,60.727,0,0,1,18.657-3.875c4.339-.226,8.672-.578,13.012-.8,1.186-.062,2.442-.293,3.512.637.264.23.837.137,1.268.144,6.043.106,11.934,1.326,17.875,2.263,5.779.911,10.509,4,15.483,6.634,1.792.949,3.576,1.924,5.292,3,6.281,3.949,11.787,8.7,15.127,15.478,2.426,4.925,4.688,9.931,6.991,14.915,2.023,4.377,2.653,9.143,3.758,13.772A97.376,97.376,0,0,1,551.12,120.5m-56.456-2.078h-.315c0-4.408.043-8.816-.013-13.223-.038-2.887-.233-5.771-.324-8.658a51.251,51.251,0,0,0-4.68-18.8,2.614,2.614,0,0,0-1.091-1.214,61.5,61.5,0,0,0-6.858-3.278,19.944,19.944,0,0,0-5.107-.8,2.382,2.382,0,0,0-1.466.72,10.228,10.228,0,0,0-2.823,5.044c-.88,2.976-1.72,5.965-2.6,8.94a16.561,16.561,0,0,0-.459,6.878c.614,4.8,1.311,9.592,1.949,14.391a54.8,54.8,0,0,1,.283,12.543c-.469,4.816-.93,9.651-.151,14.492a35.851,35.851,0,0,1,.432,3.877,50.413,50.413,0,0,0,2.353,12.322,27.1,27.1,0,0,0,2.66,5.665,9.24,9.24,0,0,0,4.633,3.782,6.269,6.269,0,0,0,8.725-4.21c.789-3.3,1.937-6.514,2.719-9.815a65.076,65.076,0,0,0,2.138-15.212c-.016-4.481,0-8.963,0-13.445" fill="#fff"/>
    <path id="패스_927" data-name="패스 927" d="M1130.1,84.625c-5.914-.419-11.533-1-17.092.734a48.039,48.039,0,0,1-5.146,1.023c-1.455-14.617-3.013-28.952-2.493-43.44l15.773-3.97a165.865,165.865,0,0,1,0-38.826c.5-.047,1.048-.146,1.6-.146q21,.012,42.006.059c1.954.007,3.908.344,5.862.341,3.113,0,6.225-.177,9.338-.258,1.141-.03,2.284-.005,3.495-.005.9,13.7-.255,27.181-2.082,40.818a13.768,13.768,0,0,0,1.643-.21,61.261,61.261,0,0,1,16.612-1.642c2.086.026,2.71.473,3.231,2.471a33.843,33.843,0,0,1,.479,12.7,63.989,63.989,0,0,0-.486,8.206,88.115,88.115,0,0,1-2.611,21.463c-.063.265-.173.518-.275.82-2.728-1.178-5.314-2.464-8.018-3.414-2.773-.974-5.7-.646-8.8-.5-.211,4.471-.5,8.791-.594,13.116-.106,4.913-.161,9.834-.006,14.744.156,4.98.6,9.952.909,14.928.077,1.225.192,2.452.2,3.678.019,6.941.006,13.883.011,20.824a39.97,39.97,0,0,0,.713,8.163,45.38,45.38,0,0,1,.614,9.276,35.427,35.427,0,0,0,1.02,9.879,8.076,8.076,0,0,1-1.1,6.826c-.741,0-1.6.033-2.455-.006a63.747,63.747,0,0,0-15.561,1.352,35.385,35.385,0,0,1-11.9.055,63.839,63.839,0,0,0-8.672-.468,36.764,36.764,0,0,1-10.7-1.634,28.421,28.421,0,0,1-5.368-2.773,1.759,1.759,0,0,1-.721-1.038c-.566-2.38-1.461-4.764-1.52-7.165-.192-7.8-.181-15.619-.027-23.425.084-4.254.7-8.495.921-12.75.33-6.349.632-12.7.744-19.061.126-7.156-.006-14.317.049-21.474.018-2.377.272-4.752.4-7.129.034-.631.005-1.266.005-2.146" fill="#fff"/>
    <path id="패스_928" data-name="패스 928" d="M1046.784,66.993a15.947,15.947,0,0,1,5.08-9.789,42,42,0,0,1,16.11-9.963c6.557-2.082,12.989-4.559,19.475-6.859a8.152,8.152,0,0,1,1.252-.368,2.007,2.007,0,0,1,2.653,1.828,12.043,12.043,0,0,1,.014,3.444c-.547,4.226-1.167,8.443-1.786,12.66-1.492,10.157-2.9,20.3-2.665,30.63.082,3.644-.813,7.308-1.245,10.966-.161,1.362-.265,2.731-.414,4.094-.052.474-.166.941-.293,1.631-.9-.232-1.653-.413-2.4-.617-3.489-.956-6.942-2.082-10.474-2.826a68.371,68.371,0,0,0-8.623-1.041,15.991,15.991,0,0,0-7.842,1.444c-2.84,1.273-5.632,2.676-8.33,4.22a5.776,5.776,0,0,0-2.216,2.538,28.166,28.166,0,0,0-2.472,10.926c-.331,16.624-.5,33.252-.951,49.873-.147,5.4-.971,10.783-1.484,16.174-.07.72-.129,1.44-.2,2.16-.2,2.058-.827,2.8-2.817,2.81-8.043.058-16.087.372-24.01-1.677-5.887-1.523-11.879-2.633-17.8-4.014a58.984,58.984,0,0,1-12.461-4.461c-3.151-1.536-5.426-3.849-6.153-7.4a16.112,16.112,0,0,1-.308-2.572c-.386-9.694.1-19.37.528-29.053.568-12.793.45-25.587-.2-38.382a226.11,226.11,0,0,1,.024-24.284c.171-3.029.187-6.075.107-9.108a64.923,64.923,0,0,1,1.646-15.484c.518-2.4.795-4.83,1.93-7.081a2.55,2.55,0,0,1,2.475-1.652c5.426-.184,10.853-.377,16.271-.705a67.531,67.531,0,0,0,7.106-.956,152.114,152.114,0,0,1,15.336-1.677c5.354-.354,10.683-.925,16.067-.864,1.849.021,3.061.412,3.557,2.281.7,2.645,1.6,5.249,2.125,7.928.77,3.968,1.244,7.993,1.923,11.98a28.546,28.546,0,0,0,1.011,3.4l.455-.156" fill="#fff"/>
  </g>
</svg>
