<svg id="그룹_393" data-name="그룹 393" xmlns="http://www.w3.org/2000/svg" xmlns:xlink="http://www.w3.org/1999/xlink" width="341.163" height="62.515" viewBox="0 0 341.163 62.515">
  <defs>
    <clipPath id="clip-path">
      <rect id="사각형_1223" data-name="사각형 1223" width="341.163" height="62.515" fill="none"/>
    </clipPath>
  </defs>
  <g id="그룹_391" data-name="그룹 391" clip-path="url(#clip-path)">
    <path id="패스_936" data-name="패스 936" d="M432.923,53.245c-2.11.349-4.044.751-6,.974-3.092.353-6.194.777-9.3.827-5.134.083-9.009-2.347-11.725-6.645a18.976,18.976,0,0,1-2.734-9.37c-.161-3.165-.288-6.334-.325-9.5a54.073,54.073,0,0,1,1.591-12.78A34.7,34.7,0,0,1,408,6.8,12.429,12.429,0,0,1,416.251.49a20.431,20.431,0,0,1,9.491.141,9.285,9.285,0,0,1,5.9,4.48,27.28,27.28,0,0,1,3.833,12.343c.159,2.91.579,5.817.564,8.723-.029,5.505-.2,11.013-.478,16.512-.18,3.615-.626,7.217-.98,10.822-.2,1.987-.442,3.969-.674,5.952-.065.555-.208,1.114-.908,1.1s-.9-.585-.852-1.132c.109-1.258.316-2.507.479-3.761.1-.772.19-1.545.3-2.422m.182-1.674c.18-2.169.441-4.435.543-6.709.278-6.209.577-12.419.685-18.633.047-2.7-.41-5.407-.541-8.115a26.768,26.768,0,0,0-3.484-11.83,8,8,0,0,0-5.571-4.1,20.181,20.181,0,0,0-6.275-.293,10.7,10.7,0,0,0-8.22,4.682,28.439,28.439,0,0,0-3.966,9.943,57.95,57.95,0,0,0-1.726,12.92c0,2.461,0,4.93.184,7.382a36.692,36.692,0,0,0,.915,6.529c1.579,6.048,6.123,10.277,12.592,9.973,3.911-.184,7.8-.789,11.7-1.23.991-.112,1.972-.323,3.162-.523" transform="translate(-243.296 0)" fill="#1a1311"/>
    <path id="패스_937" data-name="패스 937" d="M716.783,54.008c-1.79.309-3.443.662-5.113.866-3.09.377-6.183.775-9.287.968-6.587.409-11.583-3.563-13.843-9.047a20.207,20.207,0,0,1-1.474-6.483c-.207-3.34-.313-6.689-.352-10.035a54.058,54.058,0,0,1,1.6-12.779,34.8,34.8,0,0,1,3.571-9.943A12.334,12.334,0,0,1,700.962,1.1a18.758,18.758,0,0,1,9.957.77,8.884,8.884,0,0,1,4.352,3.66,27,27,0,0,1,4.069,12.651c.163,2.656.581,5.309.564,7.962q-.057,8.638-.472,17.274c-.172,3.615-.623,7.217-.976,10.822-.2,2.012-.446,4.02-.683,6.028-.066.557-.23,1.11-.931,1.069-.685-.04-.878-.611-.828-1.158.115-1.257.326-2.506.488-3.759.1-.771.181-1.544.282-2.409m.185-1.655c.181-2.155.442-4.42.547-6.693.279-6.056.6-12.115.686-18.175.045-3.057-.376-6.12-.575-9.181A26.817,26.817,0,0,0,714.342,7.34a8.186,8.186,0,0,0-5.787-4.393,20.24,20.24,0,0,0-6.277-.275,10.671,10.671,0,0,0-8.112,4.6,28.153,28.153,0,0,0-4.017,10,58.1,58.1,0,0,0-1.733,13c0,2.461,0,4.93.187,7.382a36.532,36.532,0,0,0,.908,6.454c1.6,6.158,6.23,10.321,12.649,10,3.911-.2,7.8-.8,11.7-1.244.989-.112,1.968-.316,3.106-.5" transform="translate(-414.739 -0.47)" fill="#1a1311"/>
    <path id="패스_938" data-name="패스 938" d="M506.459,47.914c0,3.1-.01,6.2.013,9.3a6.436,6.436,0,0,0,.279,1.036c.059.313.2.757.04.927a1.344,1.344,0,0,1-1.007.3,1.07,1.07,0,0,1-1.011-1.1c-.024-1.2-.015-2.4-.015-3.6,0-5.187-.016-10.375.02-15.563A66.226,66.226,0,0,1,505.993,28c.678-3.781,1.258-7.58,2-11.35a28.384,28.384,0,0,1,5.972-13.057A9.951,9.951,0,0,1,521.28.041c5.617-.409,9.333,2.218,12.144,6.528a27.019,27.019,0,0,1,3.835,10.911c.669,4.353,1.2,8.727,1.666,13.1.3,2.788.377,5.6.542,8.4.208,3.52.574,7.043.556,10.563-.017,3.381-.435,6.761-.683,10.14a.924.924,0,0,1-1.153.958,1.185,1.185,0,0,1-.887-1.419c.3-2.16.678-4.32.792-6.492a101.262,101.262,0,0,0-.6-13.924c-.243-2.847-.3-5.709-.556-8.555-.282-3.08-.625-6.159-1.095-9.217a68.024,68.024,0,0,0-1.628-8.155,17.279,17.279,0,0,0-5.661-9,9.909,9.909,0,0,0-7.375-2.011,8.562,8.562,0,0,0-6.393,3.757,28.386,28.386,0,0,0-5.09,12.31c-.907,4.827-1.8,9.662-2.463,14.522-.417,3.037-.453,6.125-.573,9.193-.082,2.083-.016,4.171-.016,6.257h-.183" transform="translate(-304.848 0)" fill="#1a1311"/>
    <path id="패스_939" data-name="패스 939" d="M795.915,59.383c-2.445-.171-4.746-.337-7.047-.492-.682-.046-1.367-.061-2.05-.093-.757-.036-1.22-.379-1.17-.913.065-.7.583-.84,1.157-.808,2.2.121,4.408.2,6.6.41a21.189,21.189,0,0,0,12.033-2.1,12.21,12.21,0,0,0,6.367-8.4,12.772,12.772,0,0,0-3.92-13.052,14.945,14.945,0,0,0-8.763-3.778c-2.894-.353-5.811-.671-8.384-2.183-3.726-2.191-6.671-5.077-7.553-9.513-1.052-5.289.655-9.6,4.767-13.053A19.924,19.924,0,0,1,797.8,1.193a39.2,39.2,0,0,1,10-.465c1.385.124,2.782.123,4.174.143.546.008,1.02.126,1.044.729.025.636-.429.843-1.024.83-2.682-.059-5.368-.211-8.047-.132a31.068,31.068,0,0,0-10.777,1.966A14.723,14.723,0,0,0,786.6,9.387a11.143,11.143,0,0,0,1.442,14.381,15.475,15.475,0,0,0,9.508,4.42,21.918,21.918,0,0,1,7.224,1.625c6.639,3.2,9.807,8.626,9.123,15.39-.6,5.942-3.726,10.367-9.514,12.542a25.684,25.684,0,0,1-4.218,1.206c-1.436.273-2.917.307-4.246.433" transform="translate(-472.821 -0.357)" fill="#1a1311"/>
    <path id="패스_940" data-name="패스 940" d="M235.757,59.758c-2.3-.159-4.6-.321-6.9-.474-.708-.047-1.417-.062-2.126-.1-.573-.032-1.112-.2-1.121-.876-.008-.7.532-.874,1.112-.842,2.252.126,4.507.231,6.753.426a21.093,21.093,0,0,0,12.085-2.209,12.34,12.34,0,0,0,6.35-8.937,12.731,12.731,0,0,0-3.987-12.35,14.969,14.969,0,0,0-8.811-3.848c-2.894-.353-5.81-.665-8.389-2.168-3.689-2.15-6.634-5-7.551-9.347-1.2-5.7.8-10.222,5.361-13.739A20.3,20.3,0,0,1,237.8,1.576a38.827,38.827,0,0,1,10-.461c1.385.122,2.782.118,4.174.141.557.009,1,.164,1,.768,0,.589-.422.8-.989.79-2.707-.058-5.419-.213-8.122-.131a30.594,30.594,0,0,0-10.774,1.98,14.518,14.518,0,0,0-6.813,5.522,11.145,11.145,0,0,0,1.638,13.887,15.41,15.41,0,0,0,9.552,4.5c2.639.3,5.321.568,7.711,1.832,6.611,3.495,9.325,8.726,8.664,15.227a14.214,14.214,0,0,1-9.677,12.6,22.6,22.6,0,0,1-8.4,1.532" transform="translate(-134.576 -0.59)" fill="#1a1311"/>
    <path id="패스_941" data-name="패스 941" d="M615.31,56.473c.375-1.593.794-3.187,1.124-4.8,1.639-8.062,3.228-16.136,4.887-24.192,1.09-5.294,2.289-10.559,3.4-15.846.628-2.978,1.171-5.979,1.785-8.961a7.708,7.708,0,0,1,.6-1.682A.938.938,0,0,1,628.6.547c.468.387.352.973.071,1.674A22.618,22.618,0,0,0,627.436,6.2c-.985,4.967-1.813,9.975-2.835,14.932-1.51,7.322-3.144,14.611-4.708,21.918-1.011,4.721-1.976,9.454-3,14.171a20.242,20.242,0,0,1-.947,3.111c-.156.4-.625.89-.935.875s-.771-.56-.861-.962c-.579-2.607-1.008-5.259-1.615-7.856-.77-3.3-1.7-6.54-2.492-9.83Q607.5,31.93,605.022,21.279c-1.141-4.892-2.237-9.8-3.347-14.7a11.452,11.452,0,0,0-2.029-4.8,1.2,1.2,0,0,1,.012-1.625c.444-.363.935-.07,1.369.552,2.23,3.2,2.623,7.16,3.521,10.905C607.11,22.3,609.622,33,612.173,43.692c1.011,4.237,2.074,8.459,3.137,12.781" transform="translate(-361.97 0)" fill="#1a1311"/>
    <path id="패스_942" data-name="패스 942" d="M340.427,61.416a37.312,37.312,0,0,1-9.923-1.2c-8.106-2.461-13-8.03-15.042-16.127a54.113,54.113,0,0,1-1.1-7.578,43.539,43.539,0,0,1-.29-6.071,42.49,42.49,0,0,1,2.266-13.724,22.712,22.712,0,0,1,7.626-10.505,20.6,20.6,0,0,1,9.5-3.775c2.2-.314,4.441-.334,6.664-.485a12.171,12.171,0,0,1,1.9-.1,1.813,1.813,0,0,1,1.072.534.884.884,0,0,1-.118.868,2.593,2.593,0,0,1-1.072.252,2.216,2.216,0,0,1-.3-.029c-4.831.1-9.616.417-14.063,2.614a19.343,19.343,0,0,0-8.525,8.891,29.145,29.145,0,0,0-2.81,10.337,42.841,42.841,0,0,0-.423,6.52c.175,4.732.36,9.518,1.992,14.012,1.968,5.422,5.418,9.6,10.937,11.87a27.419,27.419,0,0,0,8.572,1.8c1.867.137,3.747.112,5.622.142.6.01.987.25,1.016.873.028.606-.34.869-.909.875-.863.009-1.726,0-2.589,0" transform="translate(-189.674 -1.109)" fill="#1a1311"/>
    <path id="패스_943" data-name="패스 943" d="M73.579,27l-.793-2.086-3.259-8.565L67.911,12.1a6.09,6.09,0,0,0-.838-1.9c-.545-.607-1.24-.409-1.9-.152q-4.179,1.625-8.33,3.322-4.484,1.832-8.933,3.748a65.783,65.783,0,0,1-9.366-5.723q-.531-.389-1.053-.789a2.4,2.4,0,0,0-1.3-.7c-.946-.033-1.438,1.167-1.85,1.844a47.528,47.528,0,0,0-2.6,4.884q-.939,2.047-1.688,4.172l-2.911-7.3-.881-2.21A3.007,3.007,0,0,0,25.2,9.675a2.276,2.276,0,0,0-2.094.175l-2.226.9-8.832,3.568-2.227.9a12.753,12.753,0,0,0-2.036.863,1.545,1.545,0,0,0-.729,1.785A19.023,19.023,0,0,0,7.935,20l3.9,9.31c-1.21.215-2.417.44-3.622.681q-1.121.225-2.239.464a4.754,4.754,0,0,0-1.727.539,1.692,1.692,0,0,0-.606,1.842c.129.751.284,1.5.426,2.246l.843,4.438q.415,2.184.83,4.37a19.241,19.241,0,0,0-3.245.389,5.509,5.509,0,0,0-1.877.573A1.54,1.54,0,0,0,.08,46.628c.173.624.447,1.225.641,1.845.2.648.381,1.3.54,1.963.324,1.348.566,2.715.775,4.085.416,2.731.7,5.483,1.229,8.2A5.717,5.717,0,0,0,3.8,64.653a1.7,1.7,0,0,0,1.61.737,15.776,15.776,0,0,0,2.1-.4l2.178-.464,9.7-2.068.722,3.2c.236,1.047.334,2.48,1.683,2.58a6.8,6.8,0,0,0,1.724-.261l1.884-.367,3.61-.7,14.756-2.874a2.881,2.881,0,0,0,1.642-.689,1.954,1.954,0,0,0,.5-1.318c.021-.641-.25-1.318-.273-1.969l1.536,1.186a24.97,24.97,0,0,0,2,1.53,1.783,1.783,0,0,0,2.2-.366q.947-.74,1.865-1.518A63.377,63.377,0,0,0,59.9,54.352c1.032-1.174,2.015-2.388,2.961-3.632q2.961.046,5.922.045.8,0,1.594-.006a9.117,9.117,0,0,0,1.514-.045,1.156,1.156,0,0,0,.927-.726,3.179,3.179,0,0,0-.037-1.447c-.523-3.9-1.619-7.69-2.375-11.548a37.808,37.808,0,0,1-.709-5.5.733.733,0,0,0,.285-.1l1.957-1.173a5.885,5.885,0,0,0,1.666-1.141c.519-.655.232-1.391-.031-2.083M1.438,46.019c-.012-.038.008-.029,0,0M72.271,28.33c-.328.2-.663.4-.994.6l-1.823,1.093a.732.732,0,0,0-1.237.51c.058,5.133,1.592,10.064,2.6,15.055.138.685.266,1.373.379,2.063.059.362.114.724.163,1.088.022.163.08.383.094.58-.189.01-.488-.013-.592-.012l-1.116.006q-1.2,0-2.391,0c-1.385,0-2.77-.021-4.155-.041a.655.655,0,0,0-.15-.126.744.744,0,0,0-.995.261,62.508,62.508,0,0,1-5.684,6.611q-1.541,1.56-3.187,3.01-.822.725-1.67,1.421-.41.336-.825.666c-.15.119-.483.481-.669.462-.1-.011-.262-.174-.349-.239-.189-.143-.375-.29-.562-.434l-1.062-.82-2.25-1.737a.719.719,0,0,0-.937.183.7.7,0,0,0-.528.484,4.938,4.938,0,0,0,.087,2.423,1.992,1.992,0,0,1,.031.748c-.074.263-.42.319-.743.385-2.246.456-4.5.876-6.75,1.315l-13.5,2.629-.942.183c-.136.027-.482.157-.628.1a.087.087,0,0,0-.022-.04,1.221,1.221,0,0,1-.093-.387q-.107-.469-.212-.938l-.882-3.909a.659.659,0,0,0-.933-.463A.72.72,0,0,0,19.265,61L11.252,62.7l-4.046.862a15.3,15.3,0,0,1-1.8.368c-.116.01-.28.039-.371-.046-.157-.146-.168-.572-.211-.772-1.053-4.909-1.171-10-2.64-14.824-.2-.656-.461-1.289-.671-1.941-.029-.091-.033-.227-.071-.311a.144.144,0,0,1,.031-.014,9.357,9.357,0,0,0,.962-.256,17.492,17.492,0,0,1,4.351-.442.73.73,0,0,0,.454-1.286L5.719,36.014Q5.527,35,5.335,33.99l-.192-1.012c-.032-.168-.206-.619-.106-.777.046-.072.276-.112.346-.131.321-.087.652-.147.977-.216q1-.214,2.007-.417,2.319-.468,4.65-.871a.733.733,0,0,0,.508-.894c-.006-.02-.015-.037-.022-.056a.492.492,0,0,0-.036-.146L10.1,21.435,9.246,19.39l-.4-.949a3.448,3.448,0,0,1-.406-1.026c0-.01,0-.016,0-.023s.006,0,.01-.006a.781.781,0,0,1,.266-.159c.29-.141.6-.248.9-.369l2.078-.839,8.164-3.3c1.36-.55,2.716-1.114,4.082-1.649.148-.058.392-.206.547-.124s.254.44.316.594l.793,1.988,3.671,9.2a.893.893,0,0,0,.347.432.752.752,0,0,0,1.272-.261,46.972,46.972,0,0,1,4.08-9.352q.308-.537.63-1.066.151-.249.306-.5a5.891,5.891,0,0,0,.352-.511c.023.014.048.029.066.043.185.141.368.285.553.425q.524.4,1.055.787,2.067,1.509,4.248,2.852,2.491,1.534,5.111,2.842h0a.771.771,0,0,0,.9.135q7.571-3.263,15.244-6.285.952-.374,1.9-.746l.44-.171c.068-.026.135-.054.2-.078a.405.405,0,0,1,.062-.015l.005.011c.048.156.118.309.176.462l1.5,3.947,2.976,7.82c.548,1.44,1.115,2.873,1.644,4.32.109.3.19.333-.075.5" transform="translate(0 -5.723)" fill="#1a1311"/>
  </g>
</svg>
