<svg id="그룹_556" data-name="그룹 556" xmlns="http://www.w3.org/2000/svg" xmlns:xlink="http://www.w3.org/1999/xlink" width="86.918" height="113.682" viewBox="0 0 86.918 113.682">
  <defs>
    <clipPath id="clip-path">
      <rect id="사각형_1568" data-name="사각형 1568" width="86.918" height="113.682" transform="translate(0 0)" fill="none"/>
    </clipPath>
  </defs>
  <g id="그룹_555" data-name="그룹 555" clip-path="url(#clip-path)">
    <path id="패스_1074" data-name="패스 1074" d="M53.813.035C41.139.4,28.515.969,18,8.052,6.445,15.833.756,30.224.081,44.137s2.957,27.634,6.557,41.09c1.983,7.411,4.186,15.207,9.7,20.543,7.1,6.877,17.9,7.985,27.782,7.908,14.648-.114,31.439-3.347,38.695-16.072,3.928-6.888,4.171-15.209,4.1-23.138q-.142-14.958-1.314-29.88c-.781-9.93-2-20.138-6.834-28.846S65.113-.328,54.628.011" fill="#1a1311"/>
    <path id="패스_1075" data-name="패스 1075" d="M39.558,14.213a1.781,1.781,0,0,0-1.771,1.3,6.234,6.234,0,0,0-.035,2.428l1.587,13.369c.343,2.884.793,6.063,2.172,7.686a.843.843,0,0,0,.48.344c.6.062.859-1.326.9-2.4a108.152,108.152,0,0,0-1.32-18.573,11.945,11.945,0,0,0-.639-2.872c-.349-.83-.947-1.414-1.511-1.162" fill="#fff"/>
  </g>
</svg>
