<svg id="그룹_356" data-name="그룹 356" xmlns="http://www.w3.org/2000/svg" xmlns:xlink="http://www.w3.org/1999/xlink" width="43.499" height="43.51" viewBox="0 0 43.499 43.51">
  <defs>
    <clipPath id="clip-path">
      <rect id="사각형_1166" data-name="사각형 1166" width="43.499" height="43.51" fill="#fff"/>
    </clipPath>
  </defs>
  <g id="그룹_355" data-name="그룹 355" clip-path="url(#clip-path)">
    <path id="패스_900" data-name="패스 900" d="M43.5,10.023a3.59,3.59,0,0,0-.108.411,4.088,4.088,0,0,1-1.213,2.339q-3.08,3.094-6.171,6.177-9.773,9.775-19.536,19.559a3.733,3.733,0,0,1-1.813,1.044c-2.316.586-4.616,1.232-6.923,1.85s-4.6,1.226-6.9,1.838c-.178.047-.362.079-.537.134-.059.018-.1.088-.151.135H0c.257-.98.511-1.96.772-2.938q1.348-5.049,2.7-10.1c.191-.715.391-1.428.57-2.147a1.669,1.669,0,0,1,.462-.8q2.619-2.615,5.229-5.24,4.255-4.263,8.511-8.524,6.063-6.082,12.12-12.17A4.871,4.871,0,0,1,32.494.181a3.915,3.915,0,0,1,3.9.869c1.188,1.088,2.316,2.243,3.458,3.382Q41.115,5.7,42.347,7a3.428,3.428,0,0,1,1.032,2.33.262.262,0,0,0,.012.071.239.239,0,0,0,.035.05l.072-.2ZM26.432,8.12,6.307,28.317c.778.793,1.517,1.557,2.267,2.31q3.116,3.127,6.238,6.248c.345.346.338.345.683,0q4.024-4.033,8.051-8.063Q29.4,22.965,35.254,17.121a.634.634,0,0,0,.073-.109l-8.9-8.892m11.657,6.117c1.009-1,2.034-1.972,3-3a2.183,2.183,0,0,0,.051-2.863c-.34-.407-.728-.776-1.1-1.152C38.5,5.684,36.944,4.161,35.428,2.6a2.452,2.452,0,0,0-3.519.019c-.834.886-1.711,1.733-2.568,2.6-.049.049-.092.1-.12.136l8.867,8.886M5.475,30.155c-.024.064-.06.144-.083.227-.509,1.887-1.012,3.775-1.529,5.659a.551.551,0,0,0,.181.614c.922.9,1.842,1.805,2.733,2.736a.63.63,0,0,0,.718.191c1.792-.488,3.587-.964,5.381-1.446.143-.038.284-.086.448-.136L5.475,30.155" transform="translate(0 0)" fill="#fff"/>
  </g>
</svg>
