<svg xmlns="http://www.w3.org/2000/svg" xmlns:xlink="http://www.w3.org/1999/xlink" width="435.44" height="313.733" viewBox="0 0 435.44 313.733">
  <defs>
    <clipPath id="clip-path">
      <rect id="사각형_1098" data-name="사각형 1098" width="435.441" height="313.733" fill="none"/>
    </clipPath>
  </defs>
  <g id="그룹_486" data-name="그룹 486" transform="translate(-723.559 -3663.633)">
    <g id="그룹_276" data-name="그룹 276" transform="translate(723.559 3663.633)">
      <g id="그룹_267" data-name="그룹 267" transform="translate(0 0)" clip-path="url(#clip-path)">
        <path id="패스_214" data-name="패스 214" d="M208.761,2.782C162.672,5.91,116.461,8.9,70.91,16.936c-18.6,3.284-39.083,7.026-51.534,22.678C7.971,53.953,5.651,73.163,4.175,90.822c-4,47.983-6.016,96.4-1.947,144.448.957,11.3,2.046,22.691,4.006,33.869,1.531,8.739,4.373,17.755,11.316,23.731,7.31,6.287,17.081,8.442,26.259,10.4,11.164,2.383,22.441,4.191,33.763,5.623,47.366,5.986,95.026,5.267,142.64,3.891,45.046-1.3,90.195-1.142,135.172-4.148q17.335-1.158,34.608-3.006c9.131-.987,17.887-3.046,25.675-8.145a37.6,37.6,0,0,0,15.9-21.513c2.766-9.778,2.7-20.282,3.076-30.354,1.835-48.61.32-97.287-2.812-145.815-1.558-24.14-2.884-48.485-5.729-72.513-.983-8.316-3.64-16.22-11.356-20.527-8.26-4.61-18.652-4.449-27.813-4.986C339.508-1.013,291.983-.06,244.528,1.528q-17.885.6-35.766,1.254c-2.891.1-2.9,4.607,0,4.5,45.449-1.6,90.921-3.429,136.406-2.591q16.85.312,33.691,1.142c9.712.488,20.556.026,29.872,3.191,11.237,3.815,12.554,14.138,13.471,24.539q1.544,17.568,2.917,35.143c3.538,45.772,5.96,91.66,5.811,137.581q-.054,17.618-.64,35.228c-.36,10.55-.1,21.675-2.719,31.971a33.989,33.989,0,0,1-17.425,22.035c-9.234,4.973-19.553,5.6-29.79,6.58-42.264,4.056-84.7,4.369-127.11,5.293-45.1.983-90.244,3.389-135.334.67-22.625-1.363-45.281-3.65-67.536-8.042-9.412-1.855-20.078-3.412-28.067-9.121-8.26-5.9-10.689-16.048-12.151-25.533-7-45.4-6.6-91.983-4.039-137.726,1.139-20.269,1.363-41.5,6.042-61.345,2.066-8.745,5.363-17.464,11.164-24.447,6.445-7.762,15.378-12.4,24.886-15.332,9.748-3,19.933-4.61,29.971-6.287q16.306-2.718,32.724-4.68c21.411-2.594,42.911-4.392,64.421-5.957,11.141-.809,22.289-1.558,33.433-2.313,2.878-.195,2.9-4.7,0-4.5" transform="translate(-0.001 -0.001)" fill="#1a1311"/>
        <path id="패스_215" data-name="패스 215" d="M373.882,11.027A2305.339,2305.339,0,0,0,89.529,17.591c-20.853,1.772-42.594,4.135-60.141,15.54C26.243,35.174,23.2,37.569,21.3,40.8a30.13,30.13,0,0,0-3,9.062C5.08,111.148,9.928,173.447,9.624,235.677c-.033,7.158,4.8,14.1,10.758,18.068,4.785,3.178,10.808,3.683,16.543,4.056,33.14,2.152,66.338,4.2,99.544,3.878,77.826-.762,149.686-4.386,226.485-15.055a25.08,25.08,0,0,0,12.24-5.165c5.557-4.491,8.722-11.834,8.993-18.972,2.683-71.285-1.228-133.865-5.313-211.348" transform="translate(20.701 21.402)" fill="#1a1311"/>
      </g>
    </g>
  </g>
</svg>
