<svg xmlns="http://www.w3.org/2000/svg" xmlns:xlink="http://www.w3.org/1999/xlink" width="547" height="539.514" viewBox="0 0 547 539.514"><defs><clipPath id="a"><rect width="547" height="539.514" fill="#070203"/></clipPath></defs><g clip-path="url(#a)"><path d="M.007,24.412c0,66.786.71,133.569,1.639,200.351.933,66.837,2.094,133.673,3.02,200.51q.764,55,1.22,110c0,.5.563.9,1.234.909q95.121,1.7,190.266,2.378,95.259.685,190.522.375,47.423-.154,94.839-.559,23.766-.2,47.531-.471c4.76-.052,10.665.1,14.031-2.863,3.764-3.314,2.476-8.924,2.486-12.875q.183-66.2-.131-132.4-.285-64.787-.893-129.573-.583-65.964-1.273-131.928-.34-34.474-.661-68.948c-.146-15.8.045-31.681-2.015-47.431a43,43,0,0,0-1.614-8.547C539.615,1.628,538.084,1.081,535.8.7,528.309-.558,519.933.2,512.341.517c-12.636.526-25.362.378-38.017.514q-23.4.25-46.8.5-94.99,1.014-189.982,2.015Q142.355,4.554,47.16,5.57L1.243,6.064c-.669.006-1.234.41-1.236.908-.016,5.814,0,11.626,0,17.44,0,1.17,2.47,1.171,2.47,0,0-5.814-.016-11.626,0-17.44l-1.234.909q93.11-1,186.221-1.987Q281.152,4.9,374.838,3.91q46.56-.494,93.117-.993c13.848-.149,27.759-.031,41.595-.469,7.633-.242,15.358-.848,22.989-.28,1.219.091,3.4.122,4.458.7s1.016,1.586,1.238,2.523a79.52,79.52,0,0,1,1.539,10.1c.743,7.108,1.109,14.24,1.323,21.367.615,20.373.439,40.773.636,61.149q.633,65.47,1.283,130.941.6,63.633,1.006,127.267.377,64.47.364,128.939-.01,16.464-.051,32.929-.01,4.094-.023,8.186c-.009,2.87.439,6.443-3.067,8.368-2.666,1.465-6.378,1.4-9.552,1.439-4.013.051-8.027.088-12.038.132q-46.231.49-92.463.742-93.769.51-187.543.05-93.58-.456-187.147-1.879-22.692-.348-45.383-.753l1.236.908c-.5-65.806-1.5-131.608-2.528-197.41C4.782,270.755,3.7,203.645,3.06,136.532q-.539-56.059-.582-112.12c0-1.17-2.47-1.171-2.47,0" transform="translate(0 0)" fill="#070203"/></g></svg>